<?xml version="1.0" standalone="no"?>
<!DOCTYPE svg PUBLIC "-//W3C//DTD SVG 1.1//EN" "http://www.w3.org/Graphics/SVG/1.1/DTD/svg11.dtd" >
<svg xmlns="http://www.w3.org/2000/svg" xmlns:xlink="http://www.w3.org/1999/xlink" version="1.1">
<metadata>
Created by FontForge 20160405 at Sat Jan 20 06:47:22 2018
 By www-data
Copyright (c) Joshua Darden &#38; Phil's Fonts, Inc, 2005. All rights reserved.
</metadata>
<defs>
<font id="Freight-BigBook" horiz-adv-x="370" >
  <font-face 
    font-family="Freight"
    font-weight="400"
    font-stretch="normal"
    units-per-em="1000"
    panose-1="2 0 6 3 9 0 0 2 0 4"
    ascent="800"
    descent="-200"
    x-height="422"
    cap-height="625"
    bbox="-85 -279 987 854"
    underline-thickness="20"
    underline-position="-133"
    unicode-range="U+0020-FB02"
  />
<missing-glyph horiz-adv-x="500" 
 />
    <glyph glyph-name=".notdef" horiz-adv-x="500" 
 />
    <glyph glyph-name="space" unicode=" " horiz-adv-x="130" 
 />
    <glyph glyph-name="exclam" unicode="!" horiz-adv-x="235" 
d="M76 583c-3 27 -3 57 42 57h2c45 0 44 -30 41 -57l-37 -406c0 -4 -8 -4 -8 0zM119 -15c-31 0 -54 25 -54 52s23 49 54 49s51 -22 51 -49s-20 -52 -51 -52z" />
    <glyph glyph-name="quotedbl" unicode="&#x22;" horiz-adv-x="298" 
d="M258 646h1l45 -21l-160 -222h-3zM131 639l-14 7l29 -14l-145 -229h-3z" />
    <glyph glyph-name="numbersign" unicode="#" horiz-adv-x="494" 
d="M300 201l58 221h-163l-58 -221h163zM124 193h-139v8h141l58 221h-139v8h141l53 202h11l-53 -202h163l53 202h11l-53 -202h138v-8h-140l-58 -221h138v-8h-140l-52 -198h-11l52 198h-163l-52 -198h-11z" />
    <glyph glyph-name="dollar" unicode="$" horiz-adv-x="445" 
d="M136 -8c-39 7 -77 15 -108 26l-10 145h7l40 -84c19 -31 45 -54 76 -68l74 282l-9 3c-88 29 -160 73 -160 170c0 88 72 172 188 172c27 0 49 -3 70 -8l29 110h10l-29 -112c16 -4 30 -9 43 -14l40 13l9 -152h-6l-66 118c-8 7 -16 12 -25 17l-63 -239
c101 -35 188 -83 188 -194c0 -99 -91 -191 -219 -191c-21 0 -45 2 -69 5l-41 -155h-10zM300 614c-19 9 -40 15 -67 15c-74 0 -127 -54 -127 -121c0 -73 55 -104 130 -134zM150 7c20 -7 42 -10 66 -10c85 0 151 56 151 142c0 79 -54 119 -143 151c0 0 -17 -70 -37 -141
c-11 -41 -24 -89 -37 -142z" />
    <glyph glyph-name="percent" unicode="%" horiz-adv-x="529" 
d="M132 396c69 0 113 51 113 116c0 64 -44 118 -113 118c-68 0 -112 -54 -112 -118c0 -65 43 -116 112 -116zM132 386c-77 0 -124 58 -124 126s47 128 124 128c78 0 125 -60 125 -128s-47 -126 -125 -126zM396 -3c69 0 113 51 113 116c0 64 -44 118 -113 118
c-68 0 -112 -54 -112 -118c0 -65 43 -116 112 -116zM396 -13c-77 0 -124 58 -124 125c0 69 47 129 124 129c78 0 125 -60 125 -129c0 -67 -47 -125 -125 -125zM471 640h12l-428 -654h-12z" />
    <glyph glyph-name="ampersand" unicode="&#x26;" horiz-adv-x="700" 
d="M274 415c56 28 69 67 69 114s-33 103 -88 103c-51 0 -87 -46 -87 -98c0 -56 31 -86 106 -119zM234 45c72 0 121 41 184 109c-47 99 -124 185 -215 224c-88 -47 -121 -110 -121 -177c0 -91 63 -156 152 -156zM190 -14c-112 0 -183 83 -183 178c0 97 70 179 187 218
c-57 31 -92 70 -92 121c0 64 75 138 154 138c101 0 151 -60 151 -109c0 -47 -36 -92 -123 -120c70 -38 148 -123 189 -196c68 87 99 134 99 159c0 19 -20 33 -87 40l-11 1l-3 6h242l-3 -6l-12 -1c-57 -5 -75 -24 -126 -88l-94 -120c67 -131 94 -174 146 -174
c39 0 69 28 86 51l7 -4c-30 -35 -76 -94 -137 -94c-62 0 -102 38 -158 160c-72 -88 -139 -160 -232 -160z" />
    <glyph glyph-name="quoteright" unicode="&#x2019;" horiz-adv-x="166" 
d="M20 431c36 21 78 54 78 104c0 53 -56 58 -77 55c-5 20 11 56 51 56c41 0 72 -31 72 -82c0 -55 -51 -111 -120 -138z" />
    <glyph glyph-name="parenleft" unicode="(" horiz-adv-x="316" 
d="M312 -279c-107 59 -260 223 -260 463c0 243 153 407 260 463l5 -8c-105 -59 -254 -222 -254 -455c0 -236 149 -396 254 -455z" />
    <glyph glyph-name="parenright" unicode=")" horiz-adv-x="316" 
d="M-1 -271c105 59 254 219 254 455c0 233 -149 396 -254 455l5 8c107 -56 260 -220 260 -463c0 -240 -153 -404 -260 -463z" />
    <glyph glyph-name="asterisk" unicode="*" horiz-adv-x="303" 
d="M148 370l-3 105c0 3 -3 6 -4 3l-61 -84l-61 -7c-2 0 -3 1 -2 3l24 57l97 33c2 2 2 4 0 6l-97 37l-26 55c-1 2 0 3 2 3l63 -5l60 -88c1 -3 5 -1 5 2l6 109l45 38c2 2 3 2 3 0l15 -59l-65 -89c-3 -3 0 -7 3 -6l104 32l51 -32c3 0 3 -2 0 -2l-51 -31l-104 32
c-3 1 -6 -3 -3 -6l62 -89l-13 -57c-1 -1 -3 -2 -4 -1z" />
    <glyph glyph-name="plus" unicode="+" horiz-adv-x="433" 
d="M211 232h-204l2 10h202v204h11v-204h202l2 -10h-203l-1 -208h-11v208z" />
    <glyph glyph-name="comma" unicode="," horiz-adv-x="162" 
d="M22 -104c36 19 76 55 76 104c0 45 -39 66 -72 44c-13 27 3 66 48 66c41 0 72 -29 72 -77c0 -56 -55 -117 -120 -141z" />
    <glyph glyph-name="hyphen" unicode="-" horiz-adv-x="280" 
d="M21 254h241l-3 -30h-241z" />
    <glyph glyph-name="period" unicode="." horiz-adv-x="184" 
d="M93 -12c-31 0 -54 24 -54 52c0 27 23 51 54 51s52 -24 52 -51c0 -28 -21 -52 -52 -52z" />
    <glyph glyph-name="slash" unicode="/" horiz-adv-x="249" 
d="M226 630h10l-210 -877h-10z" />
    <glyph glyph-name="zero" unicode="0" horiz-adv-x="529" 
d="M267 -4c89 0 151 105 151 232c0 139 -59 246 -155 246c-88 0 -152 -106 -152 -225c0 -152 55 -253 156 -253zM264 -11c-132 0 -234 101 -234 245c0 143 104 250 236 250c131 0 233 -107 233 -248c0 -145 -102 -247 -235 -247z" />
    <glyph glyph-name="one" unicode="1" horiz-adv-x="322" 
d="M58 7l34 1c32 1 43 4 43 16v412l-104 14l3 5l168 24v-457c0 -8 7 -11 54 -14l30 -1l3 -7h-234z" />
    <glyph glyph-name="two" unicode="2" horiz-adv-x="425" 
d="M15 8c216 176 261 230 261 314c0 67 -42 110 -102 110c-59 0 -96 -26 -135 -94l-7 4c45 85 104 141 181 141c73 0 129 -53 129 -121c0 -91 -83 -163 -246 -299v-1l241 -1c16 0 39 35 70 115l4 10l7 -1l-41 -185h-359z" />
    <glyph glyph-name="three" unicode="3" horiz-adv-x="393" 
d="M117 -201c-77 0 -112 36 -112 69c0 27 18 46 45 46c39 0 64 -41 55 -90c5 -2 11 -4 16 -5c9 -3 21 -4 30 -4c75 0 153 57 153 165c0 91 -55 156 -151 156c-31 0 -60 -10 -84 -19l-4 6c123 80 191 117 191 200c0 65 -42 108 -106 108c-57 0 -100 -27 -132 -91l-7 4
c43 88 99 139 178 139c75 0 132 -57 132 -125c0 -79 -72 -127 -141 -169v-1c119 5 186 -73 186 -170c0 -112 -106 -219 -249 -219z" />
    <glyph glyph-name="four" unicode="4" horiz-adv-x="464" 
d="M266 65v313h-1l-208 -313h209zM266 10h-257v3l307 460h16v-408l120 -1l-20 -54h-100v-194h-66v194z" />
    <glyph glyph-name="five" unicode="5" horiz-adv-x="377" 
d="M84 -201c-73 0 -109 21 -109 64c0 24 18 43 45 43c35 0 58 -43 61 -83c12 -3 27 -7 44 -7c75 0 151 74 151 171c0 107 -95 183 -237 204l72 277h243l-18 -69h-232l-37 -144c169 -28 268 -112 268 -228c0 -118 -111 -228 -251 -228z" />
    <glyph glyph-name="six" unicode="6" horiz-adv-x="478" 
d="M250 -1c79 0 131 64 131 177c0 97 -59 175 -142 175c-48 0 -95 -20 -130 -63c-3 -8 -7 -39 -7 -58c0 -129 53 -231 148 -231zM247 -11c-134 0 -220 105 -220 246c0 216 181 394 425 418l1 -7c-204 -32 -311 -191 -343 -341l1 -2c43 47 104 83 169 83
c100 0 173 -76 173 -184c0 -130 -101 -213 -206 -213z" />
    <glyph glyph-name="seven" unicode="7" horiz-adv-x="409" 
d="M367 398l-1 5h-205c-86 0 -110 -13 -128 -81l-3 -9l-8 1l18 154h358l1 -4l-258 -648h-58z" />
    <glyph glyph-name="eight" unicode="8" horiz-adv-x="459" 
d="M270 347c45 29 76 74 76 134c0 77 -49 150 -124 150c-67 0 -112 -58 -112 -119c0 -83 75 -128 160 -165zM239 -3c84 0 134 54 134 126c0 89 -89 143 -179 183c-60 -27 -100 -83 -100 -155c0 -83 56 -154 145 -154zM230 -14c-115 0 -202 70 -202 165c0 72 64 135 157 159
v2c-75 40 -134 82 -134 156c0 83 76 173 180 173c101 0 180 -68 180 -160c0 -56 -55 -108 -132 -137v-1c85 -42 152 -90 152 -179c0 -95 -90 -178 -201 -178z" />
    <glyph glyph-name="nine" unicode="9" horiz-adv-x="478" 
d="M238 125c49 0 94 18 130 62c3 9 8 39 8 59c0 129 -54 232 -149 232c-77 0 -131 -65 -131 -176c0 -97 59 -177 142 -177zM24 -169c205 35 311 189 343 340l-1 1c-43 -47 -103 -84 -168 -84c-100 0 -173 79 -173 188c0 129 101 212 206 212c131 0 219 -107 219 -248
c0 -215 -181 -392 -425 -416z" />
    <glyph glyph-name="colon" unicode=":" horiz-adv-x="182" 
d="M93 292c-31 0 -54 26 -54 53s23 50 54 50s52 -23 52 -50s-21 -53 -52 -53zM93 -12c-31 0 -54 24 -54 51s23 50 54 50s52 -23 52 -50s-21 -51 -52 -51z" />
    <glyph glyph-name="semicolon" unicode=";" horiz-adv-x="162" 
d="M85 292c-31 0 -54 25 -54 52s23 51 54 51s52 -24 52 -51s-21 -52 -52 -52zM22 -103c36 19 76 54 76 103c0 45 -39 66 -72 44c-13 27 3 65 48 65c41 0 72 -29 72 -77c0 -55 -55 -115 -120 -139z" />
    <glyph glyph-name="less" unicode="&#x3c;" horiz-adv-x="420" 
d="M5 230v11l398 196l5 -11l-387 -189v-2l387 -191l-5 -11z" />
    <glyph glyph-name="equal" unicode="=" horiz-adv-x="428" 
d="M15 328h398l-3 -10h-392zM18 153h392l3 -10h-398z" />
    <glyph glyph-name="greater" unicode="&#x3e;" horiz-adv-x="420" 
d="M12 44l387 191v2l-387 189l5 11l398 -196v-11l-398 -197z" />
    <glyph glyph-name="question" unicode="?" horiz-adv-x="299" 
d="M139 178c-34 28 -81 84 -81 116c0 54 25 69 102 104c74 32 101 47 101 78c0 39 -36 98 -153 98c-31 0 -56 -5 -73 -10c-7 9 -10 23 -10 42c0 21 15 34 67 34c108 0 181 -91 181 -185c0 -70 -22 -84 -95 -119c-48 -21 -83 -35 -83 -71c0 -29 25 -60 52 -87h-8zM143 -14
c-31 0 -53 25 -53 52s22 50 53 50s52 -23 52 -50s-21 -52 -52 -52z" />
    <glyph glyph-name="at" unicode="@" horiz-adv-x="766" 
d="M291 111c37 0 98 70 154 174c12 24 26 53 26 68c0 31 -38 73 -76 73c-19 0 -34 -8 -49 -23c-49 -46 -101 -151 -101 -226c0 -39 19 -66 46 -66zM388 -103c-214 0 -363 141 -363 342c0 221 175 403 388 403c190 0 328 -129 328 -308c0 -148 -117 -274 -229 -274
c-68 0 -102 35 -102 84c0 24 7 58 24 93h-2c-75 -109 -124 -171 -175 -171c-44 0 -80 37 -80 84c0 94 88 199 155 261c33 31 67 52 103 52c31 0 50 -35 49 -88h1l38 114l64 -4l-70 -179l-33 -86c-37 -97 -14 -130 55 -130c90 0 192 105 192 244c0 172 -134 299 -318 299
c-208 0 -378 -179 -378 -394c0 -195 145 -333 353 -333c143 0 273 84 323 190l9 -4c-53 -109 -183 -195 -332 -195z" />
    <glyph glyph-name="A" unicode="A" horiz-adv-x="625" 
d="M184 274l-48 -135c-37 -110 -39 -123 53 -131l21 -2l3 -6h-217l3 6l16 2c61 8 71 20 137 203l124 345l-10 28c25 9 40 28 51 52h9l182 -531c26 -78 37 -94 83 -97l28 -2l3 -6h-262l3 6l32 2c40 3 56 21 41 68l-66 198h-186zM366 284l-42 128c-12 37 -26 80 -43 128h-1
l-92 -256h178z" />
    <glyph glyph-name="B" unicode="B" horiz-adv-x="562" 
d="M240 350c108 3 161 57 161 132c0 87 -53 131 -158 131h-52v-264zM261 9c5 1 10 1 13 2c7 1 12 1 9 1c110 5 155 80 155 156c0 98 -75 171 -184 171c-23 0 -47 0 -63 -3v-309zM27 6l36 4c35 3 48 9 48 16v576c0 7 -6 10 -58 14l-25 3l-3 6h237c161 0 228 -57 228 -133
c0 -68 -47 -122 -189 -143v-3c149 -8 224 -82 224 -173c0 -103 -92 -173 -260 -173h-241z" />
    <glyph glyph-name="C" unicode="C" horiz-adv-x="671" 
d="M374 -15c-202 0 -347 129 -347 325c0 192 142 331 353 331c69 0 134 -24 171 -44l54 26l8 -184h-6l-83 152c-27 21 -81 39 -145 39c-168 0 -264 -139 -264 -312c0 -192 110 -322 262 -322c117 0 174 55 227 148l25 42h6l-36 -152l-34 -7c-37 -19 -119 -42 -191 -42z" />
    <glyph glyph-name="D" unicode="D" horiz-adv-x="651" 
d="M266 11c184 3 274 142 274 292c0 171 -87 313 -284 313h-65v-587zM27 6l36 4c35 3 48 9 48 16v576c0 7 -6 10 -58 14l-25 3l-3 6l246 3c231 3 355 -121 355 -302c0 -188 -140 -326 -384 -326h-218z" />
    <glyph glyph-name="E" unicode="E" horiz-adv-x="577" 
d="M25 6l36 4c35 3 50 9 50 16v576c0 7 -6 10 -58 14l-27 3l-3 6h462l19 -178h-5l-6 14c-37 104 -70 155 -173 155h-129v-284h81c90 5 112 15 131 81l5 14l6 -1l-20 -202l-6 1l-1 13c-5 71 -23 79 -122 82l-74 2v-308l145 -4c119 3 159 74 197 166l6 14l6 -1l-41 -189h-482z
" />
    <glyph glyph-name="F" unicode="F" horiz-adv-x="543" 
d="M25 6l40 4c35 3 46 9 46 16v576c0 7 -4 10 -56 14l-29 3l-3 6h467l20 -182l-6 -1l-5 13c-35 101 -63 161 -186 161h-122v-290h71c90 5 112 15 131 81l5 13l6 -1l-20 -201l-6 1l-1 13c-5 71 -23 79 -122 82l-64 2v-292c0 -7 6 -11 58 -14l49 -3l3 -7h-279z" />
    <glyph glyph-name="G" unicode="G" horiz-adv-x="686" 
d="M370 -14c-199 0 -343 127 -343 321c0 192 142 334 353 334c69 0 133 -22 169 -42l51 24l4 -182h-6l-76 150c-27 21 -77 39 -145 39c-165 0 -262 -141 -262 -315c0 -191 117 -318 265 -318c52 0 108 14 135 35v217c0 7 -9 11 -61 14l-39 3l-3 6h267l-3 -6l-36 -4
c-35 -3 -48 -9 -48 -16v-201l56 6l1 -4c-75 -27 -196 -61 -279 -61z" />
    <glyph glyph-name="H" unicode="H" horiz-adv-x="719" 
d="M27 6l36 4c35 3 48 9 48 16v576c0 7 -6 10 -58 14l-25 3l-3 6h257l-3 -6l-40 -4c-35 -3 -48 -9 -48 -16v-276h337v279c0 7 -6 10 -58 14l-29 3l-3 6h257l-3 -6l-36 -4c-35 -3 -48 -9 -48 -16v-576c0 -7 6 -10 58 -14l25 -3l3 -6h-257l3 6l40 4c35 3 48 9 48 16v287h-337
v-290c0 -7 6 -10 58 -14l29 -3l3 -6h-257z" />
    <glyph glyph-name="I" unicode="I" horiz-adv-x="322" 
d="M33 6l40 4c35 3 48 9 48 16v576c0 7 -6 10 -58 14l-29 3l-3 6h261l-3 -6l-40 -4c-35 -3 -48 -9 -48 -16v-576c0 -7 6 -10 58 -14l29 -3l3 -6h-261z" />
    <glyph glyph-name="J" unicode="J" horiz-adv-x="302" 
d="M10 -166c-44 0 -75 22 -75 55c0 28 21 51 52 51c50 0 67 -60 30 -92c56 -7 94 54 94 178v576c0 7 -6 11 -58 14l-29 3l-3 6h261l-3 -6l-40 -4c-35 -3 -48 -9 -48 -16v-589c0 -39 -90 -176 -181 -176z" />
    <glyph glyph-name="K" unicode="K" horiz-adv-x="658" 
d="M27 6l38 4c35 3 46 9 46 16v576c0 7 -4 10 -56 14l-27 3l-3 6h262l-3 -6l-45 -4c-35 -3 -48 -9 -48 -16v-334l164 166c161 164 161 177 70 185l-39 3l-2 6h244l-3 -6l-12 -1c-77 -8 -67 -7 -252 -196l-15 -15l195 -322c44 -71 47 -72 90 -77l23 -2l3 -6h-255l3 6l29 2
c47 3 45 28 14 83l-155 262l-102 -102v-228c0 -7 6 -10 58 -14l34 -3l3 -6h-262z" />
    <glyph glyph-name="L" unicode="L" horiz-adv-x="542" 
d="M27 6l38 4c35 3 46 9 46 16v576c0 7 -4 10 -56 14l-27 3l-3 6h277l-3 -6l-60 -4c-35 -3 -48 -9 -48 -16v-585l118 -5c119 0 152 71 194 172l6 13h6l-39 -194h-452z" />
    <glyph glyph-name="M" unicode="M" horiz-adv-x="815" 
d="M23 6l23 1c56 4 74 16 74 35l14 560c-13 9 -37 12 -64 15l-27 2l-3 6h175l198 -517h1l207 517h172l-3 -6l-50 -4c-33 -3 -44 -9 -44 -16l10 -576c0 -7 7 -9 56 -14l29 -3l3 -6h-259l3 6l48 4c33 3 41 9 41 16l-11 556h-1l-233 -582h-7l-215 556c-5 15 -13 27 -18 34
l-10 -550c0 -15 26 -30 97 -33l18 -1l3 -6h-230z" />
    <glyph glyph-name="N" unicode="N" horiz-adv-x="684" 
d="M129 560h-1l1 -519c0 -15 22 -28 83 -33l19 -2l3 -6h-210l3 6l20 2c43 4 71 16 71 35l2 526c-15 16 -40 41 -93 49l-13 2l-3 6h168l393 -501h1l-1 460c0 15 -22 25 -83 32l-19 2l-3 6h210l-3 -6l-20 -2c-43 -4 -71 -15 -71 -34l-2 -588h-7z" />
    <glyph glyph-name="O" unicode="O" horiz-adv-x="715" 
d="M360 -3c148 0 240 121 240 316c0 186 -104 317 -245 317c-146 0 -240 -124 -240 -320c0 -185 101 -313 245 -313zM356 -14c-188 0 -329 133 -329 325c0 172 155 329 331 329c189 0 330 -134 330 -328c0 -173 -155 -326 -332 -326z" />
    <glyph glyph-name="P" unicode="P" horiz-adv-x="539" 
d="M278 314c96 0 152 54 152 150c0 98 -44 155 -168 152l-71 -1v-290c21 -7 44 -11 87 -11zM13 6l50 4c35 3 48 9 48 16v576c0 7 -6 10 -58 14l-39 3l-3 6h278c152 0 226 -54 226 -149c0 -102 -97 -173 -237 -173c-31 0 -66 4 -87 7v-287c0 -7 6 -11 58 -14l49 -3l3 -6h-291
z" />
    <glyph glyph-name="Q" unicode="Q" horiz-adv-x="715" 
d="M360 -3c148 0 240 121 240 316c0 184 -104 317 -245 317c-146 0 -240 -125 -240 -320c0 -185 101 -313 245 -313zM623 -179c-102 0 -215 21 -271 165c-187 3 -325 137 -325 325c0 172 155 329 331 329c189 0 330 -135 330 -328c0 -143 -106 -272 -242 -312
c64 -155 152 -173 291 -157l2 -6c-25 -8 -84 -16 -116 -16z" />
    <glyph glyph-name="R" unicode="R" horiz-adv-x="625" 
d="M281 322c88 0 144 53 144 145c0 93 -63 153 -184 148l-50 -2v-275c32 -11 57 -16 90 -16zM13 6l50 4c20 3 48 9 48 16v576c0 7 -6 10 -58 14l-39 3l-3 6h257c157 0 242 -56 242 -160c0 -76 -68 -137 -156 -156l146 -223c40 -61 62 -76 109 -79l13 -1l4 -6h-164l-7 13
l-184 296c-27 3 -53 11 -80 20v-306c0 -8 35 -11 58 -14l39 -3l3 -6h-281z" />
    <glyph glyph-name="S" unicode="S" horiz-adv-x="484" 
d="M234 -14c-59 0 -132 16 -187 35l-10 142h6l21 -49c35 -84 91 -118 171 -118c90 0 151 62 151 146c0 83 -57 125 -156 157c-88 29 -165 73 -165 170c0 90 72 170 188 170c49 0 90 -11 123 -23l40 12l9 -153h-6l-66 120c-27 20 -56 35 -101 35c-74 0 -127 -50 -127 -118
c0 -77 62 -109 145 -138c102 -35 183 -84 183 -192c0 -101 -91 -196 -219 -196z" />
    <glyph glyph-name="T" unicode="T" horiz-adv-x="632" 
d="M178 6l50 4c35 3 48 9 48 16v590h-64c-77 -5 -130 -73 -167 -144l-7 -13h-7l41 166h497l30 -166h-6l-6 13c-44 99 -89 140 -168 144h-63v-593c0 -7 6 -10 58 -14l39 -3l3 -6h-281z" />
    <glyph glyph-name="U" unicode="U" horiz-adv-x="666" 
d="M350 -14c-172 0 -244 65 -244 229v387c0 7 -6 11 -58 15l-39 3l-3 6h281l-3 -6l-50 -4c-35 -3 -48 -10 -48 -17v-371c0 -145 60 -209 195 -209c121 0 187 73 187 230l-1 336c0 15 -29 26 -90 33l-19 2l-3 6h215l-3 -6l-20 -2c-43 -4 -69 -16 -69 -35l-1 -337
c-1 -165 -68 -260 -227 -260z" />
    <glyph glyph-name="V" unicode="V" horiz-adv-x="631" 
d="M111 521c-32 82 -34 94 -84 97l-29 2l-3 6h260l-3 -6l-35 -1c-44 -3 -58 -11 -41 -59l176 -463h1l143 390c37 109 40 120 -52 131l-21 2l-3 6h216l-3 -6l-16 -2c-58 -8 -69 -17 -125 -172l-169 -460h-7z" />
    <glyph glyph-name="W" unicode="W" horiz-adv-x="989" 
d="M112 521c-29 78 -37 93 -86 96l-29 2l-2 6h260l-3 -6l-32 -1c-41 -1 -58 -10 -41 -58l171 -469h2l144 363l-25 67c-29 76 -38 93 -88 96l-28 2l-3 6h259l-3 -6l-31 -1c-44 -3 -57 -11 -40 -58l172 -467h2l139 388c40 106 37 128 -55 136l-21 2l-3 6h216l-3 -6l-16 -2
c-58 -8 -66 -19 -119 -171l-167 -460h-9l-171 456h-1l-180 -456h-10z" />
    <glyph glyph-name="X" unicode="X" horiz-adv-x="634" 
d="M-5 6l18 1c65 5 84 24 159 131l111 164l-145 218c-48 72 -58 94 -99 97l-28 2l-4 6h263l-2 -5l-39 -1c-46 0 -50 -17 -7 -87l111 -170h1l89 133c66 103 51 113 -19 121l-28 3l-3 6h236l-3 -6l-18 -1c-62 -3 -82 -17 -154 -126l-94 -139c9 -13 18 -28 28 -43
c17 -27 40 -60 63 -95c27 -41 57 -87 92 -139c32 -48 39 -65 80 -68l27 -2l3 -6h-261l3 6l38 1c45 1 51 18 26 57l-150 228h-1s-26 -38 -53 -78c-16 -23 -34 -49 -53 -79c-67 -102 -54 -118 15 -126l28 -3l3 -6h-236z" />
    <glyph glyph-name="Y" unicode="Y" horiz-adv-x="610" 
d="M167 6l50 4c35 3 48 9 48 16v255l-148 261c-29 53 -45 72 -90 75l-28 2l-3 6h264l-3 -6l-30 -1c-53 -3 -54 -18 -25 -71l136 -241h2l94 178c52 102 54 125 -25 133l-25 2l-3 6h220l-3 -6l-22 -2c-50 -3 -70 -15 -128 -129l-103 -193v-272c0 -7 6 -10 58 -14l39 -3l3 -6
h-281z" />
    <glyph glyph-name="Z" unicode="Z" horiz-adv-x="569" 
d="M33 3l397 610v3h-164c-124 0 -169 -66 -203 -159l-5 -12h-6l21 180h453v-4l-396 -608v-2l178 -2c138 0 178 69 218 180l6 14h8l-32 -203h-475v3z" />
    <glyph glyph-name="bracketleft" unicode="[" horiz-adv-x="306" 
d="M53 625h244v-10h-233v-852h233v-10h-244v872z" />
    <glyph glyph-name="backslash" unicode="\" horiz-adv-x="232" 
d="M-6 630h10l210 -877h-10z" />
    <glyph glyph-name="bracketright" unicode="]" horiz-adv-x="306" 
d="M9 -237h233v852h-233v10h244v-872h-244v10z" />
    <glyph glyph-name="asciicircum" unicode="^" 
d="M184 667h2l134 -187h-4l-130 112h-2l-130 -112h-4z" />
    <glyph glyph-name="underscore" unicode="_" horiz-adv-x="446" 
d="M22 1h402l3 -29h-408z" />
    <glyph glyph-name="quoteleft" unicode="&#x2018;" horiz-adv-x="167" 
d="M94 428c-40 0 -72 28 -72 79c0 55 51 113 120 140l4 -4c-36 -22 -78 -55 -78 -106c0 -54 56 -57 77 -54c8 -21 -11 -55 -51 -55z" />
    <glyph glyph-name="a" unicode="a" horiz-adv-x="397" 
d="M166 32c33 0 63 14 90 41l6 159c-142 -35 -164 -77 -164 -126c0 -45 29 -74 68 -74zM318 -10c-35 0 -60 27 -63 70v1c-39 -36 -81 -70 -128 -70c-60 0 -100 42 -100 93c0 65 48 113 235 158l1 44c5 100 -45 128 -97 128c-40 0 -83 -25 -83 -37c0 -7 25 -23 25 -50
c0 -20 -16 -39 -43 -39c-25 0 -43 15 -43 39c0 51 115 110 191 110c83 0 125 -30 120 -146l-10 -216c-3 -33 10 -45 33 -45c16 0 30 12 45 27l5 -3c-18 -21 -46 -64 -88 -64z" />
    <glyph glyph-name="b" unicode="b" horiz-adv-x="470" 
d="M244 -1c81 0 128 88 128 200c0 105 -56 188 -141 188c-49 0 -85 -27 -116 -59v-237c23 -51 73 -92 129 -92zM46 576c0 39 -6 51 -41 56l-23 4l1 5l132 33v-329l2 -2c43 48 92 88 157 88c100 0 177 -84 177 -207c0 -149 -115 -237 -217 -237c-52 0 -103 18 -134 35h-1
l-47 -41h-6v595z" />
    <glyph glyph-name="c" unicode="c" horiz-adv-x="403" 
d="M217 -13c-112 0 -198 95 -198 215c0 130 91 235 222 235c81 0 144 -36 144 -92c0 -27 -22 -48 -45 -48c-27 0 -45 19 -45 42c0 32 20 42 20 50c0 13 -35 40 -72 40c-80 0 -148 -81 -148 -195c0 -119 69 -197 157 -197c61 0 98 20 135 80l8 -3c-44 -79 -97 -127 -178 -127
z" />
    <glyph glyph-name="d" unicode="d" horiz-adv-x="482" 
d="M239 32c52 0 86 27 115 59v238c-23 51 -72 91 -127 91c-80 0 -129 -84 -129 -198c0 -104 56 -190 141 -190zM354 74l-2 1c-43 -49 -91 -88 -156 -88c-100 0 -177 86 -177 210c0 149 114 234 222 234c47 0 80 -9 112 -26h1v171c0 39 -5 52 -40 56l-33 4l1 5l142 33v-619
c0 -23 4 -29 25 -32l39 -6l-1 -5l-132 -28z" />
    <glyph glyph-name="e" unicode="e" horiz-adv-x="413" 
d="M310 298c0 68 -26 129 -87 129c-55 0 -106 -60 -122 -131zM218 -13c-113 0 -199 95 -199 215c0 128 84 235 211 235c101 0 158 -61 158 -137c0 -5 -1 -7 -2 -14l-287 1c-3 -15 -4 -39 -4 -54c0 -118 69 -196 157 -196c61 0 100 20 139 80l7 -3
c-45 -79 -99 -127 -180 -127z" />
    <glyph glyph-name="f" unicode="f" horiz-adv-x="276" 
d="M24 6l17 1c31 3 42 2 42 14v365l-73 1l14 35h58l2 26c13 149 104 214 184 214c43 0 62 -21 62 -45c0 -20 -19 -39 -43 -39c-27 0 -50 24 -57 55l-2 7l-13 2c-51 -19 -62 -82 -62 -174v-46h109l-14 -36h-95v-366c0 -8 3 -12 47 -13l33 -1l3 -6h-215z" />
    <glyph glyph-name="g" unicode="g" horiz-adv-x="444" 
d="M205 154c53 0 95 51 95 128c0 85 -28 145 -95 145c-52 0 -91 -53 -91 -132c0 -87 36 -141 91 -141zM216 -230c89 0 164 57 164 128c0 53 -37 86 -128 89c-28 0 -82 -3 -111 -6c-34 -13 -78 -55 -78 -103c0 -63 62 -108 153 -108zM170 -248c-100 0 -162 40 -162 108
c0 57 70 104 121 123v2c-68 7 -111 31 -111 71c0 51 62 93 115 101v2c-48 16 -92 64 -92 126c0 85 73 150 165 150c43 0 80 -14 109 -37l117 22l-8 -43l-94 9l-1 -3c23 -21 42 -55 42 -90c0 -84 -74 -147 -169 -147c-21 0 -45 4 -56 7c-39 -7 -66 -29 -66 -57
c0 -32 25 -43 84 -43c27 0 76 3 112 3c93 0 147 -41 147 -110c0 -109 -104 -194 -253 -194z" />
    <glyph glyph-name="h" unicode="h" horiz-adv-x="481" 
d="M8 6l17 1c31 3 41 3 41 15v553c0 40 -5 50 -40 57l-23 4l1 4l132 33v-325l1 -2c41 32 97 90 170 90c31 0 55 -9 74 -28c21 -22 32 -54 32 -96v-291c0 -5 0 -11 50 -14l14 -1l3 -6h-200l3 6l18 1c36 3 42 7 42 15v276c0 59 -29 88 -87 88c-48 0 -88 -21 -120 -52v-130
v-184c0 -8 6 -10 51 -13l14 -1l3 -6h-199z" />
    <glyph glyph-name="i" unicode="i" horiz-adv-x="218" 
d="M102 525c-35 0 -50 29 -50 49s15 50 50 50s49 -30 49 -50s-14 -49 -49 -49zM16 6l18 1c31 3 42 3 42 15v291c0 61 -6 73 -41 78l-23 4l1 4l133 35v-414c0 -8 6 -10 50 -13l14 -1l3 -6h-200z" />
    <glyph glyph-name="j" unicode="j" horiz-adv-x="204" 
d="M96 525c-35 0 -50 29 -50 49s15 50 50 50s49 -30 49 -50s-14 -49 -49 -49zM-16 -249c-47 0 -69 22 -69 49c0 25 20 41 43 41c29 0 53 -26 62 -67c36 8 50 55 50 132v407c0 61 -6 73 -41 78l-23 4l1 4l133 35v-462c0 -108 -79 -221 -156 -221z" />
    <glyph glyph-name="k" unicode="k" horiz-adv-x="457" 
d="M8 6l17 1c31 3 41 3 41 15v553c0 40 -5 52 -40 57l-23 4l1 4l132 33v-479l99 97c39 39 71 77 71 96c0 16 -18 25 -53 28l-13 1l-2 6h189l-3 -6l-21 -2c-46 -3 -70 -37 -149 -116l-10 -10c-3 -3 -3 -4 -6 -7l-3 -3l125 -206c33 -53 38 -60 81 -65l11 -1l3 -6h-139l-5 12
l-128 215l-47 -45v-162c0 -8 6 -10 50 -13l14 -1l3 -6h-198z" />
    <glyph glyph-name="l" unicode="l" horiz-adv-x="213" 
d="M12 6l17 1c31 3 42 3 42 15v531c0 62 -6 71 -41 79l-22 4l1 4l132 33v-653c0 -8 5 -10 50 -13l14 -1l3 -6h-198z" />
    <glyph glyph-name="m" unicode="m" horiz-adv-x="734" 
d="M16 6l18 1c31 3 42 3 42 15v290c0 61 -6 74 -41 79l-23 4l1 4l134 35l-4 -84l2 -1c33 33 84 87 153 87c35 0 59 -11 78 -30c12 -13 23 -33 26 -58l1 -1c34 37 86 89 155 89c35 0 58 -10 78 -30c21 -21 31 -58 31 -97v-288c0 -6 0 -9 50 -14l13 -1l3 -6h-199l3 6l18 1
c35 3 41 7 41 15v276c0 60 -24 88 -84 88c-43 0 -91 -23 -104 -50l-2 -5v-310c0 -6 0 -9 50 -14l14 -1l3 -6h-198l3 6l18 1c35 3 40 7 40 15v276c0 60 -24 88 -83 88c-44 0 -78 -20 -107 -47v-131v-188c0 -8 6 -10 50 -13l14 -1l3 -6h-200z" />
    <glyph glyph-name="n" unicode="n" horiz-adv-x="491" 
d="M16 6l18 1c31 3 42 3 42 15v290c0 61 -6 74 -41 79l-23 4l1 4l134 35l-3 -86l3 -2c39 33 98 90 169 90c32 0 57 -9 75 -28c21 -21 32 -54 32 -97v-290c0 -6 0 -9 50 -14l14 -1l3 -6h-199l3 6l18 1c35 3 41 7 41 15v276c0 59 -29 88 -88 88c-47 0 -87 -21 -119 -52v-130
v-184c0 -8 6 -10 50 -13l14 -1l3 -6h-200z" />
    <glyph glyph-name="o" unicode="o" horiz-adv-x="485" 
d="M244 -5c83 0 138 98 138 210c0 77 -16 148 -55 187c-23 21 -50 37 -86 37c-86 0 -139 -98 -139 -206c0 -83 18 -154 57 -193c23 -23 52 -35 85 -35zM243 -13c-128 0 -224 97 -224 223c0 125 96 227 224 227c127 0 223 -97 223 -223c0 -128 -97 -227 -223 -227z" />
    <glyph glyph-name="p" unicode="p" horiz-adv-x="484" 
d="M259 -1c80 0 127 88 127 200c0 105 -54 188 -141 188c-49 0 -86 -27 -115 -59v-241c23 -47 73 -88 129 -88zM0 -247l18 1c31 3 42 3 42 14v545c0 61 -6 73 -41 78l-23 4l1 4l134 35l-1 -89l2 -2c41 48 91 88 156 88c100 0 177 -84 177 -207c0 -149 -115 -237 -216 -237
c-51 0 -90 13 -118 26h-1v-247c0 -7 5 -11 50 -12l34 -1l3 -6h-220z" />
    <glyph glyph-name="q" unicode="q" horiz-adv-x="478" 
d="M239 32c52 0 86 27 115 59v235c-23 52 -72 94 -127 94c-80 0 -129 -83 -129 -196c0 -104 56 -192 141 -192zM271 -247l33 1c45 1 50 5 50 12v308l-2 1c-43 -49 -91 -88 -156 -88c-100 0 -177 86 -177 210c0 149 114 234 222 234c51 0 98 -16 131 -37h1l45 48h6v-674
c0 -11 11 -11 42 -14l18 -1l3 -6h-219z" />
    <glyph glyph-name="r" unicode="r" horiz-adv-x="346" 
d="M16 6l18 1c31 3 42 3 42 15v290c0 61 -6 74 -41 79l-23 4l1 4l134 35l-3 -166h1c27 104 70 168 134 168c35 0 59 -24 59 -51c0 -24 -17 -50 -48 -50c-25 0 -49 18 -52 61c-43 -9 -64 -53 -92 -156v-220c0 -8 3 -12 47 -13l32 -1l3 -6h-215z" />
    <glyph glyph-name="s" unicode="s" horiz-adv-x="347" 
d="M160 -13c-51 0 -90 8 -127 23l-11 118l6 1l21 -45c27 -56 69 -88 117 -88c60 0 98 37 98 88c0 55 -40 83 -111 106c-55 18 -116 49 -116 123c0 72 63 123 140 123c33 0 62 -6 88 -18l32 11l5 -111l-6 -1l-51 82c-15 12 -37 28 -69 28c-55 0 -84 -30 -84 -77
c0 -51 40 -72 101 -93c67 -24 130 -49 130 -134c0 -73 -64 -136 -163 -136z" />
    <glyph glyph-name="t" unicode="t" horiz-adv-x="307" 
d="M172 -13c-49 0 -93 22 -93 97l6 302l-78 1l7 21l58 19l56 86l29 -1l-1 -89h143l-14 -35h-129l-7 -296c-1 -43 25 -64 64 -64s63 20 86 39l5 -3c-40 -40 -80 -77 -132 -77z" />
    <glyph glyph-name="u" unicode="u" horiz-adv-x="466" 
d="M340 75h-1c-37 -34 -96 -88 -167 -88c-33 0 -59 10 -78 29c-23 23 -30 55 -30 96v291c0 5 0 10 -51 13l-14 1l-3 6h138v-298c0 -59 30 -88 89 -88c47 0 83 20 114 48v116v164c0 41 -9 48 -50 51l-14 1l-3 6h138v-361c0 -23 4 -29 25 -32l39 -6l-1 -5l-133 -35z" />
    <glyph glyph-name="v" unicode="v" horiz-adv-x="455" 
d="M72 353c-22 54 -25 59 -56 62l-19 1l-3 6h203l-2 -6l-17 -1c-39 -3 -43 -15 -28 -52l110 -271l81 210c37 95 30 108 -36 113l-14 1l-3 6h167l-3 -6l-10 -1c-46 -3 -51 -17 -94 -124l-117 -301h-10z" />
    <glyph glyph-name="w" unicode="w" horiz-adv-x="708" 
d="M76 342c-24 64 -28 70 -61 73l-18 1l-2 6h205l-3 -6l-16 -1c-40 -3 -48 -11 -33 -48l106 -277l94 220l-19 48c-19 49 -27 54 -60 57l-16 1l-4 6h203l-2 -6l-17 -1c-39 -3 -42 -13 -29 -48l118 -279l73 209c31 91 29 113 -40 118l-13 1l-3 6h166l-3 -6l-9 -1
c-45 -3 -53 -20 -90 -127l-104 -298h-11l-134 309l-131 -309h-11z" />
    <glyph glyph-name="x" unicode="x" horiz-adv-x="443" 
d="M3 6l24 3c31 4 54 21 97 82l69 101l-111 164c-28 40 -41 56 -68 59l-13 1l-3 6h201l-3 -6l-21 -2c-31 -3 -34 -19 -11 -54l75 -109h1l62 95c29 44 27 65 -12 68l-24 2l-3 6h165l-3 -6l-23 -2c-31 -3 -55 -21 -98 -85l-59 -86l122 -177c27 -39 40 -56 67 -59l14 -1l3 -6
h-202l3 6l19 2c31 3 34 22 10 55l-83 122h-1l-71 -110c-28 -43 -28 -64 8 -67l28 -2l3 -6h-165z" />
    <glyph glyph-name="y" unicode="y" horiz-adv-x="448" 
d="M80 -256c-32 0 -57 19 -57 46c0 24 20 45 45 45c29 0 47 -21 52 -48c36 7 52 45 79 124l27 82l-1 1l-153 359c-22 54 -26 59 -57 62l-19 1l-3 6h203l-2 -6l-17 -1c-39 -3 -42 -15 -27 -52l113 -271l78 212c32 94 27 106 -40 111l-14 1l-3 6h169l-3 -6l-13 -1
c-46 -3 -49 -18 -89 -123l-111 -296l-33 -103c-31 -100 -64 -149 -124 -149z" />
    <glyph glyph-name="z" unicode="z" horiz-adv-x="409" 
d="M19 5l269 408c-13 1 -25 1 -36 1h-48c-91 0 -115 -37 -147 -116l-9 -20h-5l3 144h326v-5l-271 -407l93 -2c91 0 132 45 172 114l14 23h4l-33 -145h-332v5z" />
    <glyph glyph-name="braceleft" unicode="{" horiz-adv-x="291" 
d="M280 -267c-112 5 -195 61 -195 151c0 84 36 152 36 219c0 59 -52 75 -145 83l-2 4l2 4c75 8 145 24 145 84c0 68 -36 134 -36 219c0 90 83 145 195 150l2 -6c-105 -13 -141 -45 -141 -109c0 -69 38 -138 38 -219c0 -68 -62 -107 -163 -122v-1c101 -15 163 -54 163 -122
c0 -81 -38 -150 -38 -219c0 -64 36 -97 141 -110z" />
    <glyph glyph-name="bar" unicode="|" horiz-adv-x="153" 
d="M72 630h9v-877h-9v877z" />
    <glyph glyph-name="braceright" unicode="}" horiz-adv-x="291" 
d="M-6 -261c107 13 141 47 141 110c0 69 -38 138 -38 219c0 68 62 107 163 122v1c-101 15 -163 54 -163 122c0 81 38 150 38 219c0 63 -34 96 -141 109l2 6c112 -5 195 -60 195 -150c0 -85 -36 -151 -36 -219c0 -60 71 -76 145 -84l2 -4l-2 -4c-93 -8 -145 -24 -145 -83
c0 -67 36 -135 36 -219c0 -90 -83 -146 -195 -151z" />
    <glyph glyph-name="asciitilde" unicode="~" 
d="M259 150c-51 0 -125 60 -164 60c-24 0 -42 -5 -46 -52h-5c7 69 25 98 68 98c51 0 124 -59 164 -59c23 0 42 8 46 51h5c-7 -68 -25 -98 -68 -98z" />
    <glyph glyph-name="exclamdown" unicode="&#xa1;" horiz-adv-x="235" 
d="M117 531c-31 0 -52 23 -52 50s21 52 52 52s53 -25 53 -52s-22 -50 -53 -50zM116 -21c-43 0 -42 30 -39 57l36 406c0 4 8 4 8 0l36 -406c3 -27 3 -57 -39 -57h-2z" />
    <glyph glyph-name="cent" unicode="&#xa2;" horiz-adv-x="406" 
d="M297 413c-11 8 -29 16 -54 16c-80 0 -148 -81 -148 -195c0 -93 43 -160 103 -187zM163 -83c11 37 20 73 20 74c-95 16 -164 105 -164 211c0 130 91 235 222 235c21 0 41 -3 60 -8l47 175h10l-48 -177c43 -13 70 -38 70 -71c0 -25 -22 -44 -45 -44c-24 0 -41 17 -44 44
l-84 -312c15 -4 29 -7 45 -7c61 0 98 20 135 80l8 -3c-44 -79 -97 -127 -178 -127c-8 0 -16 1 -25 2l-39 -146h-10z" />
    <glyph glyph-name="sterling" unicode="&#xa3;" horiz-adv-x="518" 
d="M172 56c-31 19 -61 34 -94 34c-35 0 -59 -16 -59 -47c0 -29 24 -46 57 -46c35 0 71 24 96 59zM60 291l3 10h103c-5 25 -10 51 -10 82c0 131 92 249 231 249c64 0 106 -26 106 -70c0 -21 -20 -44 -45 -44c-42 0 -51 51 -30 80c-11 8 -32 19 -60 19
c-68 0 -132 -55 -132 -152c0 -56 13 -107 20 -164h128l3 -10h-129c3 -21 4 -41 4 -64c0 -43 -16 -94 -43 -139c56 -17 112 -39 171 -39c57 0 91 25 102 125h8c-3 -113 -65 -185 -139 -185c-73 0 -123 34 -169 61c-31 -36 -67 -61 -106 -61c-40 0 -66 22 -66 54
c0 39 30 66 93 66c29 0 59 -7 90 -16c7 17 11 33 11 50c0 51 -20 95 -35 148h-109z" />
    <glyph glyph-name="fraction" unicode="&#x2044;" horiz-adv-x="459" 
d="M457 641h14l-469 -654h-14z" />
    <glyph glyph-name="yen" unicode="&#xa5;" horiz-adv-x="595" 
d="M162 6l50 4c35 3 48 9 48 16v139h-189l3 10h186v120h-186l-3 10h184l-138 238c-31 52 -44 71 -90 74l-28 2l-3 6h264l-3 -6l-30 -1c-53 -3 -56 -18 -25 -71l134 -232h2l92 176c53 101 46 118 -31 126l-25 2l-3 6h220l-3 -6l-22 -2c-50 -3 -65 -9 -123 -122l-101 -190h181
l-3 -10h-180v-120h180l3 -10h-183v-142c0 -7 6 -10 58 -14l39 -3l3 -6h-281z" />
    <glyph glyph-name="florin" unicode="&#x192;" horiz-adv-x="482" 
d="M72 -71c-48 0 -77 23 -77 54c0 24 19 44 44 44c32 0 57 -38 26 -77c7 -3 18 -9 29 -9c47 0 74 45 125 305l24 124l-107 2l12 30l105 2c23 88 51 151 90 190c32 32 69 46 109 46c48 0 82 -24 82 -57c0 -27 -24 -45 -45 -45c-38 0 -59 43 -18 79c-3 2 -7 4 -11 7
c-8 5 -17 7 -26 7c-58 0 -79 -72 -111 -228l123 -1l-5 -32h-125l-29 -126c-33 -147 -71 -229 -119 -277c-29 -31 -65 -38 -96 -38z" />
    <glyph glyph-name="section" unicode="&#xa7;" horiz-adv-x="386" 
d="M280 164c27 16 51 45 51 78c0 57 -49 86 -110 121c-47 27 -86 45 -113 70c-27 -15 -53 -44 -53 -77c0 -56 49 -86 110 -121c47 -27 86 -46 115 -71zM171 -43c-72 0 -122 31 -122 70c0 19 13 40 36 40c40 0 48 -46 27 -73c15 -19 41 -29 70 -29c56 0 88 50 88 90
c0 50 -57 81 -124 116c-68 38 -135 80 -135 150c0 56 42 93 91 116c-20 22 -30 47 -30 74c0 65 56 129 141 129c72 0 112 -31 112 -70c0 -19 -17 -40 -40 -40c-39 0 -47 46 -26 73c-15 19 -28 29 -57 29c-57 0 -86 -50 -86 -90c0 -52 57 -79 124 -116s136 -77 136 -148
c0 -55 -42 -92 -91 -119c20 -22 30 -47 30 -74c0 -64 -59 -128 -144 -128z" />
    <glyph glyph-name="currency" unicode="&#xa4;" horiz-adv-x="478" 
d="M289 -14c-109 0 -206 92 -227 237h-63l3 10h58c-2 22 -3 42 -3 60c0 20 1 41 4 60h-62l3 10h61c27 166 142 272 264 272c81 0 135 -33 135 -82c0 -25 -22 -45 -46 -45c-50 0 -56 60 -29 82c-8 15 -28 35 -67 35c-94 0 -174 -113 -187 -262h199l3 -10h-203
c0 -12 -1 -26 -1 -39c0 -26 2 -53 6 -81h195l3 -10h-195c22 -116 95 -189 180 -189c65 0 112 28 148 92l7 -5c-44 -79 -99 -135 -186 -135z" />
    <glyph glyph-name="quotesingle" unicode="'" horiz-adv-x="148" 
d="M131 639l-14 7l29 -14l-145 -229h-3z" />
    <glyph glyph-name="quotedblleft" unicode="&#x201c;" horiz-adv-x="322" 
d="M94 428c-40 0 -72 28 -72 79c0 55 51 113 120 140l4 -4c-36 -22 -78 -55 -78 -106c0 -54 56 -57 77 -54c8 -21 -11 -55 -51 -55zM249 428c-40 0 -72 28 -72 79c0 55 51 113 120 140l4 -4c-36 -22 -78 -55 -78 -106c0 -54 56 -57 77 -54c8 -21 -11 -55 -51 -55z" />
    <glyph glyph-name="guillemotleft" unicode="&#xab;" horiz-adv-x="402" 
d="M11 219v6l197 155l3 -3l-123 -155l123 -156l-3 -3zM183 219v6l202 171l3 -3l-128 -171l128 -171l-3 -3z" />
    <glyph glyph-name="guilsinglleft" unicode="&#x2039;" horiz-adv-x="233" 
d="M11 219v6l202 171l3 -3l-128 -171l128 -171l-3 -3z" />
    <glyph glyph-name="guilsinglright" unicode="&#x203a;" horiz-adv-x="233" 
d="M17 51l128 171l-127 171l3 3l201 -171v-6l-202 -171z" />
    <glyph glyph-name="fi" unicode="&#xfb01;" horiz-adv-x="483" 
d="M23 6l18 1c31 3 42 3 42 15v364l-73 1l14 35h58l2 25c13 150 111 216 207 216c51 0 82 -23 82 -59c0 -21 -18 -40 -42 -40c-36 0 -61 35 -56 75l-31 9c-68 -19 -91 -80 -91 -180v-46h184l70 11v-413c0 -8 6 -10 51 -13l14 -1l2 -6h-199l3 6l18 1c31 3 41 3 41 15v365
h-184v-367c0 -8 2 -13 46 -13l32 -1l3 -6h-214z" />
    <glyph glyph-name="fl" unicode="&#xfb02;" horiz-adv-x="480" 
d="M348 648c1 0 15 6 30 13c9 3 18 7 29 12v-653c0 -8 6 -10 51 -13l14 -1l2 -6h-199l3 6l17 1c31 3 42 3 42 15v365h-184v-367c0 -8 2 -13 46 -13l32 -1l3 -6h-214l3 6l18 1c31 3 42 3 42 15v364l-73 1l14 35h58l2 25c13 150 111 216 206 216c26 0 45 -5 58 -15zM337 568
c-2 -1 -5 -1 -8 -1c-36 0 -63 32 -58 71l-28 10c-68 -19 -90 -80 -90 -180v-46h184v146z" />
    <glyph glyph-name="endash" unicode="&#x2013;" horiz-adv-x="425" 
d="M7 254h414l-3 -30h-414z" />
    <glyph glyph-name="dagger" unicode="&#x2020;" horiz-adv-x="433" 
d="M211 414h-202l-1 10h203v201h11v-201h203l-1 -10h-202v-570h-11v570z" />
    <glyph glyph-name="daggerdbl" unicode="&#x2021;" horiz-adv-x="433" 
d="M211 36h-203l1 10h202v376h-202l-1 10h203v193h11v-193h203l-1 -10h-202v-376h202l1 -10h-203v-192h-11v192z" />
    <glyph glyph-name="periodcentered" unicode="&#xb7;" horiz-adv-x="185" 
d="M93 164c-31 0 -54 24 -54 52c0 27 23 51 54 51s52 -24 52 -51c0 -28 -21 -52 -52 -52z" />
    <glyph glyph-name="paragraph" unicode="&#xb6;" horiz-adv-x="414" 
d="M354 282c-24 -3 -67 -5 -96 -5c-145 0 -233 62 -233 178c0 112 78 170 233 170h106v-657h-10v314z" />
    <glyph glyph-name="bullet" unicode="&#x2022;" horiz-adv-x="425" 
d="M212 39c-28 0 -116 36 -135 57c-19 22 -57 106 -57 136c0 28 37 116 57 136s108 56 136 56c27 0 118 -35 136 -56c21 -18 56 -109 56 -136c0 -29 -35 -115 -56 -136c-19 -22 -108 -57 -137 -57z" />
    <glyph glyph-name="quotesinglbase" unicode="&#x201a;" horiz-adv-x="166" 
d="M20 -104c36 21 78 53 78 105c0 53 -56 58 -77 55c-5 20 11 56 51 56c41 0 72 -31 72 -82c0 -56 -51 -112 -120 -139z" />
    <glyph glyph-name="quotedblbase" unicode="&#x201e;" horiz-adv-x="321" 
d="M175 -104c36 21 78 53 78 105c0 53 -55 58 -76 55c-8 20 11 56 50 56c41 0 72 -31 72 -82c0 -56 -51 -112 -120 -139zM20 -104c36 21 78 53 78 105c0 53 -56 58 -77 55c-5 20 11 56 51 56c41 0 72 -31 72 -82c0 -56 -51 -112 -120 -139z" />
    <glyph glyph-name="quotedblright" unicode="&#x201d;" horiz-adv-x="321" 
d="M175 431c36 21 78 54 78 104c0 53 -55 58 -76 55c-8 20 11 56 50 56c41 0 72 -31 72 -82c0 -55 -51 -111 -120 -138zM20 431c36 21 78 54 78 104c0 53 -56 58 -77 55c-5 20 11 56 51 56c41 0 72 -31 72 -82c0 -55 -51 -111 -120 -138z" />
    <glyph glyph-name="guillemotright" unicode="&#xbb;" horiz-adv-x="406" 
d="M192 66l123 156l-123 155l3 3l197 -155v-6l-197 -156zM15 51l128 171l-128 171l3 3l202 -171v-6l-202 -171z" />
    <glyph glyph-name="ellipsis" unicode="&#x2026;" horiz-adv-x="554" 
d="M278 -12c-31 0 -54 24 -54 52c0 27 23 51 54 51s52 -24 52 -51c0 -28 -21 -52 -52 -52zM88 -12c-31 0 -54 24 -54 52c0 27 23 51 54 51s52 -24 52 -51c0 -28 -21 -52 -52 -52zM467 -12c-31 0 -53 24 -53 52c0 27 22 51 53 51s52 -24 52 -51c0 -28 -21 -52 -52 -52z" />
    <glyph glyph-name="perthousand" unicode="&#x2030;" horiz-adv-x="817" 
d="M132 395c69 0 113 52 113 117c0 64 -44 119 -113 119c-68 0 -112 -55 -112 -119c0 -65 43 -117 112 -117zM132 386c-77 0 -124 58 -124 126s47 128 124 128c78 0 125 -60 125 -128s-47 -126 -125 -126zM396 -4c69 0 113 51 113 116s-44 120 -113 120
c-68 0 -112 -55 -112 -120s43 -116 112 -116zM396 -13c-77 0 -124 58 -124 125c0 69 47 129 124 129c78 0 125 -60 125 -129c0 -67 -47 -125 -125 -125zM684 -4c69 0 113 51 113 116s-44 120 -113 120c-68 0 -112 -55 -112 -120s43 -116 112 -116zM684 -13
c-77 0 -124 58 -124 125c0 69 47 129 124 129c78 0 125 -60 125 -129c0 -67 -47 -125 -125 -125zM471 640h12l-428 -654h-12z" />
    <glyph glyph-name="questiondown" unicode="&#xbf;" horiz-adv-x="299" 
d="M156 539c-31 0 -52 23 -52 50s21 51 52 51s53 -24 53 -51s-22 -50 -53 -50zM207 -14c-108 0 -181 93 -181 186c0 70 22 84 95 119c48 21 83 35 83 71c0 29 -25 60 -52 87h8c34 -26 81 -86 81 -116c0 -54 -25 -69 -102 -104c-73 -32 -101 -47 -101 -78
c0 -39 36 -98 153 -98c31 0 56 5 73 10c7 -9 10 -23 10 -42c0 -21 -15 -35 -67 -35z" />
    <glyph glyph-name="grave" unicode="`" 
d="M39 678h79l109 -187h-4z" />
    <glyph glyph-name="acute" unicode="&#xb4;" 
d="M252 678h79l-184 -187h-4z" />
    <glyph glyph-name="circumflex" unicode="&#x2c6;" 
d="M184 667h2l134 -187h-4l-130 112h-2l-130 -112h-4z" />
    <glyph glyph-name="tilde" unicode="&#x2dc;" 
d="M259 497c-51 0 -125 60 -164 60c-24 0 -42 -5 -46 -52h-5c7 69 25 98 68 98c51 0 124 -59 164 -59c23 0 42 8 46 51h5c-7 -68 -25 -98 -68 -98z" />
    <glyph glyph-name="macron" unicode="&#xaf;" horiz-adv-x="369" 
d="M62 546h252l-7 -25h-252z" />
    <glyph glyph-name="breve" unicode="&#x2d8;" 
d="M185 486c-80 0 -102 86 -121 163h5c28 -72 62 -115 118 -115c55 0 91 43 118 115h5c-19 -77 -41 -163 -125 -163z" />
    <glyph glyph-name="dotaccent" unicode="&#x2d9;" 
d="M185 525c-32 0 -46 28 -46 45c0 19 14 48 46 48s46 -29 46 -48c0 -17 -14 -45 -46 -45z" />
    <glyph glyph-name="dieresis" unicode="&#xa8;" 
d="M265 509c-32 0 -46 28 -46 45c0 19 14 49 46 49s46 -30 46 -49c0 -17 -14 -45 -46 -45zM105 509c-32 0 -46 28 -46 45c0 19 14 49 46 49s46 -30 46 -49c0 -17 -14 -45 -46 -45z" />
    <glyph glyph-name="ring" unicode="&#x2da;" 
d="M185 507c49 0 79 37 79 81c0 43 -30 81 -79 81s-79 -38 -79 -81c0 -44 30 -81 79 -81zM185 498c-56 0 -89 41 -89 90c0 48 33 90 89 90s89 -42 89 -90c0 -49 -33 -90 -89 -90z" />
    <glyph glyph-name="cedilla" unicode="&#xb8;" 
d="M90 -251c88 15 147 41 147 88c0 39 -33 54 -77 54c-27 0 -51 -4 -68 -11v7l97 111h11l-58 -67c76 13 142 -16 142 -70c0 -74 -99 -105 -192 -116z" />
    <glyph glyph-name="hungarumlaut" unicode="&#x2dd;" 
d="M319 678h73l-171 -187h-7zM177 678h73l-172 -187h-7z" />
    <glyph glyph-name="ogonek" unicode="&#x2db;" 
d="M178 -227c-49 0 -89 37 -89 85c0 79 100 136 152 158h14c-76 -37 -117 -83 -117 -139c0 -45 29 -73 69 -73c31 0 52 19 68 36l4 -3c-21 -31 -54 -64 -101 -64z" />
    <glyph glyph-name="caron" unicode="&#x2c7;" 
d="M50 667h4l130 -112h2l130 112h4l-134 -187h-2z" />
    <glyph glyph-name="emdash" unicode="&#x2014;" horiz-adv-x="896" 
d="M7 254h885l-3 -30h-885z" />
    <glyph glyph-name="AE" unicode="&#xc6;" horiz-adv-x="848" 
d="M397 284v317h-2l-185 -317h187zM-50 6l39 4c37 5 65 26 141 156l243 415c12 19 6 31 -65 34l-39 2l-3 8h490l19 -178h-5l-6 14c-37 104 -59 155 -163 155h-124v-284h66c90 5 112 16 131 81l5 14l6 -1l-20 -202l-6 2l-1 12c-5 72 -23 79 -122 82l-59 2v-307l120 -5
c119 3 169 74 207 166l6 14l6 -1l-41 -189h-479l3 7l50 4c35 3 48 9 48 16v245h-194l-69 -117c-61 -109 -67 -139 8 -147l32 -3l3 -5h-230z" />
    <glyph glyph-name="ordfeminine" unicode="&#xaa;" horiz-adv-x="307" 
d="M131 321c24 0 48 16 68 36l4 117c-114 -26 -127 -66 -127 -97c0 -35 20 -56 55 -56zM92 286c-45 0 -75 34 -75 71c0 45 45 91 186 126l1 33c3 80 -42 98 -79 98c-33 0 -58 -18 -58 -26c0 -7 18 -24 18 -40s-15 -31 -35 -31s-34 13 -34 32c0 38 89 86 152 86
c56 0 97 -27 94 -103l-7 -174c-1 -25 8 -38 25 -38c13 0 25 10 36 23l4 -2c-14 -20 -37 -55 -71 -55c-28 0 -47 21 -50 62v1c-33 -39 -70 -63 -107 -63z" />
    <glyph glyph-name="Lslash" unicode="&#x141;" horiz-adv-x="546" 
d="M11 252v12l100 33v305c0 7 -6 10 -58 14l-32 3l-3 6h284l-3 -6l-60 -4c-35 -3 -48 -9 -48 -16v-276l101 33l2 -12l-103 -33v-297l118 -5c119 0 151 71 193 172l6 13h7l-39 -194h-459l3 6l43 4c35 3 48 9 48 16v259z" />
    <glyph glyph-name="Oslash" unicode="&#xd8;" horiz-adv-x="715" 
d="M504 569c-41 40 -91 60 -149 60c-146 0 -240 -124 -240 -319c0 -109 34 -197 93 -253zM511 562c1 1 -297 -511 -296 -512c41 -35 90 -53 145 -53c148 0 240 121 240 316c0 105 -33 193 -89 249zM530 596c97 -56 158 -157 158 -284c0 -173 -155 -326 -332 -326
c-59 0 -111 12 -158 35c-11 -19 -24 -42 -35 -61c-7 -11 -13 -22 -19 -33h-11c11 18 21 34 29 49c15 25 28 50 28 49c-100 55 -163 157 -163 286c0 172 155 329 331 329c61 0 116 -14 164 -39l51 88h11c-6 -10 -12 -21 -19 -32c-11 -19 -24 -42 -35 -61z" />
    <glyph glyph-name="OE" unicode="&#x152;" horiz-adv-x="918" 
d="M462 13v586l-74 14c-186 -3 -275 -139 -275 -288c0 -171 87 -313 285 -313zM383 0c-232 -3 -356 121 -356 302c0 187 140 322 385 322l414 1l19 -178h-5l-6 14c-37 104 -74 155 -178 155h-114v-284h66c89 5 117 15 136 81l5 14l6 -1l-20 -202l-6 1l-1 13
c-5 71 -29 79 -127 82l-59 2v-307l130 -5c119 3 164 75 202 166l6 14l6 -1l-41 -189h-462z" />
    <glyph glyph-name="ordmasculine" unicode="&#xba;" horiz-adv-x="376" 
d="M189 291c63 0 105 81 105 166c0 60 -12 116 -39 143c-20 23 -44 29 -68 29c-68 0 -106 -79 -106 -164c0 -63 11 -117 42 -148c19 -19 43 -26 66 -26zM188 284c-101 0 -177 77 -177 173c0 99 77 179 177 179s176 -78 176 -175c0 -98 -76 -177 -176 -177z" />
    <glyph glyph-name="ae" unicode="&#xe6;" horiz-adv-x="654" 
d="M549 299c0 67 -26 128 -87 128c-54 0 -107 -60 -123 -131zM168 28c41 0 69 26 112 74c-13 29 -21 68 -21 103c0 9 0 18 1 26c-141 -35 -162 -79 -162 -128c0 -44 31 -75 70 -75zM130 -13c-59 0 -103 43 -103 95c0 63 47 117 234 160l3 44c5 99 -47 128 -98 128
c-40 0 -83 -25 -83 -37c0 -7 25 -23 25 -50c0 -20 -16 -39 -43 -39c-25 0 -43 15 -43 39c0 51 112 110 195 110c57 0 88 -18 103 -66c36 41 82 66 150 66c100 0 158 -61 158 -137c0 -5 -1 -7 -2 -14c-53 1 -101 1 -143 1h-146c-3 -15 -3 -39 -3 -54c0 -118 68 -196 156 -196
c61 0 104 20 140 80l8 -3c-47 -79 -100 -127 -181 -127c-77 0 -140 45 -171 105c-60 -63 -103 -105 -156 -105z" />
    <glyph glyph-name="dotlessi" unicode="&#x131;" horiz-adv-x="218" 
d="M16 6l18 1c31 3 42 3 42 15v291c0 61 -6 73 -41 78l-23 4l1 4l133 35v-414c0 -8 6 -10 50 -13l14 -1l3 -6h-200z" />
    <glyph glyph-name="lslash" unicode="&#x142;" horiz-adv-x="209" 
d="M1 239l2 11l68 22v281c0 60 -6 73 -41 78l-22 4l1 5l132 33v-378l65 22l2 -11l-67 -22v-264c0 -8 5 -10 50 -13l14 -1l3 -6h-198l2 6l17 1c31 3 42 3 42 15v239z" />
    <glyph glyph-name="oslash" unicode="&#xf8;" horiz-adv-x="485" 
d="M339 377c1 1 -47 -83 -96 -166c-28 -49 -60 -104 -97 -166c4 -5 8 -10 13 -15c23 -23 52 -35 85 -35c83 0 138 98 138 210c0 68 -12 132 -43 172zM333 385c-1 2 -3 4 -6 7c-23 21 -50 37 -86 37c-86 0 -139 -98 -139 -206c0 -68 11 -129 38 -170zM121 21
c-63 39 -102 108 -102 189c0 125 96 227 224 227c38 0 73 -8 105 -25l96 165h11c-13 -21 -25 -43 -37 -64c-21 -36 -45 -78 -62 -106c68 -39 110 -109 110 -193c0 -128 -97 -227 -223 -227c-43 0 -81 10 -114 29l-83 -144h-11z" />
    <glyph glyph-name="oe" unicode="&#x153;" horiz-adv-x="777" 
d="M674 299c0 67 -26 128 -87 128c-57 0 -106 -60 -122 -131zM244 -5c83 0 138 97 138 210c0 77 -17 146 -54 185c-23 23 -52 39 -87 39c-86 0 -139 -97 -139 -209c0 -80 20 -150 57 -189c21 -23 50 -36 85 -36zM243 -13c-128 0 -224 97 -224 222s96 228 224 228
c80 0 145 -38 181 -99c35 60 94 99 171 99c99 0 157 -61 157 -137c0 -5 -1 -7 -2 -14c-53 1 -101 1 -142 1h-145c-3 -15 -4 -39 -4 -54c0 -118 69 -196 157 -196c61 0 101 20 140 80l7 -3c-45 -79 -102 -127 -183 -127c-73 0 -123 40 -158 97c-39 -60 -102 -97 -179 -97z
" />
    <glyph glyph-name="germandbls" unicode="&#xdf;" horiz-adv-x="493" 
d="M295 411c80 -40 178 -144 178 -247c0 -93 -68 -174 -153 -174c-58 0 -106 31 -106 75c0 31 21 53 49 53c59 0 52 -90 -9 -82c7 -19 29 -38 68 -38c56 0 89 43 89 115c0 100 -63 207 -191 283v3c85 15 132 54 132 142c0 61 -40 113 -96 113c-71 0 -103 -50 -103 -167v-486
h-133l3 6l18 1c31 3 42 2 42 14v364l-73 1l14 35h58l2 25c12 137 83 217 180 217c96 0 155 -49 155 -125c0 -72 -57 -109 -124 -128z" />
    <glyph glyph-name="trademark" unicode="&#x2122;" horiz-adv-x="404" 
d="M188 471h5c16 0 19 2 19 18l3 123c-5 8 -10 8 -17 9l-7 1l-1 3h54l43 -116h1l44 116h56l-1 -3l-12 -1c-7 -1 -11 -2 -11 -4l3 -142c0 -3 1 0 14 -3l7 -1l1 -3h-76v3l12 1c7 1 10 2 10 4l-2 137h-1l-56 -145h-3l-54 139l-1 1l-2 -121c0 -15 4 -16 23 -16h5l1 -3h-58z
M59 471l11 1c8 1 12 2 12 4v146h-12c-23 -1 -35 -21 -46 -40l-2 -3h-2l8 46h140l5 -46h-1l-2 4c-11 23 -24 39 -45 39h-12v-147c0 -3 1 0 14 -3l8 -1v-3h-77z" />
    <glyph glyph-name="Eth" unicode="&#xd0;" horiz-adv-x="666" 
d="M345 320l3 -12h-157v-279l75 -18c184 3 274 142 274 292c0 171 -87 313 -284 313h-65v-296h154zM25 308l3 12h83v282c0 6 -19 11 -58 14l-32 3l-3 6l253 3c231 3 355 -121 355 -302c0 -188 -140 -326 -384 -326h-225l3 6l43 4c35 3 48 9 48 16v282h-86z" />
    <glyph glyph-name="plusminus" unicode="&#xb1;" horiz-adv-x="315" 
d="M43 7l34 1c32 1 47 4 47 16v422c0 8 -3 11 -50 14l-30 1l-3 7h234l-3 -7l-34 -1c-32 -1 -47 -4 -47 -16v-422c0 -8 3 -11 50 -14l30 -1l3 -7h-234z" />
    <glyph glyph-name="Thorn" unicode="&#xde;" horiz-adv-x="539" 
d="M278 169c96 0 152 59 152 155s-44 159 -168 156l-71 -1v-298c21 -7 44 -12 87 -12zM13 6l50 4c35 3 48 9 48 16v576c0 7 -6 10 -58 14l-39 3l-3 6h281l-3 -6l-50 -4c-35 -3 -48 -9 -48 -16v-108c15 1 39 0 60 0c12 0 25 0 38 -1c152 0 226 -59 226 -155
c0 -101 -97 -178 -237 -178c-31 0 -66 5 -87 8v-142c0 -7 6 -11 58 -14l49 -3l3 -6h-291z" />
    <glyph glyph-name="divide" unicode="&#xf7;" horiz-adv-x="544" 
d="M271 -1c132 0 233 102 233 238c0 134 -101 239 -231 239c-131 0 -233 -105 -233 -241c0 -135 99 -236 231 -236zM271 -10c-138 0 -241 104 -241 245s104 250 243 250c137 0 241 -108 241 -248c0 -142 -104 -247 -243 -247z" />
    <glyph glyph-name="degree" unicode="&#xb0;" horiz-adv-x="284" 
d="M142 397c69 0 114 51 114 116c0 64 -45 118 -114 118c-68 0 -112 -54 -112 -118c0 -65 43 -116 112 -116zM142 387c-76 0 -124 58 -124 126s47 128 124 128s124 -60 124 -128s-47 -126 -124 -126z" />
    <glyph glyph-name="thorn" unicode="&#xfe;" horiz-adv-x="470" 
d="M242 -1c84 0 130 87 130 199c0 104 -54 189 -141 189c-49 0 -85 -27 -116 -59v-241c24 -48 74 -88 127 -88zM-14 -247l18 1c31 3 42 3 42 15v806c0 39 -6 51 -41 56l-23 4l1 5l132 33v-328l2 -2c43 48 92 88 157 88c100 0 177 -84 177 -207c0 -149 -115 -237 -219 -237
c-47 0 -87 13 -115 26h-2v-247c0 -7 6 -11 51 -12l34 -1l3 -6h-220z" />
    <glyph glyph-name="registered" unicode="&#xae;" horiz-adv-x="704" 
d="M342 320c55 0 88 30 88 86s-38 91 -110 87l-30 -1v-161c19 -7 33 -11 52 -11zM183 132l30 3c12 1 29 7 29 11v339c0 4 -3 5 -34 8l-24 2l-2 6h154c95 0 145 -34 145 -97c0 -45 -40 -82 -93 -93l87 -133c24 -37 39 -40 67 -45l7 -1l2 -6h-99l-4 8l-110 177
c-16 3 -32 6 -48 11v-179c0 -4 20 -8 35 -9l23 -2l2 -6h-169zM352 -5c175 0 317 143 317 318c0 176 -142 319 -317 319s-317 -143 -317 -319c0 -175 142 -318 317 -318zM352 -14c-181 0 -327 146 -327 327c0 180 146 328 327 328s327 -148 327 -328
c0 -181 -146 -327 -327 -327z" />
    <glyph glyph-name="eth" unicode="&#xf0;" horiz-adv-x="478" 
d="M239 -5c79 0 133 74 133 210c0 137 -53 223 -136 223c-80 0 -134 -83 -134 -205c0 -148 50 -228 137 -228zM200 556c1 0 -32 -10 -65 -21c-19 -7 -41 -14 -66 -21l2 12l116 38c-39 24 -87 40 -142 49l1 7c64 -6 121 -21 172 -46l120 40l2 -12l-106 -35
c147 -75 221 -209 221 -329c0 -143 -93 -251 -218 -251s-218 95 -218 223c0 127 94 226 218 226c32 0 60 -4 84 -12c-28 52 -65 97 -121 132z" />
    <glyph glyph-name="copyright" unicode="&#xa9;" horiz-adv-x="704" 
d="M361 114c-121 0 -208 80 -208 196c0 114 85 198 210 198c43 0 81 -13 104 -26l33 15l5 -110h-3l-51 89c-16 12 -47 26 -90 26c-96 0 -155 -82 -155 -187c0 -115 68 -195 159 -195c69 0 102 33 135 92l15 25h3l-22 -95l-20 -5c-21 -11 -72 -23 -115 -23zM352 -5
c175 0 317 143 317 318c0 176 -142 319 -317 319s-317 -143 -317 -319c0 -175 142 -318 317 -318zM352 -14c-181 0 -327 146 -327 327c0 180 146 328 327 328s327 -148 327 -328c0 -181 -146 -327 -327 -327z" />
    <glyph glyph-name="Aacute" unicode="&#xc1;" horiz-adv-x="625" 
d="M184 274l-48 -135c-37 -110 -39 -123 53 -131l21 -2l3 -6h-217l3 6l16 2c61 8 71 20 137 203l124 345l-10 28c25 9 40 28 51 52h9l182 -531c26 -78 37 -94 83 -97l28 -2l3 -6h-262l3 6l32 2c40 3 56 21 41 68l-66 198h-186zM366 284l-42 128c-12 37 -26 80 -43 128h-1
l-92 -256h178zM386 845h79l-184 -187h-4z" />
    <glyph glyph-name="Acircumflex" unicode="&#xc2;" horiz-adv-x="625" 
d="M184 274l-48 -135c-37 -110 -39 -123 53 -131l21 -2l3 -6h-217l3 6l16 2c61 8 71 20 137 203l124 345l-10 28c25 9 40 28 51 52h9l182 -531c26 -78 37 -94 83 -97l28 -2l3 -6h-262l3 6l32 2c40 3 56 21 41 68l-66 198h-186zM366 284l-42 128c-12 37 -26 80 -43 128h-1
l-92 -256h178zM321 834h2l134 -187h-4l-130 112h-2l-130 -112h-4z" />
    <glyph glyph-name="Adieresis" unicode="&#xc4;" horiz-adv-x="625" 
d="M184 274l-48 -135c-37 -110 -39 -123 53 -131l21 -2l3 -6h-217l3 6l16 2c61 8 71 20 137 203l124 345l-10 28c25 9 40 28 51 52h9l182 -531c26 -78 37 -94 83 -97l28 -2l3 -6h-262l3 6l32 2c40 3 56 21 41 68l-66 198h-186zM366 284l-42 128c-12 37 -26 80 -43 128h-1
l-92 -256h178zM394 676c-32 0 -46 28 -46 45c0 19 14 49 46 49s46 -30 46 -49c0 -17 -14 -45 -46 -45zM234 676c-32 0 -46 28 -46 45c0 19 14 49 46 49s46 -30 46 -49c0 -17 -14 -45 -46 -45z" />
    <glyph glyph-name="Agrave" unicode="&#xc0;" horiz-adv-x="625" 
d="M184 274l-48 -135c-37 -110 -39 -123 53 -131l21 -2l3 -6h-217l3 6l16 2c61 8 71 20 137 203l124 345l-10 28c25 9 40 28 51 52h9l182 -531c26 -78 37 -94 83 -97l28 -2l3 -6h-262l3 6l32 2c40 3 56 21 41 68l-66 198h-186zM366 284l-42 128c-12 37 -26 80 -43 128h-1
l-92 -256h178zM153 845h79l109 -187h-4z" />
    <glyph glyph-name="Aring" unicode="&#xc5;" horiz-adv-x="625" 
d="M313 623c49 0 79 37 79 81c0 43 -30 81 -79 81s-79 -38 -79 -81c0 -44 30 -81 79 -81zM184 272l-48 -133c-37 -110 -39 -123 53 -131l21 -2l3 -6h-217l3 6l16 2c61 8 71 20 137 203l147 405c-48 8 -75 45 -75 89c0 48 33 89 89 89s89 -41 89 -89c0 -43 -25 -79 -69 -88
c-1 0 45 -128 88 -256c26 -75 55 -161 87 -256c26 -78 37 -94 83 -97l28 -2l3 -6h-262l3 6l32 2c40 3 56 21 41 68l-65 196h-187zM366 284l-42 128c-12 37 -26 80 -43 128h-1l-92 -256h178z" />
    <glyph glyph-name="Atilde" unicode="&#xc3;" horiz-adv-x="625" 
d="M184 274l-48 -135c-37 -110 -39 -123 53 -131l21 -2l3 -6h-217l3 6l16 2c61 8 71 20 137 203l124 345l-10 28c25 9 40 28 51 52h9l182 -531c26 -78 37 -94 83 -97l28 -2l3 -6h-262l3 6l32 2c40 3 56 21 41 68l-66 198h-186zM366 284l-42 128c-12 37 -26 80 -43 128h-1
l-92 -256h178zM388 664c-51 0 -125 60 -164 60c-24 0 -42 -5 -46 -52h-5c7 69 25 98 68 98c51 0 124 -59 164 -59c23 0 42 8 46 51h5c-7 -68 -25 -98 -68 -98z" />
    <glyph glyph-name="Ccedilla" unicode="&#xc7;" horiz-adv-x="671" 
d="M374 -15c-202 0 -347 129 -347 325c0 192 142 331 353 331c69 0 134 -24 171 -44l54 26l8 -184h-6l-83 152c-27 21 -81 39 -145 39c-168 0 -264 -139 -264 -312c0 -192 110 -322 262 -322h8l2 2h11s-1 0 -2 -1c106 5 157 59 208 147l25 42h6l-36 -152l-34 -7
c-35 -19 -111 -38 -178 -41l-47 -55c76 13 142 -16 142 -70c0 -74 -99 -105 -192 -116l-2 4c88 15 147 41 147 88c0 39 -33 54 -77 54c-27 0 -51 -4 -68 -11v7l86 98h-2z" />
    <glyph glyph-name="Eacute" unicode="&#xc9;" horiz-adv-x="577" 
d="M25 6l36 4c35 3 50 9 50 16v576c0 7 -6 10 -58 14l-27 3l-3 6h462l19 -178h-5l-6 14c-37 104 -70 155 -173 155h-129v-284h81c90 5 112 15 131 81l5 14l6 -1l-20 -202l-6 1l-1 13c-5 71 -23 79 -122 82l-74 2v-308l145 -4c119 3 159 74 197 166l6 14l6 -1l-41 -189h-482z
M372 845h79l-184 -187h-4z" />
    <glyph glyph-name="Ecircumflex" unicode="&#xca;" horiz-adv-x="577" 
d="M25 6l36 4c35 3 50 9 50 16v576c0 7 -6 10 -58 14l-27 3l-3 6h462l19 -178h-5l-6 14c-37 104 -70 155 -173 155h-129v-284h81c90 5 112 15 131 81l5 14l6 -1l-20 -202l-6 1l-1 13c-5 71 -23 79 -122 82l-74 2v-308l145 -4c119 3 159 74 197 166l6 14l6 -1l-41 -189h-482z
M286 834h2l134 -187h-4l-130 112h-2l-130 -112h-4z" />
    <glyph glyph-name="Edieresis" unicode="&#xcb;" horiz-adv-x="577" 
d="M25 6l36 4c35 3 50 9 50 16v576c0 7 -6 10 -58 14l-27 3l-3 6h462l19 -178h-5l-6 14c-37 104 -70 155 -173 155h-129v-284h81c90 5 112 15 131 81l5 14l6 -1l-20 -202l-6 1l-1 13c-5 71 -23 79 -122 82l-74 2v-308l145 -4c119 3 159 74 197 166l6 14l6 -1l-41 -189h-482z
M362 676c-32 0 -46 28 -46 45c0 19 14 49 46 49s46 -30 46 -49c0 -17 -14 -45 -46 -45zM202 676c-32 0 -46 28 -46 45c0 19 14 49 46 49s46 -30 46 -49c0 -17 -14 -45 -46 -45z" />
    <glyph glyph-name="Egrave" unicode="&#xc8;" horiz-adv-x="577" 
d="M25 6l36 4c35 3 50 9 50 16v576c0 7 -6 10 -58 14l-27 3l-3 6h462l19 -178h-5l-6 14c-37 104 -70 155 -173 155h-129v-284h81c90 5 112 15 131 81l5 14l6 -1l-20 -202l-6 1l-1 13c-5 71 -23 79 -122 82l-74 2v-308l145 -4c119 3 159 74 197 166l6 14l6 -1l-41 -189h-482z
M142 845h79l109 -187h-4z" />
    <glyph glyph-name="Iacute" unicode="&#xcd;" horiz-adv-x="322" 
d="M33 6l40 4c35 3 48 9 48 16v576c0 7 -6 10 -58 14l-29 3l-3 6h261l-3 -6l-40 -4c-35 -3 -48 -9 -48 -16v-576c0 -7 6 -10 58 -14l29 -3l3 -6h-261zM227 845h79l-184 -187h-4z" />
    <glyph glyph-name="Icircumflex" unicode="&#xce;" horiz-adv-x="322" 
d="M33 6l40 4c35 3 48 9 48 16v576c0 7 -6 10 -58 14l-29 3l-3 6h261l-3 -6l-40 -4c-35 -3 -48 -9 -48 -16v-576c0 -7 6 -10 58 -14l29 -3l3 -6h-261zM161 834h2l134 -187h-4l-130 112h-2l-130 -112h-4z" />
    <glyph glyph-name="Idieresis" unicode="&#xcf;" horiz-adv-x="322" 
d="M33 6l40 4c35 3 48 9 48 16v576c0 7 -6 10 -58 14l-29 3l-3 6h261l-3 -6l-40 -4c-35 -3 -48 -9 -48 -16v-576c0 -7 6 -10 58 -14l29 -3l3 -6h-261zM243 676c-32 0 -46 28 -46 45c0 19 14 49 46 49s46 -30 46 -49c0 -17 -14 -45 -46 -45zM83 676c-32 0 -46 28 -46 45
c0 19 14 49 46 49s46 -30 46 -49c0 -17 -14 -45 -46 -45z" />
    <glyph glyph-name="Igrave" unicode="&#xcc;" horiz-adv-x="322" 
d="M33 6l40 4c35 3 48 9 48 16v576c0 7 -6 10 -58 14l-29 3l-3 6h261l-3 -6l-40 -4c-35 -3 -48 -9 -48 -16v-576c0 -7 6 -10 58 -14l29 -3l3 -6h-261zM14 845h79l109 -187h-4z" />
    <glyph glyph-name="Ntilde" unicode="&#xd1;" horiz-adv-x="684" 
d="M129 560h-1l1 -519c0 -15 22 -28 83 -33l19 -2l3 -6h-210l3 6l20 2c43 4 71 16 71 35l2 526c-15 16 -40 41 -93 49l-13 2l-3 6h168l393 -501h1l-1 460c0 15 -22 25 -83 32l-19 2l-3 6h210l-3 -6l-20 -2c-43 -4 -71 -15 -71 -34l-2 -588h-7zM436 664
c-51 0 -125 60 -164 60c-24 0 -42 -5 -46 -52h-5c7 69 25 98 68 98c51 0 124 -59 164 -59c23 0 42 8 46 51h5c-7 -68 -25 -98 -68 -98z" />
    <glyph glyph-name="Oacute" unicode="&#xd3;" horiz-adv-x="715" 
d="M360 -3c148 0 240 121 240 316c0 186 -104 317 -245 317c-146 0 -240 -124 -240 -320c0 -185 101 -313 245 -313zM356 -14c-188 0 -329 133 -329 325c0 172 155 329 331 329c189 0 330 -134 330 -328c0 -173 -155 -326 -332 -326zM437 845h79l-184 -187h-4z" />
    <glyph glyph-name="Ocircumflex" unicode="&#xd4;" horiz-adv-x="715" 
d="M360 -3c148 0 240 121 240 316c0 186 -104 317 -245 317c-146 0 -240 -124 -240 -320c0 -185 101 -313 245 -313zM356 -14c-188 0 -329 133 -329 325c0 172 155 329 331 329c189 0 330 -134 330 -328c0 -173 -155 -326 -332 -326zM359 834h2l134 -187h-4l-130 112h-2
l-130 -112h-4z" />
    <glyph glyph-name="Odieresis" unicode="&#xd6;" horiz-adv-x="715" 
d="M360 -3c148 0 240 121 240 316c0 186 -104 317 -245 317c-146 0 -240 -124 -240 -320c0 -185 101 -313 245 -313zM356 -14c-188 0 -329 133 -329 325c0 172 155 329 331 329c189 0 330 -134 330 -328c0 -173 -155 -326 -332 -326zM440 676c-32 0 -46 28 -46 45
c0 19 14 49 46 49s46 -30 46 -49c0 -17 -14 -45 -46 -45zM280 676c-32 0 -46 28 -46 45c0 19 14 49 46 49s46 -30 46 -49c0 -17 -14 -45 -46 -45z" />
    <glyph glyph-name="Ograve" unicode="&#xd2;" horiz-adv-x="715" 
d="M360 -3c148 0 240 121 240 316c0 186 -104 317 -245 317c-146 0 -240 -124 -240 -320c0 -185 101 -313 245 -313zM356 -14c-188 0 -329 133 -329 325c0 172 155 329 331 329c189 0 330 -134 330 -328c0 -173 -155 -326 -332 -326zM199 845h79l109 -187h-4z" />
    <glyph glyph-name="Otilde" unicode="&#xd5;" horiz-adv-x="715" 
d="M360 -3c148 0 240 121 240 316c0 186 -104 317 -245 317c-146 0 -240 -124 -240 -320c0 -185 101 -313 245 -313zM356 -14c-188 0 -329 133 -329 325c0 172 155 329 331 329c189 0 330 -134 330 -328c0 -173 -155 -326 -332 -326zM434 664c-51 0 -125 60 -164 60
c-24 0 -42 -5 -46 -52h-5c7 69 25 98 68 98c51 0 124 -59 164 -59c23 0 42 8 46 51h5c-7 -68 -25 -98 -68 -98z" />
    <glyph glyph-name="Scaron" unicode="&#x160;" horiz-adv-x="484" 
d="M234 -14c-59 0 -132 16 -187 35l-10 142h6l21 -49c35 -84 91 -118 171 -118c90 0 151 62 151 146c0 83 -57 125 -156 157c-88 29 -165 73 -165 170c0 90 72 170 188 170c49 0 90 -11 123 -23l40 12l9 -153h-6l-66 120c-27 20 -56 35 -101 35c-74 0 -127 -50 -127 -118
c0 -77 62 -109 145 -138c102 -35 183 -84 183 -192c0 -101 -91 -196 -219 -196zM119 854h4l130 -112h2l130 112h4l-134 -187h-2z" />
    <glyph glyph-name="Uacute" unicode="&#xda;" horiz-adv-x="666" 
d="M350 -14c-172 0 -244 65 -244 229v387c0 7 -6 11 -58 15l-39 3l-3 6h281l-3 -6l-50 -4c-35 -3 -48 -10 -48 -17v-371c0 -145 60 -209 195 -209c121 0 187 73 187 230l-1 336c0 15 -29 26 -90 33l-19 2l-3 6h215l-3 -6l-20 -2c-43 -4 -69 -16 -69 -35l-1 -337
c-1 -165 -68 -260 -227 -260zM422 845h79l-184 -187h-4z" />
    <glyph glyph-name="Ucircumflex" unicode="&#xdb;" horiz-adv-x="666" 
d="M350 -14c-172 0 -244 65 -244 229v387c0 7 -6 11 -58 15l-39 3l-3 6h281l-3 -6l-50 -4c-35 -3 -48 -10 -48 -17v-371c0 -145 60 -209 195 -209c121 0 187 73 187 230l-1 336c0 15 -29 26 -90 33l-19 2l-3 6h215l-3 -6l-20 -2c-43 -4 -69 -16 -69 -35l-1 -337
c-1 -165 -68 -260 -227 -260zM354 834h2l134 -187h-4l-130 112h-2l-130 -112h-4z" />
    <glyph glyph-name="Udieresis" unicode="&#xdc;" horiz-adv-x="666" 
d="M350 -14c-172 0 -244 65 -244 229v387c0 7 -6 11 -58 15l-39 3l-3 6h281l-3 -6l-50 -4c-35 -3 -48 -10 -48 -17v-371c0 -145 60 -209 195 -209c121 0 187 73 187 230l-1 336c0 15 -29 26 -90 33l-19 2l-3 6h215l-3 -6l-20 -2c-43 -4 -69 -16 -69 -35l-1 -337
c-1 -165 -68 -260 -227 -260zM449 676c-32 0 -46 28 -46 45c0 19 14 49 46 49s46 -30 46 -49c0 -17 -14 -45 -46 -45zM289 676c-32 0 -46 28 -46 45c0 19 14 49 46 49s46 -30 46 -49c0 -17 -14 -45 -46 -45z" />
    <glyph glyph-name="Ugrave" unicode="&#xd9;" horiz-adv-x="666" 
d="M350 -14c-172 0 -244 65 -244 229v387c0 7 -6 11 -58 15l-39 3l-3 6h281l-3 -6l-50 -4c-35 -3 -48 -10 -48 -17v-371c0 -145 60 -209 195 -209c121 0 187 73 187 230l-1 336c0 15 -29 26 -90 33l-19 2l-3 6h215l-3 -6l-20 -2c-43 -4 -69 -16 -69 -35l-1 -337
c-1 -165 -68 -260 -227 -260zM209 845h79l109 -187h-4z" />
    <glyph glyph-name="Yacute" unicode="&#xdd;" horiz-adv-x="610" 
d="M167 6l50 4c35 3 48 9 48 16v255l-148 261c-29 53 -45 72 -90 75l-28 2l-3 6h264l-3 -6l-30 -1c-53 -3 -54 -18 -25 -71l136 -241h2l94 178c52 102 54 125 -25 133l-25 2l-3 6h220l-3 -6l-22 -2c-50 -3 -70 -15 -128 -129l-103 -193v-272c0 -7 6 -10 58 -14l39 -3l3 -6
h-281zM411 845h79l-184 -187h-4z" />
    <glyph glyph-name="Ydieresis" unicode="&#x178;" horiz-adv-x="610" 
d="M167 6l50 4c35 3 48 9 48 16v255l-148 261c-29 53 -45 72 -90 75l-28 2l-3 6h264l-3 -6l-30 -1c-53 -3 -54 -18 -25 -71l136 -241h2l94 178c52 102 54 125 -25 133l-25 2l-3 6h220l-3 -6l-22 -2c-50 -3 -70 -15 -128 -129l-103 -193v-272c0 -7 6 -10 58 -14l39 -3l3 -6
h-281zM389 676c-32 0 -46 28 -46 45c0 19 14 49 46 49s46 -30 46 -49c0 -17 -14 -45 -46 -45zM229 676c-32 0 -46 28 -46 45c0 19 14 49 46 49s46 -30 46 -49c0 -17 -14 -45 -46 -45z" />
    <glyph glyph-name="Zcaron" unicode="&#x17d;" horiz-adv-x="569" 
d="M33 3l397 610v3h-164c-124 0 -169 -66 -203 -159l-5 -12h-6l21 180h453v-4l-396 -608v-2l178 -2c138 0 178 69 218 180l6 14h8l-32 -203h-475v3zM154 839h4l130 -112h2l130 112h4l-134 -187h-2z" />
    <glyph glyph-name="aacute" unicode="&#xe1;" horiz-adv-x="397" 
d="M166 32c33 0 63 14 90 41l6 159c-142 -35 -164 -77 -164 -126c0 -45 29 -74 68 -74zM318 -10c-35 0 -60 27 -63 70v1c-39 -36 -81 -70 -128 -70c-60 0 -100 42 -100 93c0 65 48 113 235 158l1 44c5 100 -45 128 -97 128c-40 0 -83 -25 -83 -37c0 -7 25 -23 25 -50
c0 -20 -16 -39 -43 -39c-25 0 -43 15 -43 39c0 51 115 110 191 110c83 0 125 -30 120 -146l-10 -216c-3 -33 10 -45 33 -45c16 0 30 12 45 27l5 -3c-18 -21 -46 -64 -88 -64zM274 678h79l-184 -187h-4z" />
    <glyph glyph-name="acircumflex" unicode="&#xe2;" horiz-adv-x="397" 
d="M166 32c33 0 63 14 90 41l6 159c-142 -35 -164 -77 -164 -126c0 -45 29 -74 68 -74zM318 -10c-35 0 -60 27 -63 70v1c-39 -36 -81 -70 -128 -70c-60 0 -100 42 -100 93c0 65 48 113 235 158l1 44c5 100 -45 128 -97 128c-40 0 -83 -25 -83 -37c0 -7 25 -23 25 -50
c0 -20 -16 -39 -43 -39c-25 0 -43 15 -43 39c0 51 115 110 191 110c83 0 125 -30 120 -146l-10 -216c-3 -33 10 -45 33 -45c16 0 30 12 45 27l5 -3c-18 -21 -46 -64 -88 -64zM191 667h2l134 -187h-4l-130 112h-2l-130 -112h-4z" />
    <glyph glyph-name="adieresis" unicode="&#xe4;" horiz-adv-x="397" 
d="M166 32c33 0 63 14 90 41l6 159c-142 -35 -164 -77 -164 -126c0 -45 29 -74 68 -74zM318 -10c-35 0 -60 27 -63 70v1c-39 -36 -81 -70 -128 -70c-60 0 -100 42 -100 93c0 65 48 113 235 158l1 44c5 100 -45 128 -97 128c-40 0 -83 -25 -83 -37c0 -7 25 -23 25 -50
c0 -20 -16 -39 -43 -39c-25 0 -43 15 -43 39c0 51 115 110 191 110c83 0 125 -30 120 -146l-10 -216c-3 -33 10 -45 33 -45c16 0 30 12 45 27l5 -3c-18 -21 -46 -64 -88 -64zM267 509c-32 0 -46 28 -46 45c0 19 14 49 46 49s46 -30 46 -49c0 -17 -14 -45 -46 -45zM107 509
c-32 0 -46 28 -46 45c0 19 14 49 46 49s46 -30 46 -49c0 -17 -14 -45 -46 -45z" />
    <glyph glyph-name="agrave" unicode="&#xe0;" horiz-adv-x="397" 
d="M166 32c33 0 63 14 90 41l6 159c-142 -35 -164 -77 -164 -126c0 -45 29 -74 68 -74zM318 -10c-35 0 -60 27 -63 70v1c-39 -36 -81 -70 -128 -70c-60 0 -100 42 -100 93c0 65 48 113 235 158l1 44c5 100 -45 128 -97 128c-40 0 -83 -25 -83 -37c0 -7 25 -23 25 -50
c0 -20 -16 -39 -43 -39c-25 0 -43 15 -43 39c0 51 115 110 191 110c83 0 125 -30 120 -146l-10 -216c-3 -33 10 -45 33 -45c16 0 30 12 45 27l5 -3c-18 -21 -46 -64 -88 -64zM51 678h79l109 -187h-4z" />
    <glyph glyph-name="aring" unicode="&#xe5;" horiz-adv-x="397" 
d="M166 32c33 0 63 14 90 41l6 159c-142 -35 -164 -77 -164 -126c0 -45 29 -74 68 -74zM318 -10c-35 0 -60 27 -63 70v1c-39 -36 -81 -70 -128 -70c-60 0 -100 42 -100 93c0 65 48 113 235 158l1 44c5 100 -45 128 -97 128c-40 0 -83 -25 -83 -37c0 -7 25 -23 25 -50
c0 -20 -16 -39 -43 -39c-25 0 -43 15 -43 39c0 51 115 110 191 110c83 0 125 -30 120 -146l-10 -216c-3 -33 10 -45 33 -45c16 0 30 12 45 27l5 -3c-18 -21 -46 -64 -88 -64zM203 507c49 0 79 37 79 81c0 43 -30 81 -79 81s-79 -38 -79 -81c0 -44 30 -81 79 -81zM203 498
c-56 0 -89 41 -89 90c0 48 33 90 89 90s89 -42 89 -90c0 -49 -33 -90 -89 -90z" />
    <glyph glyph-name="atilde" unicode="&#xe3;" horiz-adv-x="397" 
d="M166 32c33 0 63 14 90 41l6 159c-142 -35 -164 -77 -164 -126c0 -45 29 -74 68 -74zM318 -10c-35 0 -60 27 -63 70v1c-39 -36 -81 -70 -128 -70c-60 0 -100 42 -100 93c0 65 48 113 235 158l1 44c5 100 -45 128 -97 128c-40 0 -83 -25 -83 -37c0 -7 25 -23 25 -50
c0 -20 -16 -39 -43 -39c-25 0 -43 15 -43 39c0 51 115 110 191 110c83 0 125 -30 120 -146l-10 -216c-3 -33 10 -45 33 -45c16 0 30 12 45 27l5 -3c-18 -21 -46 -64 -88 -64zM277 497c-51 0 -125 60 -164 60c-24 0 -42 -5 -46 -52h-5c7 69 25 98 68 98c51 0 124 -59 164 -59
c23 0 42 8 46 51h5c-7 -68 -25 -98 -68 -98z" />
    <glyph glyph-name="ccedilla" unicode="&#xe7;" horiz-adv-x="403" 
d="M217 -13c-112 0 -198 95 -198 215c0 130 91 235 222 235c81 0 144 -36 144 -92c0 -27 -22 -48 -45 -48c-27 0 -45 19 -45 42c0 32 20 42 20 50c0 13 -35 40 -72 40c-80 0 -148 -81 -148 -195c0 -119 69 -197 157 -197c61 0 98 20 135 80l8 -3c-40 -72 -87 -119 -159 -126
l-49 -57c76 13 142 -16 142 -70c0 -74 -99 -105 -192 -116l-2 4c88 15 147 41 147 88c0 39 -33 54 -77 54c-27 0 -51 -4 -68 -11v7l87 100h-7z" />
    <glyph glyph-name="eacute" unicode="&#xe9;" horiz-adv-x="413" 
d="M310 298c0 68 -26 129 -87 129c-55 0 -106 -60 -122 -131zM218 -13c-113 0 -199 95 -199 215c0 128 84 235 211 235c101 0 158 -61 158 -137c0 -5 -1 -7 -2 -14l-287 1c-3 -15 -4 -39 -4 -54c0 -118 69 -196 157 -196c61 0 100 20 139 80l7 -3
c-45 -79 -99 -127 -180 -127zM293 678h79l-184 -187h-4z" />
    <glyph glyph-name="ecircumflex" unicode="&#xea;" horiz-adv-x="413" 
d="M310 298c0 68 -26 129 -87 129c-55 0 -106 -60 -122 -131zM218 -13c-113 0 -199 95 -199 215c0 128 84 235 211 235c101 0 158 -61 158 -137c0 -5 -1 -7 -2 -14l-287 1c-3 -15 -4 -39 -4 -54c0 -118 69 -196 157 -196c61 0 100 20 139 80l7 -3
c-45 -79 -99 -127 -180 -127zM222 667h2l134 -187h-4l-130 112h-2l-130 -112h-4z" />
    <glyph glyph-name="edieresis" unicode="&#xeb;" horiz-adv-x="413" 
d="M310 298c0 68 -26 129 -87 129c-55 0 -106 -60 -122 -131zM218 -13c-113 0 -199 95 -199 215c0 128 84 235 211 235c101 0 158 -61 158 -137c0 -5 -1 -7 -2 -14l-287 1c-3 -15 -4 -39 -4 -54c0 -118 69 -196 157 -196c61 0 100 20 139 80l7 -3
c-45 -79 -99 -127 -180 -127zM296 509c-32 0 -46 28 -46 45c0 19 14 49 46 49s46 -30 46 -49c0 -17 -14 -45 -46 -45zM136 509c-32 0 -46 28 -46 45c0 19 14 49 46 49s46 -30 46 -49c0 -17 -14 -45 -46 -45z" />
    <glyph glyph-name="egrave" unicode="&#xe8;" horiz-adv-x="413" 
d="M310 298c0 68 -26 129 -87 129c-55 0 -106 -60 -122 -131zM218 -13c-113 0 -199 95 -199 215c0 128 84 235 211 235c101 0 158 -61 158 -137c0 -5 -1 -7 -2 -14l-287 1c-3 -15 -4 -39 -4 -54c0 -118 69 -196 157 -196c61 0 100 20 139 80l7 -3
c-45 -79 -99 -127 -180 -127zM75 678h79l109 -187h-4z" />
    <glyph glyph-name="iacute" unicode="&#xed;" horiz-adv-x="218" 
d="M16 6l18 1c31 3 42 3 42 15v291c0 61 -6 73 -41 78l-23 4l1 4l133 35v-414c0 -8 6 -10 50 -13l14 -1l3 -6h-200zM181 678h79l-184 -187h-4z" />
    <glyph glyph-name="icircumflex" unicode="&#xee;" horiz-adv-x="218" 
d="M113 667h2l118 -187h-5l-113 111h-2l-115 -111h-4zM16 6l18 1c31 3 42 3 42 15v291c0 61 -6 73 -41 78l-23 4l1 4l133 35v-414c0 -8 6 -10 50 -13l14 -1l3 -6h-200z" />
    <glyph glyph-name="idieresis" unicode="&#xef;" horiz-adv-x="218" 
d="M16 6l18 1c31 3 42 3 42 15v291c0 61 -6 73 -41 78l-23 4l1 4l133 35v-414c0 -8 6 -10 50 -13l14 -1l3 -6h-200zM194 509c-32 0 -46 28 -46 45c0 19 14 49 46 49s46 -30 46 -49c0 -17 -14 -45 -46 -45zM34 509c-32 0 -46 28 -46 45c0 19 14 49 46 49s46 -30 46 -49
c0 -17 -14 -45 -46 -45z" />
    <glyph glyph-name="igrave" unicode="&#xec;" horiz-adv-x="218" 
d="M16 6l18 1c31 3 42 3 42 15v291c0 61 -6 73 -41 78l-23 4l1 4l133 35v-414c0 -8 6 -10 50 -13l14 -1l3 -6h-200zM-37 678h79l109 -187h-4z" />
    <glyph glyph-name="ntilde" unicode="&#xf1;" horiz-adv-x="491" 
d="M16 6l18 1c31 3 42 3 42 15v290c0 61 -6 74 -41 79l-23 4l1 4l134 35l-3 -86l3 -2c39 33 98 90 169 90c32 0 57 -9 75 -28c21 -21 32 -54 32 -97v-290c0 -6 0 -9 50 -14l14 -1l3 -6h-199l3 6l18 1c35 3 41 7 41 15v276c0 59 -29 88 -88 88c-47 0 -87 -21 -119 -52v-130
v-184c0 -8 6 -10 50 -13l14 -1l3 -6h-200zM324 497c-51 0 -125 60 -164 60c-24 0 -42 -5 -46 -52h-5c7 69 25 98 68 98c51 0 124 -59 164 -59c23 0 42 8 46 51h5c-7 -68 -25 -98 -68 -98z" />
    <glyph glyph-name="oacute" unicode="&#xf3;" horiz-adv-x="485" 
d="M244 -5c83 0 138 98 138 210c0 77 -16 148 -55 187c-23 21 -50 37 -86 37c-86 0 -139 -98 -139 -206c0 -83 18 -154 57 -193c23 -23 52 -35 85 -35zM243 -13c-128 0 -224 97 -224 223c0 125 96 227 224 227c127 0 223 -97 223 -223c0 -128 -97 -227 -223 -227zM327 678
h79l-184 -187h-4z" />
    <glyph glyph-name="ocircumflex" unicode="&#xf4;" horiz-adv-x="485" 
d="M244 -5c83 0 138 98 138 210c0 77 -16 148 -55 187c-23 21 -50 37 -86 37c-86 0 -139 -98 -139 -206c0 -83 18 -154 57 -193c23 -23 52 -35 85 -35zM243 -13c-128 0 -224 97 -224 223c0 125 96 227 224 227c127 0 223 -97 223 -223c0 -128 -97 -227 -223 -227zM241 667h2
l134 -187h-4l-130 112h-2l-130 -112h-4z" />
    <glyph glyph-name="odieresis" unicode="&#xf6;" horiz-adv-x="485" 
d="M244 -5c83 0 138 98 138 210c0 77 -16 148 -55 187c-23 21 -50 37 -86 37c-86 0 -139 -98 -139 -206c0 -83 18 -154 57 -193c23 -23 52 -35 85 -35zM243 -13c-128 0 -224 97 -224 223c0 125 96 227 224 227c127 0 223 -97 223 -223c0 -128 -97 -227 -223 -227zM322 509
c-32 0 -46 28 -46 45c0 19 14 49 46 49s46 -30 46 -49c0 -17 -14 -45 -46 -45zM162 509c-32 0 -46 28 -46 45c0 19 14 49 46 49s46 -30 46 -49c0 -17 -14 -45 -46 -45z" />
    <glyph glyph-name="ograve" unicode="&#xf2;" horiz-adv-x="485" 
d="M244 -5c83 0 138 98 138 210c0 77 -16 148 -55 187c-23 21 -50 37 -86 37c-86 0 -139 -98 -139 -206c0 -83 18 -154 57 -193c23 -23 52 -35 85 -35zM243 -13c-128 0 -224 97 -224 223c0 125 96 227 224 227c127 0 223 -97 223 -223c0 -128 -97 -227 -223 -227zM74 678h79
l109 -187h-4z" />
    <glyph glyph-name="otilde" unicode="&#xf5;" horiz-adv-x="485" 
d="M244 -5c83 0 138 98 138 210c0 77 -16 148 -55 187c-23 21 -50 37 -86 37c-86 0 -139 -98 -139 -206c0 -83 18 -154 57 -193c23 -23 52 -35 85 -35zM243 -13c-128 0 -224 97 -224 223c0 125 96 227 224 227c127 0 223 -97 223 -223c0 -128 -97 -227 -223 -227zM316 497
c-51 0 -125 60 -164 60c-24 0 -42 -5 -46 -52h-5c7 69 25 98 68 98c51 0 124 -59 164 -59c23 0 42 8 46 51h5c-7 -68 -25 -98 -68 -98z" />
    <glyph glyph-name="scaron" unicode="&#x161;" horiz-adv-x="347" 
d="M160 -13c-51 0 -90 8 -127 23l-11 118l6 1l21 -45c27 -56 69 -88 117 -88c60 0 98 37 98 88c0 55 -40 83 -111 106c-55 18 -116 49 -116 123c0 72 63 123 140 123c33 0 62 -6 88 -18l32 11l5 -111l-6 -1l-51 82c-15 12 -37 28 -69 28c-55 0 -84 -30 -84 -77
c0 -51 40 -72 101 -93c67 -24 130 -49 130 -134c0 -73 -64 -136 -163 -136zM39 658h4l130 -112h2l130 112h4l-134 -187h-2z" />
    <glyph glyph-name="uacute" unicode="&#xfa;" horiz-adv-x="466" 
d="M340 75h-1c-37 -34 -96 -88 -167 -88c-33 0 -59 10 -78 29c-23 23 -30 55 -30 96v291c0 5 0 10 -51 13l-14 1l-3 6h138v-298c0 -59 30 -88 89 -88c47 0 83 20 114 48v116v164c0 41 -9 48 -50 51l-14 1l-3 6h138v-361c0 -23 4 -29 25 -32l39 -6l-1 -5l-133 -35zM311 678
h79l-184 -187h-4z" />
    <glyph glyph-name="ucircumflex" unicode="&#xfb;" horiz-adv-x="466" 
d="M340 75h-1c-37 -34 -96 -88 -167 -88c-33 0 -59 10 -78 29c-23 23 -30 55 -30 96v291c0 5 0 10 -51 13l-14 1l-3 6h138v-298c0 -59 30 -88 89 -88c47 0 83 20 114 48v116v164c0 41 -9 48 -50 51l-14 1l-3 6h138v-361c0 -23 4 -29 25 -32l39 -6l-1 -5l-133 -35zM232 667h2
l134 -187h-4l-130 112h-2l-130 -112h-4z" />
    <glyph glyph-name="udieresis" unicode="&#xfc;" horiz-adv-x="466" 
d="M340 75h-1c-37 -34 -96 -88 -167 -88c-33 0 -59 10 -78 29c-23 23 -30 55 -30 96v291c0 5 0 10 -51 13l-14 1l-3 6h138v-298c0 -59 30 -88 89 -88c47 0 83 20 114 48v116v164c0 41 -9 48 -50 51l-14 1l-3 6h138v-361c0 -23 4 -29 25 -32l39 -6l-1 -5l-133 -35zM317 509
c-32 0 -46 28 -46 45c0 19 14 49 46 49s46 -30 46 -49c0 -17 -14 -45 -46 -45zM157 509c-32 0 -46 28 -46 45c0 19 14 49 46 49s46 -30 46 -49c0 -17 -14 -45 -46 -45z" />
    <glyph glyph-name="ugrave" unicode="&#xf9;" horiz-adv-x="466" 
d="M340 75h-1c-37 -34 -96 -88 -167 -88c-33 0 -59 10 -78 29c-23 23 -30 55 -30 96v291c0 5 0 10 -51 13l-14 1l-3 6h138v-298c0 -59 30 -88 89 -88c47 0 83 20 114 48v116v164c0 41 -9 48 -50 51l-14 1l-3 6h138v-361c0 -23 4 -29 25 -32l39 -6l-1 -5l-133 -35zM98 678h79
l109 -187h-4z" />
    <glyph glyph-name="yacute" unicode="&#xfd;" horiz-adv-x="448" 
d="M80 -256c-32 0 -57 19 -57 46c0 24 20 45 45 45c29 0 47 -21 52 -48c36 7 52 45 79 124l27 82l-1 1l-153 359c-22 54 -26 59 -57 62l-19 1l-3 6h203l-2 -6l-17 -1c-39 -3 -42 -15 -27 -52l113 -271l78 212c32 94 27 106 -40 111l-14 1l-3 6h169l-3 -6l-13 -1
c-46 -3 -49 -18 -89 -123l-111 -296l-33 -103c-31 -100 -64 -149 -124 -149zM299 644h75l-174 -178h-4z" />
    <glyph glyph-name="ydieresis" unicode="&#xff;" horiz-adv-x="448" 
d="M80 -256c-32 0 -57 19 -57 46c0 24 20 45 45 45c29 0 47 -21 52 -48c36 7 52 45 79 124l27 82l-1 1l-153 359c-22 54 -26 59 -57 62l-19 1l-3 6h203l-2 -6l-17 -1c-39 -3 -42 -15 -27 -52l113 -271l78 212c32 94 27 106 -40 111l-14 1l-3 6h169l-3 -6l-13 -1
c-46 -3 -49 -18 -89 -123l-111 -296l-33 -103c-31 -100 -64 -149 -124 -149zM313 509c-32 0 -46 28 -46 45c0 19 14 49 46 49s46 -30 46 -49c0 -17 -14 -45 -46 -45zM153 509c-32 0 -46 28 -46 45c0 19 14 49 46 49s46 -30 46 -49c0 -17 -14 -45 -46 -45z" />
    <glyph glyph-name="zcaron" unicode="&#x17e;" horiz-adv-x="409" 
d="M19 5l269 408c-13 1 -25 1 -36 1h-48c-91 0 -115 -37 -147 -116l-9 -20h-5l3 144h326v-5l-271 -407l93 -2c91 0 132 45 172 114l14 23h4l-33 -145h-332v5zM67 658h4l130 -112h2l130 112h4l-134 -187h-2z" />
    <glyph glyph-name="pi" unicode="&#x3c0;" horiz-adv-x="704" 
d="M374 302c60 0 92 33 92 93c0 59 -27 92 -102 92h-42v-178c12 -3 25 -7 52 -7zM214 125l30 3c19 2 29 5 29 10v339c0 5 -3 6 -35 9l-23 2l-2 6h167c92 0 136 -37 136 -94c0 -60 -62 -105 -142 -105c-19 0 -40 2 -52 5v-164c0 -4 3 -6 34 -9l30 -2l2 -6h-175zM352 -5
c175 0 317 143 317 318c0 176 -142 319 -317 319s-317 -143 -317 -319c0 -175 142 -318 317 -318zM352 -14c-181 0 -327 146 -327 327c0 180 146 328 327 328s327 -148 327 -328c0 -181 -146 -327 -327 -327z" />
    <glyph glyph-name="Omega" unicode="&#x2126;" horiz-adv-x="530" 
d="M23 6l18 1c31 3 42 3 42 15v364l-73 1l14 35h58l2 15c19 152 107 216 203 216c53 0 79 -22 79 -53c0 -20 -17 -40 -42 -40c-32 0 -58 34 -53 69l-30 10c-68 -19 -88 -80 -88 -180v-37h184l1 24c13 150 104 216 185 216c41 0 61 -21 61 -45c0 -20 -19 -39 -42 -39
c-27 0 -53 24 -58 55l-1 7l-14 2c-51 -23 -62 -82 -62 -174v-46h110l-14 -36h-96v-366c0 -8 3 -12 47 -13l33 -1l3 -6h-215l3 6l18 1c31 3 41 3 41 15v365h-184v-367c0 -8 2 -13 46 -13l32 -1l3 -6h-214z" />
    <glyph glyph-name="radical" unicode="&#x221a;" horiz-adv-x="735" 
d="M661 673v-653c0 -8 6 -10 51 -13l14 -1l3 -6h-199l3 6l17 1c31 3 42 3 42 15v365h-185v-367c0 -8 2 -12 46 -13l33 -1l2 -6h-213l3 6l18 1c31 3 41 3 41 15v365h-184v-367c0 -8 2 -13 46 -13l32 -1l3 -6h-214l3 6l18 1c31 3 42 3 42 15v364l-73 1l14 35h58l2 15
c19 152 107 216 203 216c53 0 79 -22 79 -53c0 -20 -17 -40 -42 -40c-32 0 -58 33 -53 69l-30 10c-68 -19 -88 -80 -88 -180v-37h184l1 25c13 150 111 216 207 216c25 0 45 -5 60 -14zM592 567h-4c-37 0 -62 32 -58 71l-32 10c-68 -19 -91 -80 -91 -180v-46h185v145z" />
    <glyph glyph-name="approxequal" unicode="&#x2248;" horiz-adv-x="735" 
d="M23 6l18 1c31 3 42 3 42 15v364l-73 1l14 35h58l2 15c19 152 107 216 203 216c53 0 79 -22 79 -53c0 -20 -17 -40 -42 -40c-32 0 -58 35 -53 69l-30 10c-68 -19 -88 -80 -88 -180v-37h184l1 25c13 150 112 216 208 216c51 0 82 -23 82 -59c0 -21 -19 -40 -42 -40
c-37 0 -62 35 -57 75l-30 9c-68 -19 -92 -80 -92 -180v-46h184l70 11v-413c0 -8 6 -10 51 -13l14 -1l3 -6h-199l3 6l18 1c31 3 41 4 41 16v364h-185v-367c0 -8 2 -12 46 -13l33 -1l2 -6h-213l3 6l18 1c31 3 41 3 41 15v365h-184v-367c0 -8 2 -13 46 -13l32 -1l3 -6h-214z
" />
    <glyph glyph-name="Delta" unicode="&#x2206;" horiz-adv-x="444" 
d="M154 -11c-103 0 -134 47 -134 82c0 28 20 52 51 52c29 0 48 -23 48 -46c0 -15 -6 -39 -43 -46c16 -23 44 -33 79 -33c73 0 101 39 101 150v455c0 7 -6 11 -58 14l-39 3l-3 6h281l-3 -6l-50 -4c-35 -3 -48 -9 -48 -16v-475c0 -48 -83 -136 -182 -136z" />
    <glyph glyph-name="nbspace" unicode="&#xa0;" horiz-adv-x="160" 
 />
    <glyph glyph-name="apple" unicode="&#xf8ff;" horiz-adv-x="758" 
d="M442 169l192 -104l-103 193l206 63l-206 61l103 192l-192 -103l-62 207l-64 -207l-191 103l103 -192l-208 -62l208 -64l-103 -191l191 104l62 -208zM294 115l-187 -68l68 187l-181 86l181 83l-68 189l187 -69l86 181l83 -181l189 69l-69 -189l180 -82l-180 -85l69 -189
l-189 69l-85 -181z" />
    <glyph glyph-name=".null" horiz-adv-x="0" 
 />
    <glyph glyph-name=".null" horiz-adv-x="0" 
 />
    <glyph glyph-name="Euro" unicode="&#x20ac;" horiz-adv-x="478" 
d="M289 -14c-109 0 -206 92 -227 237h-63l3 10h58c-2 22 -3 42 -3 60c0 20 1 41 4 60h-62l3 10h61c27 166 142 272 264 272c81 0 135 -33 135 -82c0 -25 -22 -45 -46 -45c-50 0 -56 60 -29 82c-8 15 -28 35 -67 35c-94 0 -174 -113 -187 -262h199l3 -10h-203
c0 -12 -1 -26 -1 -39c0 -26 2 -53 6 -81h195l3 -10h-195c22 -116 95 -189 180 -189c65 0 112 28 148 92l7 -5c-44 -79 -99 -135 -186 -135z" />
    </font>
</defs>
</svg>
