<?xml version="1.0" standalone="no"?>
<!DOCTYPE svg PUBLIC "-//W3C//DTD SVG 1.1//EN" "http://www.w3.org/Graphics/SVG/1.1/DTD/svg11.dtd" >
<svg xmlns="http://www.w3.org/2000/svg" xmlns:xlink="http://www.w3.org/1999/xlink" version="1.1">
<metadata>
Created by FontForge 20160405 at Tue Jan 23 08:09:42 2018
 By www-data
Copyright (c) Joshua Darden &#38; Phil's Fonts, Inc, 2005. All rights reserved.
</metadata>
<defs>
<font id="Freight-BigBold" horiz-adv-x="656" >
  <font-face 
    font-family="Freight"
    font-weight="700"
    font-stretch="normal"
    units-per-em="1000"
    panose-1="2 0 8 3 9 0 0 2 0 4"
    ascent="800"
    descent="-200"
    x-height="427"
    cap-height="625"
    bbox="-100 -279 1008 859"
    underline-thickness="20"
    underline-position="-133"
    unicode-range="U+0020-FB02"
  />
<missing-glyph horiz-adv-x="500" 
 />
    <glyph glyph-name=".notdef" horiz-adv-x="500" 
 />
    <glyph glyph-name="space" unicode=" " horiz-adv-x="130" 
 />
    <glyph glyph-name="exclam" unicode="!" horiz-adv-x="269" 
d="M71 573c-5 33 -1 66 63 66h3c64 0 67 -33 62 -66l-59 -380c-1 -7 -8 -7 -9 0zM135 -13c-37 0 -67 30 -67 67c0 35 30 64 67 64c39 0 67 -31 67 -64c0 -36 -28 -67 -67 -67z" />
    <glyph glyph-name="quotedbl" unicode="&#x22;" horiz-adv-x="336" 
d="M275 645h1l71 -31l-171 -211h-6zM103 645h2l71 -31l-173 -211h-5z" />
    <glyph glyph-name="numbersign" unicode="#" horiz-adv-x="494" 
d="M300 201l58 221h-163l-58 -221h163zM124 193h-139v8h141l58 221h-139v8h141l53 202h11l-53 -202h163l53 202h11l-53 -202h138v-8h-140l-58 -221h138v-8h-140l-52 -198h-11l52 198h-163l-52 -198h-11z" />
    <glyph glyph-name="dollar" unicode="$" horiz-adv-x="481" 
d="M155 -7c-44 5 -83 15 -118 28l-11 161h7l60 -110c21 -25 44 -44 69 -55l66 251c-3 1 -7 2 -14 5c-93 35 -173 75 -173 178c0 100 89 186 211 186c23 0 48 -3 72 -7l29 109h10c-6 -20 -11 -38 -15 -55c-7 -28 -14 -56 -15 -56c21 -5 41 -9 58 -16l41 14l3 -173h-5l-85 144
c-5 4 -10 7 -17 10c1 1 -56 -213 -57 -214c3 -1 5 -2 8 -3c104 -35 193 -83 193 -199c0 -104 -99 -203 -236 -203c-24 0 -48 1 -71 4c0 -1 -10 -39 -20 -79c-6 -23 -13 -49 -21 -78h-10c8 29 15 56 21 79c11 40 21 79 20 79zM319 611c-23 11 -46 16 -70 16
c-65 0 -113 -46 -113 -105c0 -68 54 -99 126 -126c11 40 21 76 29 108c13 54 28 107 28 107zM171 13c23 -9 46 -14 69 -14c77 0 134 47 134 126c0 77 -60 109 -136 139z" />
    <glyph glyph-name="percent" unicode="%" horiz-adv-x="529" 
d="M132 396c69 0 113 51 113 116c0 64 -44 118 -113 118c-68 0 -112 -54 -112 -118c0 -65 43 -116 112 -116zM132 386c-77 0 -124 58 -124 126s47 128 124 128c78 0 125 -60 125 -128s-47 -126 -125 -126zM396 -3c69 0 113 51 113 116c0 64 -44 118 -113 118
c-68 0 -112 -54 -112 -118c0 -65 43 -116 112 -116zM396 -13c-77 0 -124 58 -124 125c0 69 47 129 124 129c78 0 125 -60 125 -129c0 -67 -47 -125 -125 -125zM471 640h12l-428 -654h-12z" />
    <glyph glyph-name="ampersand" unicode="&#x26;" horiz-adv-x="728" 
d="M310 421c31 20 40 56 40 99c0 51 -25 107 -77 107c-45 0 -73 -40 -73 -92c0 -48 37 -86 110 -114zM269 66c51 0 100 19 149 67c-40 98 -115 188 -213 228c-67 -41 -85 -92 -85 -149c0 -81 65 -146 149 -146zM203 -12c-120 0 -193 80 -193 177c0 100 78 170 185 200
c-53 24 -97 70 -97 129c0 79 97 142 181 142c99 0 169 -48 169 -109s-62 -97 -128 -110c66 -30 149 -122 187 -190c51 69 78 116 78 147c0 25 -29 41 -87 46l-11 1l-3 6h262l-3 -6l-12 -1c-57 -3 -81 -23 -141 -101l-78 -103c59 -129 97 -165 151 -165c33 0 59 20 78 41
l7 -4c-35 -38 -93 -100 -163 -100c-81 0 -124 47 -163 136c-69 -79 -138 -136 -219 -136z" />
    <glyph glyph-name="quoteright" unicode="&#x2019;" horiz-adv-x="195" 
d="M21 393c59 31 86 71 86 114c0 72 -88 72 -88 74c0 28 21 68 68 68c59 0 91 -46 91 -95c0 -63 -54 -131 -153 -166z" />
    <glyph glyph-name="parenleft" unicode="(" horiz-adv-x="316" 
d="M312 -279c-107 59 -260 223 -260 463c0 243 153 407 260 463l5 -8c-105 -59 -254 -222 -254 -455c0 -236 149 -396 254 -455z" />
    <glyph glyph-name="parenright" unicode=")" horiz-adv-x="316" 
d="M-1 -271c105 59 254 219 254 455c0 233 -149 396 -254 455l5 8c107 -56 260 -220 260 -463c0 -240 -153 -404 -260 -463z" />
    <glyph glyph-name="asterisk" unicode="*" horiz-adv-x="312" 
d="M144 340l5 127c0 4 -4 7 -5 4l-63 -108l-68 5c-3 0 -4 1 -4 3l11 67l121 34c2 2 2 4 0 7l-121 36l-12 67c0 1 1 2 4 2l69 6l62 -108c1 -4 5 -3 5 0l-4 130l60 30c3 3 2 0 3 -1l28 -58l-83 -101c-3 -3 0 -7 3 -6l120 47l48 -46c3 -3 3 -4 0 -4l-48 -45l-120 47
c-3 1 -6 -4 -3 -7l82 -100l-28 -57c-1 -3 -3 -3 -4 -2z" />
    <glyph glyph-name="plus" unicode="+" horiz-adv-x="433" 
d="M211 232h-204l2 10h202v204h11v-204h202l2 -10h-203l-1 -208h-11v208z" />
    <glyph glyph-name="comma" unicode="," horiz-adv-x="198" 
d="M30 -122c59 29 86 73 86 116c0 57 -52 76 -90 54c-16 32 8 87 67 87c56 0 89 -39 89 -90c0 -63 -59 -139 -148 -171z" />
    <glyph glyph-name="hyphen" unicode="-" horiz-adv-x="280" 
d="M21 254h241l-3 -40h-241z" />
    <glyph glyph-name="period" unicode="." horiz-adv-x="213" 
d="M107 -11c-39 0 -68 31 -68 68c0 35 29 65 68 65c37 0 67 -32 67 -65c0 -37 -30 -68 -67 -68z" />
    <glyph glyph-name="slash" unicode="/" horiz-adv-x="249" 
d="M226 630h10l-210 -877h-10z" />
    <glyph glyph-name="zero" unicode="0" horiz-adv-x="573" 
d="M286 -2c79 0 132 105 132 237c0 153 -45 249 -132 249c-77 0 -131 -105 -131 -236c0 -160 43 -250 131 -250zM283 -12c-142 0 -253 99 -253 251c0 150 118 254 260 254c141 0 253 -101 253 -251c0 -151 -117 -254 -260 -254z" />
    <glyph glyph-name="one" unicode="1" horiz-adv-x="351" 
d="M50 6l26 1c32 1 46 3 46 15v416l-94 11l3 7l209 31v-467c0 -8 14 -10 55 -13l22 -1l3 -6h-273z" />
    <glyph glyph-name="two" unicode="2" horiz-adv-x="470" 
d="M16 27c192 147 249 196 249 284c0 64 -47 108 -106 108c-56 0 -96 -25 -127 -85l-7 3c43 96 112 154 205 154c84 0 146 -56 146 -128c0 -93 -88 -145 -261 -273v-2l257 -1c17 0 38 33 77 126l5 11l8 -2l-50 -222h-391z" />
    <glyph glyph-name="three" unicode="3" horiz-adv-x="430" 
d="M149 -201c-88 0 -141 37 -141 81c0 32 24 55 56 55c52 0 83 -57 75 -115c3 -1 21 -6 36 -6c68 0 125 68 125 159c0 96 -59 163 -147 163c-31 0 -58 -8 -85 -20l-3 9c127 71 190 104 190 184c0 67 -43 110 -107 110c-56 0 -97 -24 -124 -84l-7 3c39 95 105 153 197 153
c91 0 149 -57 149 -126c0 -81 -73 -121 -144 -158v-1c120 -3 187 -85 187 -180c0 -116 -110 -227 -257 -227z" />
    <glyph glyph-name="four" unicode="4" horiz-adv-x="503" 
d="M267 81v286h-1l-196 -286h197zM267 5h-255l-1 9l318 466h47v-400h118l-25 -75h-93v-189h-109v189z" />
    <glyph glyph-name="five" unicode="5" horiz-adv-x="409" 
d="M116 -200c-99 0 -136 32 -136 81c0 32 25 57 58 57c52 0 76 -62 68 -110c15 -7 26 -12 49 -12c63 0 120 61 120 151c0 113 -89 177 -245 189l82 319h274l-23 -105h-267l-28 -113c219 -19 303 -110 303 -225c0 -125 -124 -232 -255 -232z" />
    <glyph glyph-name="six" unicode="6" horiz-adv-x="525" 
d="M275 -3c67 0 105 67 105 184c0 112 -54 173 -130 173c-36 0 -66 -15 -85 -34c-7 -12 -12 -48 -12 -89c0 -141 37 -234 122 -234zM267 -13c-143 0 -240 109 -240 250c0 226 203 402 467 423l2 -7c-193 -29 -296 -180 -331 -316l1 -2c44 36 97 60 152 60
c103 0 181 -69 181 -186c0 -127 -103 -222 -232 -222z" />
    <glyph glyph-name="seven" unicode="7" horiz-adv-x="448" 
d="M389 373v4h-174c-132 0 -165 -13 -181 -85l-2 -9l-10 1l23 192h392l1 -7l-263 -653h-100z" />
    <glyph glyph-name="eight" unicode="8" horiz-adv-x="498" 
d="M302 359c33 25 48 70 48 118c0 77 -41 155 -109 155c-64 0 -99 -57 -99 -116c0 -72 59 -117 160 -157zM257 -2c72 0 116 54 116 118c0 79 -76 130 -181 173c-39 -25 -57 -71 -57 -131c0 -76 47 -160 122 -160zM252 -15c-131 0 -224 69 -224 167c0 69 68 122 152 141v2
c-77 37 -137 81 -137 159c0 93 74 186 201 186c122 0 211 -61 211 -154c0 -60 -64 -109 -141 -130v-1c88 -37 156 -88 156 -176c0 -104 -90 -194 -218 -194z" />
    <glyph glyph-name="nine" unicode="9" horiz-adv-x="525" 
d="M274 128c36 0 64 13 85 33c7 12 11 48 11 91c0 116 -29 231 -120 231c-60 0 -106 -61 -106 -182c0 -104 51 -173 130 -173zM28 -172c193 29 296 180 331 316l-2 1c-43 -36 -98 -60 -151 -60c-102 0 -182 68 -182 188c0 131 109 220 234 220c145 0 239 -110 239 -249
c0 -224 -203 -402 -467 -423z" />
    <glyph glyph-name="colon" unicode=":" horiz-adv-x="211" 
d="M107 285c-39 0 -68 31 -68 68c0 35 29 65 68 65c37 0 67 -30 67 -65c0 -36 -30 -68 -67 -68zM107 -11c-39 0 -68 31 -68 66s29 65 68 65c37 0 67 -30 67 -65s-30 -66 -67 -66z" />
    <glyph glyph-name="semicolon" unicode=";" horiz-adv-x="198" 
d="M101 285c-37 0 -67 31 -67 68c0 35 30 65 67 65c39 0 67 -32 67 -65c0 -37 -28 -68 -67 -68zM30 -120c59 29 86 71 86 114c0 56 -52 76 -90 54c-16 29 8 87 67 87c56 0 89 -41 89 -90c0 -62 -59 -138 -148 -170z" />
    <glyph glyph-name="less" unicode="&#x3c;" horiz-adv-x="420" 
d="M5 230v11l398 196l5 -11l-387 -189v-2l387 -191l-5 -11z" />
    <glyph glyph-name="equal" unicode="=" horiz-adv-x="428" 
d="M15 328h398l-3 -10h-392zM18 153h392l3 -10h-398z" />
    <glyph glyph-name="greater" unicode="&#x3e;" horiz-adv-x="420" 
d="M12 44l387 191v2l-387 189l5 11l398 -196v-11l-398 -197z" />
    <glyph glyph-name="question" unicode="?" horiz-adv-x="321" 
d="M153 179c-43 33 -88 86 -88 121c0 52 45 72 113 96c75 27 98 40 98 66c0 40 -47 79 -150 79c-35 0 -62 -6 -82 -11c-13 11 -24 31 -25 54c-3 33 17 55 72 55c123 0 199 -109 199 -214c0 -68 -19 -94 -79 -118c-65 -25 -94 -35 -94 -62c0 -25 15 -40 43 -64zM153 -12
c-37 0 -67 31 -67 66s30 65 67 65c39 0 67 -30 67 -65s-28 -66 -67 -66z" />
    <glyph glyph-name="at" unicode="@" horiz-adv-x="765" 
d="M295 117c32 0 82 46 134 150c13 23 29 58 29 72c0 38 -32 83 -68 83c-15 0 -23 -6 -34 -17c-43 -40 -99 -156 -99 -231c0 -36 15 -57 38 -57zM388 -103c-214 0 -363 141 -363 342c0 221 175 403 388 403c190 0 328 -129 328 -308c0 -148 -113 -277 -232 -277
c-67 0 -106 35 -106 86c0 23 9 56 21 84h-2c-67 -108 -114 -170 -175 -170c-49 0 -91 39 -92 92c0 77 66 179 138 246c51 49 95 70 132 70s57 -51 49 -102h1l45 126l98 -4l-66 -166l-45 -117c-21 -60 -9 -99 59 -99c74 0 165 98 165 231c0 172 -134 299 -318 299
c-208 0 -378 -179 -378 -394c0 -195 145 -333 353 -333c143 0 273 84 323 190l9 -4c-53 -109 -183 -195 -332 -195z" />
    <glyph glyph-name="A" unicode="A" 
d="M180 269l-36 -101c-48 -139 -53 -149 43 -160l20 -2l3 -6h-220l3 6l17 2c64 8 74 21 138 200l112 314l-11 32c44 13 66 43 85 88h18l172 -505c38 -108 54 -126 98 -129l28 -2l2 -6h-313l3 6l27 2c51 3 52 27 31 91l-56 170h-164zM341 279l-75 228h-1l-81 -228h157z" />
    <glyph glyph-name="B" unicode="B" horiz-adv-x="608" 
d="M257 346c93 -1 155 46 155 134c0 92 -58 132 -153 132l-26 -1v-265h24zM293 12c4 1 8 1 5 1c87 5 145 75 145 160c0 98 -74 164 -170 164c-17 0 -30 -1 -40 -3v-307l52 -17zM20 6l37 4c35 4 47 10 47 17v574c0 7 -6 9 -57 14l-26 3l-3 7h265c195 0 262 -55 262 -139
c0 -68 -60 -116 -185 -135v-3c139 -9 218 -77 218 -169c0 -107 -88 -179 -279 -179h-282z" />
    <glyph glyph-name="C" unicode="C" horiz-adv-x="685" 
d="M388 -12c-218 0 -361 137 -361 320c0 184 137 331 372 331c63 0 128 -19 161 -38l64 21l6 -201h-6l-101 177c-21 15 -70 29 -126 29c-148 0 -230 -137 -230 -313c0 -193 101 -315 226 -315c111 0 173 55 222 150l31 59h6l-34 -177l-33 -5c-35 -16 -128 -38 -197 -38z" />
    <glyph glyph-name="D" unicode="D" horiz-adv-x="688" 
d="M300 11c148 0 224 136 224 288c0 188 -73 315 -238 315h-53v-585zM20 6l37 4c35 4 47 10 47 17v574c0 8 -7 10 -57 15l-26 3l-3 6c57 1 107 1 150 1h143c235 3 352 -119 352 -307c0 -176 -145 -319 -370 -319h-276z" />
    <glyph glyph-name="E" unicode="E" horiz-adv-x="609" 
d="M20 6l35 4c35 4 49 10 49 17v574c0 7 -6 10 -57 15l-26 3l-3 6h510l10 -204h-6l-4 11c-37 133 -98 185 -218 182l-77 -1v-287h43c89 5 126 28 148 93l6 18l7 -1l-26 -239l-7 1l-1 18c-5 72 -34 93 -136 98l-34 2v-302l98 -4c128 3 195 78 235 188l5 11h6l-28 -209h-532z
" />
    <glyph glyph-name="F" unicode="F" horiz-adv-x="575" 
d="M20 6l39 4c35 4 45 10 45 17v574c0 7 -4 10 -55 15l-28 3l-3 6h514l10 -192h-6l-5 11c-45 123 -96 171 -216 171l-82 -2v-292l43 2c88 3 127 25 148 90l6 19l7 -1l-26 -239l-7 1l-1 17c-5 72 -34 99 -136 99l-34 1v-286c0 -7 5 -11 56 -15l43 -3l3 -6h-318z" />
    <glyph glyph-name="G" unicode="G" horiz-adv-x="716" 
d="M380 -16c-217 0 -353 141 -353 324c0 184 130 331 370 331c64 0 135 -17 167 -36l63 19l4 -201h-6l-98 175c-27 20 -77 32 -132 32c-150 0 -228 -138 -228 -314c0 -212 114 -319 223 -319c48 0 93 18 110 31v222c0 7 -17 12 -68 15l-34 3l-3 6h314l-3 -6l-42 -4
c-35 -3 -41 -7 -41 -14v-198l57 11l1 -4c-79 -39 -209 -73 -301 -73z" />
    <glyph glyph-name="H" unicode="H" horiz-adv-x="748" 
d="M20 6l37 4c35 4 47 10 47 17v574c0 7 -6 10 -57 15l-26 3l-3 6h303l-3 -6l-38 -4c-35 -4 -47 -10 -47 -17v-275h282v278c0 7 -6 10 -57 15l-27 3l-3 6h303l-3 -6l-37 -4c-35 -4 -47 -10 -47 -17v-574c0 -7 6 -10 57 -15l26 -3l3 -6h-303l3 6l38 4c35 4 47 10 47 17v286
h-282v-289c0 -7 6 -10 57 -15l27 -3l3 -6h-303z" />
    <glyph glyph-name="I" unicode="I" horiz-adv-x="361" 
d="M30 6l39 4c35 3 47 10 47 17v574c0 7 -6 10 -57 15l-29 3l-3 6h307l-3 -6l-39 -4c-35 -3 -47 -10 -47 -17v-574c0 -7 6 -10 57 -15l28 -3l3 -6h-306z" />
    <glyph glyph-name="J" unicode="J" horiz-adv-x="350" 
d="M2 -174c-56 0 -94 29 -94 72c0 36 28 66 68 66c66 0 89 -78 40 -122c64 -5 95 76 95 205v554c0 7 -6 11 -57 15l-28 3l-3 6h306l-3 -6l-39 -4c-35 -4 -47 -10 -47 -17v-554c0 -57 -133 -218 -238 -218z" />
    <glyph glyph-name="K" unicode="K" horiz-adv-x="697" 
d="M20 6l39 4c35 4 45 10 45 17v574c0 7 -4 10 -55 15l-28 3l-3 6h309l-3 -6l-44 -4c-35 -3 -47 -10 -47 -17v-317l150 155c146 149 140 172 46 180l-31 3l-2 6h267l-3 -6l-22 -2c-78 -8 -96 -35 -243 -185l-5 -5l194 -325c50 -84 61 -91 102 -94l17 -2l3 -6h-301l2 6l19 2
c51 5 55 22 -7 126l-117 202l-69 -70v-242c0 -7 6 -10 57 -15l33 -3l3 -6h-309z" />
    <glyph glyph-name="L" unicode="L" horiz-adv-x="576" 
d="M20 6l39 4c35 4 45 10 45 17v574c0 7 -4 10 -55 15l-28 3l-3 6h319l-3 -6l-54 -4c-31 -2 -47 -8 -47 -17v-583l73 -6c112 0 167 66 231 207l6 13h6l-32 -229h-500z" />
    <glyph glyph-name="M" unicode="M" horiz-adv-x="841" 
d="M16 6l19 1c68 5 78 25 78 46l13 535c-19 19 -41 26 -69 29l-28 2l-3 6h224l169 -454h1l174 454h229l-3 -6l-50 -4c-33 -3 -47 -10 -47 -17l12 -574c0 -7 7 -10 56 -15l29 -3l3 -6h-312l3 6l48 4c33 3 41 10 41 17l-13 554h-1l-223 -581h-10l-211 555c-3 7 -7 14 -10 18
l-9 -527c0 -18 18 -34 96 -39l18 -1l3 -6h-230z" />
    <glyph glyph-name="N" unicode="N" horiz-adv-x="699" 
d="M127 535h-1l1 -491c0 -17 19 -32 90 -37l19 -1l3 -6h-221l3 6l20 1c56 4 73 25 73 45l3 494c-27 36 -61 65 -108 72l-11 1l-2 6h230l356 -427h1l-1 382c0 17 -19 33 -90 38l-18 1l-3 6h220l-3 -6l-20 -1c-56 -4 -73 -26 -73 -46l-4 -578h-10z" />
    <glyph glyph-name="O" unicode="O" horiz-adv-x="739" 
d="M373 -1c131 0 198 102 198 314c0 199 -77 313 -204 313c-132 0 -200 -103 -200 -314c0 -201 77 -313 206 -313zM364 -12c-196 0 -337 130 -337 324c0 173 158 326 348 326c196 0 337 -133 337 -327c0 -172 -157 -323 -348 -323z" />
    <glyph glyph-name="P" unicode="P" horiz-adv-x="588" 
d="M289 313c81 0 138 57 138 148c0 101 -44 153 -145 154l-49 -2v-292c15 -3 28 -8 56 -8zM13 6l44 4c35 4 47 10 47 17v574c0 7 -6 10 -57 15l-33 3l-3 6h289c179 0 264 -48 264 -151c0 -105 -106 -172 -272 -172c-23 0 -43 2 -59 5v-283c0 -7 5 -11 56 -15l43 -3l3 -6
h-325z" />
    <glyph glyph-name="Q" unicode="Q" horiz-adv-x="737" 
d="M373 -2c131 0 198 104 198 315c0 196 -78 313 -204 313c-132 0 -200 -105 -200 -316c0 -200 77 -312 206 -312zM599 -181c-121 0 -206 32 -268 171c-181 13 -304 149 -304 322c0 169 158 325 348 325c203 0 337 -142 337 -326c0 -130 -97 -251 -232 -299
c64 -155 129 -185 279 -164l2 -6c-31 -9 -99 -23 -162 -23z" />
    <glyph glyph-name="R" unicode="R" horiz-adv-x="682" 
d="M283 330c96 0 151 49 151 141c0 89 -56 146 -163 143h-38v-276c19 -4 33 -8 50 -8zM13 6l44 4c27 3 47 10 47 17v574c0 7 -6 10 -57 15l-33 3l-3 6l299 1c172 0 260 -52 260 -160c0 -75 -61 -135 -154 -152l130 -205c49 -78 69 -97 120 -102l11 -1l4 -6h-217l-8 16
l-168 297c-19 4 -36 9 -55 16v-305c0 -7 19 -12 56 -15l38 -3l3 -6h-320z" />
    <glyph glyph-name="S" unicode="S" horiz-adv-x="514" 
d="M245 -12c-75 0 -146 14 -199 35l-11 160h6l40 -77c39 -73 91 -108 168 -108c84 0 134 50 134 129c0 87 -69 117 -155 149c-93 35 -173 75 -173 178c0 101 83 184 206 184c56 0 107 -14 140 -25l40 14l3 -174h-5l-84 147c-23 16 -51 28 -96 28c-65 0 -113 -43 -113 -103
c0 -75 68 -103 148 -132c103 -34 182 -83 182 -198c0 -106 -95 -207 -231 -207z" />
    <glyph glyph-name="T" unicode="T" horiz-adv-x="673" 
d="M181 6l45 4c35 3 47 10 47 17v589h-33c-96 -8 -163 -100 -195 -164l-7 -13h-7l29 186h561l19 -185h-6l-6 13c-35 75 -99 160 -192 163h-34v-592c0 -7 6 -10 57 -15l34 -3l3 -6h-318z" />
    <glyph glyph-name="U" unicode="U" horiz-adv-x="697" 
d="M361 -16c-183 0 -260 66 -260 219v400c0 7 -5 9 -56 13l-34 3l-3 6h316l-3 -6l-44 -4c-35 -3 -47 -8 -47 -15v-368c0 -137 59 -200 178 -200s183 68 183 216l-1 332c0 17 -19 34 -90 39h-19l-3 6h220l-3 -6h-19c-56 -4 -73 -27 -73 -47l-2 -326
c-3 -167 -68 -262 -240 -262z" />
    <glyph glyph-name="V" unicode="V" horiz-adv-x="658" 
d="M123 495c-46 110 -50 119 -98 122l-28 2l-2 6h307l-2 -6l-33 -1c-62 -3 -57 -12 -30 -81l154 -379h2l114 300c51 137 55 148 -41 159l-19 2l-3 6h219l-3 -6l-17 -2c-61 -5 -73 -19 -129 -168l-175 -458h-10z" />
    <glyph glyph-name="W" unicode="W" horiz-adv-x="996" 
d="M115 495c-39 102 -49 119 -97 122l-24 2l-3 6h307l-3 -6l-32 -1c-53 -3 -56 -12 -37 -63l155 -404h2l120 304l-15 41c-37 96 -49 118 -95 121l-29 2l-3 6h313l-3 -6l-30 -1c-56 -3 -61 -11 -39 -68l143 -392h2l109 295c48 129 54 153 -46 164l-21 2l-3 6h222l-3 -6
l-16 -2c-65 -8 -69 -25 -123 -167l-174 -466h-12l-171 458h-1l-180 -458h-12z" />
    <glyph glyph-name="X" unicode="X" horiz-adv-x="660" 
d="M-2 6l28 2c62 5 86 39 175 163l78 112l-136 215c-56 87 -67 115 -109 118l-31 3l-4 6h313l-2 -6l-32 -1c-44 -3 -53 -17 -8 -89l92 -146h1l54 79c88 128 86 146 3 154l-25 3l-3 6h239l-3 -6l-23 -2c-64 -5 -85 -29 -181 -164l-56 -79l177 -278c44 -68 54 -85 88 -88
l23 -2l4 -6h-305l2 6l32 1c47 3 53 19 29 58l-133 209h-1c1 0 -18 -27 -37 -54c-11 -16 -24 -34 -38 -55c-86 -124 -80 -148 -3 -156l25 -3l3 -6h-239z" />
    <glyph glyph-name="Y" unicode="Y" horiz-adv-x="647" 
d="M168 6l44 4c35 3 47 10 47 17v259l-134 237c-41 70 -53 89 -99 94l-21 2l-3 6h310l-3 -6l-17 -1c-64 -5 -68 -23 -44 -64l132 -236h2l75 140c69 130 71 150 -18 158l-22 3l-3 6h228l-3 -6l-28 -3c-50 -5 -72 -24 -144 -162l-79 -146v-284c0 -7 6 -10 57 -15l33 -3l3 -6
h-316z" />
    <glyph glyph-name="Z" unicode="Z" horiz-adv-x="601" 
d="M30 4l376 607v2l-89 1c-145 0 -211 -66 -251 -175l-4 -11h-7l13 197h490v-5l-383 -604v-3l95 -2c164 -5 227 59 291 210l6 14h7l-33 -235h-511v4z" />
    <glyph glyph-name="bracketleft" unicode="[" horiz-adv-x="306" 
d="M53 625h244v-10h-233v-852h233v-10h-244v872z" />
    <glyph glyph-name="backslash" unicode="\" horiz-adv-x="232" 
d="M-6 630h10l210 -877h-10z" />
    <glyph glyph-name="bracketright" unicode="]" horiz-adv-x="306" 
d="M9 -237h233v852h-233v10h244v-872h-244v10z" />
    <glyph glyph-name="asciicircum" unicode="^" horiz-adv-x="370" 
d="M183 677h4l145 -197h-6l-140 96h-2l-140 -96h-6z" />
    <glyph glyph-name="underscore" unicode="_" horiz-adv-x="446" 
d="M22 0h402l3 -29h-408z" />
    <glyph glyph-name="quoteleft" unicode="&#x2018;" horiz-adv-x="195" 
d="M108 386c-60 0 -91 46 -91 95c0 63 54 131 153 166l4 -4c-59 -31 -86 -72 -86 -115c0 -72 88 -70 88 -74c0 -28 -21 -68 -68 -68z" />
    <glyph glyph-name="a" unicode="a" horiz-adv-x="449" 
d="M195 54c23 0 46 11 67 33l7 153c-107 -24 -135 -63 -135 -114c0 -43 26 -72 61 -72zM345 -11c-47 0 -74 31 -81 86l-1 1c-43 -47 -85 -86 -137 -86c-58 0 -103 46 -103 95c0 70 55 118 245 166l1 34c3 84 -36 131 -100 131c-37 0 -62 -15 -62 -26c0 -8 30 -33 30 -59
c0 -29 -23 -52 -58 -52c-31 0 -56 17 -56 48c0 64 133 115 217 115c109 0 148 -42 143 -155l-9 -187c-3 -37 14 -55 37 -55c16 0 30 14 42 29l6 -3c-22 -28 -64 -82 -114 -82z" />
    <glyph glyph-name="b" unicode="b" horiz-adv-x="515" 
d="M272 -3c65 0 100 89 100 197c0 101 -46 180 -122 180c-39 0 -68 -20 -92 -43v-236c25 -55 71 -98 114 -98zM46 559c0 42 -6 52 -41 60l-23 6l1 4l175 44v-324l3 -3c40 51 93 91 157 91c99 0 178 -89 178 -211c0 -164 -132 -240 -238 -240c-51 0 -97 15 -136 31h-1
l-69 -38h-6v580z" />
    <glyph glyph-name="c" unicode="c" horiz-adv-x="429" 
d="M226 -15c-120 0 -207 93 -207 216c0 136 96 241 236 241c88 0 159 -39 159 -98c0 -35 -26 -61 -59 -61c-35 0 -60 26 -60 57s25 51 25 60c0 15 -27 31 -58 31c-71 0 -120 -72 -120 -188c0 -121 57 -188 148 -188c57 0 94 21 125 78l7 -3c-43 -92 -105 -145 -196 -145z
" />
    <glyph glyph-name="d" unicode="d" horiz-adv-x="527" 
d="M265 51c41 0 68 19 91 43v237c-24 54 -71 95 -110 95c-68 0 -103 -89 -103 -196c0 -100 47 -179 122 -179zM356 78l-2 2c-40 -51 -93 -94 -157 -94c-99 0 -178 90 -178 214c0 163 132 237 238 237c43 0 73 -6 97 -18h2v140c0 43 -7 55 -40 60l-33 6l1 4l185 44v-589
c0 -40 4 -47 28 -52l36 -8l-1 -4l-176 -35v93z" />
    <glyph glyph-name="e" unicode="e" horiz-adv-x="445" 
d="M310 299c0 61 -16 132 -71 132c-45 0 -84 -56 -95 -133zM227 -15c-120 0 -208 96 -208 220c0 133 99 238 231 238c115 0 171 -70 171 -141c0 -7 -1 -10 -2 -17c-47 0 -89 0 -128 1c-67 0 -134 2 -149 2c-3 -13 -2 -35 -2 -48c0 -111 61 -185 152 -185c57 0 98 21 129 78
l7 -3c-43 -92 -105 -145 -201 -145z" />
    <glyph glyph-name="f" unicode="f" horiz-adv-x="324" 
d="M23 6l19 1c31 3 42 3 42 15v354l-80 1l24 50l56 -1l3 57c8 114 114 179 210 179c65 0 86 -26 86 -55c0 -27 -25 -52 -57 -52c-33 0 -56 25 -67 75l-2 8l-17 5c-35 -13 -43 -47 -43 -143v-73h124l-17 -49h-107v-357c0 -8 6 -13 50 -14l34 -1l3 -6h-264z" />
    <glyph glyph-name="g" unicode="g" horiz-adv-x="477" 
d="M226 166c47 0 72 43 72 127c0 83 -19 138 -74 138c-45 0 -68 -44 -68 -131c0 -89 23 -134 70 -134zM242 -218c87 0 146 51 146 114c0 56 -40 79 -133 82c-27 1 -70 -2 -103 -6c-36 -15 -55 -48 -55 -87c0 -60 58 -103 145 -103zM189 -236c-118 0 -177 33 -177 99
c0 54 69 89 125 110v1c-67 4 -117 42 -117 89c0 55 61 93 117 106v1c-53 19 -93 60 -93 123c0 81 82 148 181 148c47 0 88 -14 119 -34l131 23l-10 -51l-100 14l-1 -3c27 -23 42 -55 42 -90c0 -80 -79 -143 -184 -143c-25 0 -52 4 -68 7c-35 -7 -58 -26 -58 -51
c0 -27 27 -37 83 -37c28 0 92 3 128 3c95 0 149 -43 149 -118c0 -112 -110 -197 -267 -197z" />
    <glyph glyph-name="h" unicode="h" horiz-adv-x="527" 
d="M10 6l14 1c31 3 42 4 42 16v534c0 43 -6 53 -40 61l-23 6l1 4l176 44v-318l1 -2c42 37 104 89 171 89c31 0 58 -11 79 -32c23 -23 32 -65 32 -110v-277c0 -6 2 -10 51 -15l11 -1l3 -6h-236l3 6l18 1c35 3 37 8 37 16v263c0 61 -30 84 -82 84c-39 0 -66 -14 -89 -31v-152
v-166c0 -8 5 -11 45 -14l14 -1l3 -6h-234z" />
    <glyph glyph-name="i" unicode="i" horiz-adv-x="263" 
d="M126 508c-47 0 -71 37 -71 69s24 69 71 69s71 -37 71 -69s-24 -69 -71 -69zM19 6l15 1c31 3 42 4 42 16v280c0 62 -6 71 -41 79l-23 5l1 4l176 48v-418c0 -8 6 -10 51 -14l11 -1l3 -6h-238z" />
    <glyph glyph-name="j" unicode="j" horiz-adv-x="253" 
d="M124 508c-47 0 -72 37 -72 69s25 69 72 69s70 -37 70 -69s-23 -69 -70 -69zM-18 -252c-52 0 -82 26 -82 62c0 32 25 56 57 56c48 0 73 -55 55 -97c47 3 61 64 61 165v369c0 62 -6 71 -41 79l-23 5l1 4l177 48v-469c0 -80 -113 -222 -205 -222z" />
    <glyph glyph-name="k" unicode="k" horiz-adv-x="512" 
d="M12 6l13 1c31 3 41 4 41 16v534c0 43 -6 53 -40 61l-23 6l1 4l176 44v-470l78 72c60 56 87 91 87 112c0 18 -11 31 -64 34l-13 1l-3 6h224l-3 -6l-17 -2c-48 -5 -76 -23 -160 -107l-6 -6c-1 -1 -3 -4 -4 -5l-2 -2l123 -220c32 -58 45 -69 78 -72l13 -1l3 -6h-183l-7 15
l-111 204l-33 -29v-169c0 -8 6 -11 50 -14l15 -1l2 -6h-238z" />
    <glyph glyph-name="l" unicode="l" horiz-adv-x="256" 
d="M17 6l15 1c31 3 39 4 39 16v517c0 60 -6 70 -41 78l-22 6l1 4l176 44v-651c0 -8 7 -11 46 -14l13 -1l3 -6h-233z" />
    <glyph glyph-name="m" unicode="m" horiz-adv-x="797" 
d="M19 6l15 1c31 3 42 4 42 16v280c0 62 -6 71 -41 79l-23 5l1 4l178 48l-3 -86l2 -1c38 38 94 89 161 89c35 0 59 -13 79 -32c14 -15 23 -34 27 -57l3 -2c41 41 96 91 163 91c35 0 58 -11 79 -32c23 -23 32 -67 32 -131v-256c0 -6 0 -10 50 -15l11 -1l3 -6h-235l3 6l18 1
c35 3 37 8 37 16v262c0 63 -25 85 -81 85c-35 0 -70 -16 -77 -36l-1 -42v-272c0 -7 1 -9 45 -13l14 -1l3 -6h-233l3 6l18 1c32 3 37 8 37 16v262c0 63 -26 85 -81 85c-33 0 -56 -13 -79 -28v-118v-203c0 -8 4 -11 45 -14l15 -1l2 -6h-235z" />
    <glyph glyph-name="n" unicode="n" horiz-adv-x="537" 
d="M19 6l15 1c31 3 42 4 42 16v280c0 62 -6 71 -41 79l-23 5l1 4l178 48l-3 -86l2 -1c43 37 104 89 172 89c31 0 58 -11 79 -32c23 -23 32 -65 32 -110v-277c0 -6 2 -10 51 -15l11 -1l3 -6h-236l3 6l18 1c35 3 37 8 37 16v262c0 63 -31 85 -83 85c-39 0 -65 -14 -88 -31
v-152v-166c0 -8 5 -11 44 -14l15 -1l2 -6h-234z" />
    <glyph glyph-name="o" unicode="o" horiz-adv-x="516" 
d="M257 -5c73 0 113 94 113 214c0 104 -20 168 -51 199c-16 15 -34 25 -61 25c-76 0 -113 -96 -113 -211c0 -107 19 -170 50 -202c17 -17 37 -25 62 -25zM256 -14c-144 0 -237 103 -237 228s99 228 241 228c143 0 237 -100 237 -225c0 -129 -98 -231 -241 -231z" />
    <glyph glyph-name="p" unicode="p" horiz-adv-x="529" 
d="M286 -3c65 0 101 89 101 197c0 101 -47 178 -123 178c-39 0 -68 -18 -91 -41v-237c25 -56 72 -97 113 -97zM0 -247l18 1c31 3 42 4 42 15v534c0 62 -6 71 -41 79l-23 5l1 4l177 48l-2 -90l3 -3c40 51 93 91 157 91c99 0 178 -89 178 -211c0 -164 -130 -240 -237 -240
c-43 0 -75 7 -98 18h-2v-237c0 -7 5 -12 50 -13l35 -1l3 -6h-264z" />
    <glyph glyph-name="q" unicode="q" horiz-adv-x="523" 
d="M265 51c41 0 68 19 91 43v236c-24 53 -71 96 -110 96c-68 0 -103 -88 -103 -194c0 -100 47 -181 122 -181zM271 -247l35 1c45 1 50 6 50 13v311l-2 2c-40 -51 -93 -94 -157 -94c-99 0 -178 90 -178 214c0 166 132 237 238 237c53 0 98 -12 138 -31h1l67 40h6v-677
c0 -11 11 -12 42 -15l18 -1l3 -6h-264z" />
    <glyph glyph-name="r" unicode="r" horiz-adv-x="402" 
d="M19 6l15 1c31 3 42 4 42 16v280c0 62 -6 71 -41 79l-23 5l1 4l178 48l-3 -158h2c29 104 71 160 135 160c40 0 72 -26 72 -67c0 -31 -25 -62 -61 -62c-37 0 -62 27 -69 66c-35 -5 -54 -46 -78 -137v-219c0 -8 8 -12 53 -15l22 -1l3 -6h-251z" />
    <glyph glyph-name="s" unicode="s" horiz-adv-x="376" 
d="M173 -14c-60 0 -107 11 -144 26l-6 125h5l24 -43c33 -64 66 -99 126 -99c53 0 85 32 85 79c0 49 -45 74 -105 97c-68 27 -127 54 -127 133c0 84 67 137 160 137c35 0 68 -6 95 -17l39 10l5 -129l-5 -2l-74 106c-16 11 -35 23 -62 23c-48 0 -75 -29 -75 -74
c0 -47 45 -66 105 -89c67 -27 133 -55 133 -138c0 -74 -58 -145 -179 -145z" />
    <glyph glyph-name="t" unicode="t" horiz-adv-x="348" 
d="M195 -11c-80 0 -118 39 -117 124l5 262l-81 1l20 33l71 51l97 73l4 -1l-1 -104l150 -1l-17 -48h-134l-5 -253c-1 -56 21 -82 73 -82c39 0 64 14 83 31l4 -4c-45 -47 -92 -82 -152 -82z" />
    <glyph glyph-name="u" unicode="u" horiz-adv-x="514" 
d="M344 76h-2c-43 -43 -103 -90 -171 -90c-33 0 -53 11 -76 34s-32 63 -31 110l2 278c0 4 -2 9 -53 12l-14 1l-3 6h183l-2 -285c-1 -61 29 -84 84 -84c36 0 60 13 81 29v154v148c0 24 -8 28 -51 31l-14 1l-3 6h181v-327c0 -39 5 -46 27 -52l37 -8l-1 -4l-176 -52z" />
    <glyph glyph-name="v" unicode="v" horiz-adv-x="478" 
d="M67 363c-19 46 -26 54 -57 57l-16 1l-3 6h252l-2 -6l-17 -1c-40 -3 -50 -14 -35 -47l103 -249l65 169c40 104 27 119 -38 127l-14 1l-3 6h176l-3 -6l-14 -2c-47 -5 -50 -18 -95 -133l-115 -296h-25z" />
    <glyph glyph-name="w" unicode="w" horiz-adv-x="743" 
d="M70 353c-22 57 -27 64 -61 67l-16 1l-2 6h243l-2 -6l-17 -1c-35 -3 -44 -10 -29 -45l100 -255l80 193l-21 53c-17 45 -31 53 -58 54l-14 1l-3 6h244l-2 -6l-17 -1c-39 -3 -40 -13 -29 -45l101 -250l58 162c35 99 27 124 -42 132l-14 2l-3 6h177l-3 -6l-15 -2
c-47 -3 -51 -20 -90 -135l-106 -294h-27l-130 312l-128 -312h-27z" />
    <glyph glyph-name="x" unicode="x" horiz-adv-x="484" 
d="M4 6l20 3c46 8 65 28 131 115l45 60l-102 160c-37 53 -56 73 -84 76l-13 1l-3 6h251l-3 -6l-20 -2c-33 -4 -28 -25 -4 -61l60 -94h1l36 51c61 84 58 101 -3 104l-18 2l-3 6h181l-3 -6l-21 -3c-43 -8 -65 -28 -131 -115l-33 -46l113 -174c35 -53 56 -73 79 -76l13 -1l4 -6
h-247l2 6l18 2c35 3 30 24 6 60l-70 109h-1l-47 -66c-61 -83 -57 -100 0 -103l20 -2l3 -6h-180z" />
    <glyph glyph-name="y" unicode="y" horiz-adv-x="478" 
d="M95 -256c-33 0 -68 21 -68 61c0 31 25 57 58 57c41 0 61 -29 66 -57c27 5 39 31 58 82l37 104h-13l-166 371c-21 47 -26 55 -59 58l-16 1l-3 6h251l-3 -6l-17 -1c-40 -3 -46 -13 -31 -48l106 -246l61 170c37 100 29 115 -40 123l-14 2l-3 6h177l-3 -6l-16 -2
c-45 -3 -50 -18 -92 -132l-106 -287l-41 -122c-29 -91 -66 -134 -123 -134z" />
    <glyph glyph-name="z" unicode="z" horiz-adv-x="438" 
d="M19 4l253 413l-45 -1c-99 -3 -133 -40 -165 -112l-19 -41h-5v164h368v-4l-259 -412l45 -1c107 3 168 62 203 129l14 27h5l-30 -166h-365v4z" />
    <glyph glyph-name="braceleft" unicode="{" horiz-adv-x="320" 
d="M308 -267c-123 11 -225 78 -225 167c0 74 49 152 49 206c0 53 -40 71 -136 79l-2 5l2 6c84 8 136 24 136 79c0 54 -49 132 -49 206c0 89 102 156 225 167l3 -6c-93 -13 -138 -49 -138 -100c0 -64 49 -146 49 -218c0 -76 -57 -119 -196 -132v-2c139 -15 196 -56 196 -132
c0 -72 -49 -154 -49 -218c0 -52 45 -88 138 -101z" />
    <glyph glyph-name="bar" unicode="|" horiz-adv-x="153" 
d="M72 630h9v-877h-9v877z" />
    <glyph glyph-name="braceright" unicode="}" horiz-adv-x="320" 
d="M-7 -261c93 13 138 49 138 101c0 64 -49 146 -49 218c0 76 57 117 196 132v2c-139 13 -196 56 -196 132c0 72 49 154 49 218c0 51 -45 87 -138 100l3 6c123 -11 225 -78 225 -167c0 -74 -49 -152 -49 -206c0 -55 52 -71 136 -79l2 -6l-2 -5c-95 -8 -136 -26 -136 -79
c0 -54 49 -132 49 -206c0 -89 -102 -156 -225 -167z" />
    <glyph glyph-name="asciitilde" unicode="~" horiz-adv-x="390" 
d="M274 146c-61 0 -144 63 -188 63c-21 0 -38 -1 -43 -54h-6c8 93 25 123 79 123c61 0 145 -62 187 -62c22 0 40 2 45 53h5c-8 -91 -25 -123 -79 -123z" />
    <glyph glyph-name="exclamdown" unicode="&#xa1;" horiz-adv-x="269" 
d="M134 504c-37 0 -66 30 -66 65s29 67 66 67c39 0 68 -32 68 -67s-29 -65 -68 -65zM133 -16c-62 0 -66 33 -61 66l57 380c1 7 9 7 10 0l57 -380c5 -33 1 -66 -61 -66h-2z" />
    <glyph glyph-name="cent" unicode="&#xa2;" horiz-adv-x="429" 
d="M313 414c-12 9 -32 18 -51 18c-71 0 -120 -73 -120 -189c0 -84 31 -143 79 -170zM199 -13c-104 13 -180 101 -180 214c0 135 96 242 236 242c23 0 44 -3 64 -7l44 167h10l-46 -170c51 -15 87 -48 87 -89c0 -35 -26 -61 -59 -61c-28 0 -49 18 -56 43l-69 -256
c17 -10 37 -15 60 -15c57 0 94 21 125 78l8 -2c-43 -92 -106 -146 -197 -146c-5 0 -11 0 -18 1l-38 -142h-9z" />
    <glyph glyph-name="sterling" unicode="&#xa3;" horiz-adv-x="553" 
d="M186 58c-43 27 -78 51 -115 51c-35 0 -60 -20 -60 -55s29 -56 66 -56s80 25 109 60zM63 299l3 10h99c-13 32 -23 64 -23 99c0 127 113 223 258 223c80 0 125 -31 125 -88c0 -31 -28 -61 -64 -61c-63 0 -78 76 -46 119c-4 5 -22 17 -46 17c-57 0 -106 -42 -106 -130
c0 -49 20 -104 24 -179h125l3 -10h-127v-20c0 -43 -16 -99 -43 -151c64 -20 130 -45 187 -45c56 0 81 22 92 121h9c-3 -112 -66 -216 -157 -216c-75 0 -130 33 -181 64c-33 -39 -74 -64 -118 -64c-47 0 -76 29 -76 69c0 52 46 95 123 95c31 0 62 -6 97 -17c1 3 1 8 1 15
c0 47 -29 96 -53 149h-106z" />
    <glyph glyph-name="fraction" unicode="&#x2044;" horiz-adv-x="459" 
d="M457 641h14l-469 -654h-14z" />
    <glyph glyph-name="yen" unicode="&#xa5;" horiz-adv-x="625" 
d="M155 7l45 4c35 3 48 8 48 15v138h-187l3 10h184v120h-184l-3 10h180c1 0 -31 55 -62 110l-62 110c-43 70 -59 89 -107 92l-21 2l-4 7h323l-3 -7l-24 -1c-56 -1 -63 -23 -34 -74l126 -233h1l50 99c88 170 84 197 -9 208l-22 3l-4 5h241l-3 -5l-22 -3
c-44 -8 -79 -32 -132 -136l-46 -88c-23 -43 -46 -90 -46 -89h188l-3 -10h-186v-120h186l3 -10h-189v-141c0 -7 6 -9 58 -13l34 -3l3 -7h-323z" />
    <glyph glyph-name="florin" unicode="&#x192;" horiz-adv-x="551" 
d="M103 -72c-65 0 -108 29 -108 72c0 28 22 59 62 59c45 0 85 -56 37 -107c4 -3 8 -5 12 -7c7 -3 13 -6 20 -6c40 0 60 65 108 306l21 113l-111 2l21 46l103 1c18 63 42 141 83 182c32 31 81 49 141 49c64 0 104 -30 104 -73c0 -35 -29 -59 -60 -59c-64 0 -79 73 -18 108
c-3 3 -7 5 -11 8c-8 5 -16 7 -24 7c-51 0 -72 -95 -98 -222l120 -1l-8 -46h-122l-33 -137c-28 -113 -65 -193 -117 -245c-33 -35 -77 -50 -122 -50z" />
    <glyph glyph-name="section" unicode="&#xa7;" horiz-adv-x="407" 
d="M307 179c19 16 32 33 32 57c0 52 -46 79 -118 112c-48 24 -89 42 -120 69c-19 -15 -32 -32 -32 -55c0 -54 46 -79 117 -113c49 -23 90 -43 121 -70zM179 -44c-77 0 -130 26 -130 77c0 27 18 53 49 53c54 0 68 -52 44 -103c12 -9 32 -16 52 -16c48 0 81 41 81 73
c0 51 -56 80 -125 112c-71 34 -146 77 -146 153c0 53 43 91 91 116c-23 23 -34 49 -34 79c0 83 85 139 165 139c77 0 128 -24 128 -75c0 -27 -21 -53 -52 -53c-54 0 -68 55 -49 103c-12 9 -22 16 -42 16c-48 0 -78 -41 -78 -73c0 -51 57 -81 125 -113
c71 -34 146 -73 146 -150c0 -53 -43 -92 -91 -119c23 -21 34 -48 34 -79c0 -81 -88 -140 -168 -140z" />
    <glyph glyph-name="currency" unicode="&#xa4;" horiz-adv-x="511" 
d="M305 -12c-120 0 -218 91 -242 240h-64l3 10h59c-2 21 -3 41 -3 58c0 21 1 43 5 62h-64l3 10h63c32 164 160 262 284 262c92 0 150 -29 150 -88c0 -31 -28 -60 -64 -60c-61 0 -85 77 -44 120c-8 5 -18 16 -46 16c-90 0 -150 -103 -161 -250h188l3 -10h-191
c-1 -12 -1 -25 -1 -38c0 -27 2 -54 6 -82h183l3 -10h-182c24 -105 89 -169 176 -169c64 0 105 23 140 83l7 -4c-47 -95 -115 -150 -211 -150z" />
    <glyph glyph-name="quotesingle" unicode="'" horiz-adv-x="167" 
d="M103 645h2l71 -31l-173 -211h-5z" />
    <glyph glyph-name="quotedblleft" unicode="&#x201c;" horiz-adv-x="382" 
d="M108 386c-60 0 -91 46 -91 95c0 63 54 131 153 166l4 -4c-59 -31 -86 -72 -86 -115c0 -72 88 -70 88 -74c0 -28 -21 -68 -68 -68zM295 386c-59 0 -91 46 -91 95c0 63 54 131 153 166l4 -4c-59 -31 -86 -72 -86 -115c0 -72 88 -70 88 -74c0 -28 -21 -68 -68 -68z" />
    <glyph glyph-name="guillemotleft" unicode="&#xab;" horiz-adv-x="448" 
d="M12 216v13l219 165l3 -2l-110 -171l110 -169l-3 -3zM208 216v13l225 176l3 -3l-117 -181l116 -179l-3 -3z" />
    <glyph glyph-name="guilsinglleft" unicode="&#x2039;" horiz-adv-x="269" 
d="M12 216v13l235 176l3 -3l-120 -181l120 -179l-3 -3z" />
    <glyph glyph-name="guilsinglright" unicode="&#x203a;" horiz-adv-x="270" 
d="M18 42l120 179l-121 181l3 3l236 -176v-13l-236 -177z" />
    <glyph glyph-name="fi" unicode="&#xfb01;" horiz-adv-x="544" 
d="M24 6l18 1c31 3 42 4 42 16v356l-79 1l23 47l56 -1l3 49c8 123 137 193 245 193c60 0 95 -28 95 -67c0 -31 -26 -58 -58 -58c-48 0 -75 48 -80 99l-25 7c-44 -13 -67 -52 -67 -155v-67h210l61 12v-418c0 -8 6 -10 51 -14l11 -1l3 -6h-236l2 6l18 1c35 3 38 4 38 16v358
h-158v-360c0 -8 4 -11 43 -14l22 -1l3 -6h-244z" />
    <glyph glyph-name="fl" unicode="&#xfb02;" horiz-adv-x="540" 
d="M468 672v-651c0 -8 6 -9 51 -14l11 -1l3 -6h-236l3 6l13 1c31 3 42 4 42 16v358h-158v-360c0 -8 4 -11 43 -14l22 -1l3 -6h-244l3 6l18 1c31 3 42 4 42 16v356l-79 1l23 47l56 -1l3 49c8 123 133 193 237 193c30 0 53 -7 69 -22zM355 559c-45 3 -75 46 -75 83l-21 7
c-44 -13 -62 -52 -62 -155v-67h158v132z" />
    <glyph glyph-name="endash" unicode="&#x2013;" horiz-adv-x="426" 
d="M7 251h413v-34h-416z" />
    <glyph glyph-name="dagger" unicode="&#x2020;" horiz-adv-x="433" 
d="M211 414h-202l-1 10h203v201h11v-201h203l-1 -10h-202v-570h-11v570z" />
    <glyph glyph-name="daggerdbl" unicode="&#x2021;" horiz-adv-x="433" 
d="M211 36h-203l1 10h202v376h-202l-1 10h203v193h11v-193h203l-1 -10h-202v-376h202l1 -10h-203v-192h-11v192z" />
    <glyph glyph-name="periodcentered" unicode="&#xb7;" horiz-adv-x="216" 
d="M107 166c-39 0 -68 31 -68 68c0 35 29 65 68 65c37 0 67 -32 67 -65c0 -37 -30 -68 -67 -68z" />
    <glyph glyph-name="paragraph" unicode="&#xb6;" horiz-adv-x="432" 
d="M372 248c-19 -3 -60 -4 -88 -4c-152 0 -259 65 -259 189c0 123 82 192 274 192h83v-657h-10v280z" />
    <glyph glyph-name="bullet" unicode="&#x2022;" horiz-adv-x="425" 
d="M212 39c-28 0 -116 37 -135 56c-19 22 -57 108 -57 137c0 28 37 116 57 136s108 56 136 56c27 0 118 -35 136 -56c21 -18 56 -109 56 -136c0 -28 -35 -116 -56 -137c-20 -20 -108 -56 -137 -56z" />
    <glyph glyph-name="quotesinglbase" unicode="&#x201a;" horiz-adv-x="195" 
d="M21 -121c59 31 86 71 86 114c0 72 -88 72 -88 74c0 28 21 68 68 68c59 0 91 -46 91 -95c0 -63 -54 -131 -153 -166z" />
    <glyph glyph-name="quotedblbase" unicode="&#x201e;" horiz-adv-x="382" 
d="M208 -121c59 31 86 71 86 114c0 72 -88 72 -88 74c0 28 21 68 68 68c60 0 91 -46 91 -95c0 -63 -54 -131 -153 -166zM21 -121c59 31 86 71 86 114c0 72 -88 72 -88 74c0 28 21 68 68 68c59 0 91 -46 91 -95c0 -63 -54 -131 -153 -166z" />
    <glyph glyph-name="quotedblright" unicode="&#x201d;" horiz-adv-x="382" 
d="M208 393c59 31 86 71 86 114c0 72 -88 72 -88 74c0 28 21 68 68 68c60 0 91 -46 91 -95c0 -63 -54 -131 -153 -166zM21 393c59 31 86 71 86 114c0 72 -88 72 -88 74c0 28 21 68 68 68c59 0 91 -46 91 -95c0 -63 -54 -131 -153 -166z" />
    <glyph glyph-name="guillemotright" unicode="&#xbb;" horiz-adv-x="447" 
d="M215 52l109 169l-108 170l1 3l219 -165v-13l-219 -167zM13 42l116 179l-116 181l3 3l225 -176v-13l-225 -177z" />
    <glyph glyph-name="ellipsis" unicode="&#x2026;" horiz-adv-x="641" 
d="M321 -11c-39 0 -68 31 -68 68c0 35 29 65 68 65c37 0 67 -32 67 -65c0 -37 -30 -68 -67 -68zM103 -11c-39 0 -68 31 -68 68c0 35 30 65 67 65c39 0 67 -32 67 -65c0 -37 -29 -68 -66 -68zM539 -11c-37 0 -67 31 -67 68c0 35 30 65 67 65c39 0 67 -32 67 -65
c0 -37 -28 -68 -67 -68z" />
    <glyph glyph-name="perthousand" unicode="&#x2030;" horiz-adv-x="817" 
d="M132 395c69 0 113 52 113 117c0 64 -44 119 -113 119c-68 0 -112 -55 -112 -119c0 -65 43 -117 112 -117zM132 386c-77 0 -124 58 -124 126s47 128 124 128c78 0 125 -60 125 -128s-47 -126 -125 -126zM396 -4c69 0 113 51 113 116s-44 120 -113 120
c-68 0 -112 -55 -112 -120s43 -116 112 -116zM396 -13c-77 0 -124 58 -124 125c0 69 47 129 124 129c78 0 125 -60 125 -129c0 -67 -47 -125 -125 -125zM684 -4c69 0 113 51 113 116s-44 120 -113 120c-68 0 -112 -55 -112 -120s43 -116 112 -116zM684 -13
c-77 0 -124 58 -124 125c0 69 47 129 124 129c78 0 125 -60 125 -129c0 -67 -47 -125 -125 -125zM471 640h12l-428 -654h-12z" />
    <glyph glyph-name="questiondown" unicode="&#xbf;" horiz-adv-x="321" 
d="M168 507c-39 0 -67 30 -67 65s28 66 67 66c37 0 67 -30 67 -66c0 -35 -30 -65 -67 -65zM229 -13c-126 0 -198 111 -198 215c0 67 19 93 78 117c67 25 95 35 95 62s-15 41 -43 64l6 4c43 -32 89 -88 89 -123c0 -52 -45 -71 -113 -95c-75 -25 -98 -41 -98 -66
c0 -41 47 -80 150 -80c35 0 62 5 82 12c13 -12 22 -31 25 -55c3 -32 -18 -55 -73 -55z" />
    <glyph glyph-name="grave" unicode="`" horiz-adv-x="400" 
d="M39 677h116l102 -187h-5z" />
    <glyph glyph-name="acute" unicode="&#xb4;" horiz-adv-x="400" 
d="M245 677h116l-213 -187h-5z" />
    <glyph glyph-name="circumflex" unicode="&#x2c6;" horiz-adv-x="370" 
d="M183 677h4l145 -197h-6l-140 96h-2l-140 -96h-6z" />
    <glyph glyph-name="tilde" unicode="&#x2dc;" horiz-adv-x="390" 
d="M274 497c-61 0 -144 63 -188 63c-21 0 -38 -1 -43 -54h-6c8 93 25 123 79 123c61 0 145 -62 187 -62c22 0 40 2 45 53h5c-8 -91 -25 -123 -79 -123z" />
    <glyph glyph-name="macron" unicode="&#xaf;" horiz-adv-x="369" 
d="M65 564h252l-13 -43h-252z" />
    <glyph glyph-name="breve" unicode="&#x2d8;" horiz-adv-x="390" 
d="M195 485c-79 0 -116 79 -137 182h5c27 -76 77 -106 134 -106s107 30 134 106h5c-21 -103 -56 -182 -141 -182z" />
    <glyph glyph-name="dotaccent" unicode="&#x2d9;" horiz-adv-x="398" 
d="M199 517c-43 0 -67 36 -67 66c0 32 24 68 67 68c45 0 67 -36 67 -68c0 -30 -22 -66 -67 -66z" />
    <glyph glyph-name="dieresis" unicode="&#xa8;" horiz-adv-x="392" 
d="M293 504c-39 0 -59 32 -59 59c0 28 19 61 59 61c41 0 60 -33 60 -61c0 -27 -20 -59 -60 -59zM99 504c-39 0 -60 32 -60 59c0 28 21 61 60 61c41 0 60 -33 60 -61c0 -27 -20 -59 -60 -59z" />
    <glyph glyph-name="ring" unicode="&#x2da;" horiz-adv-x="370" 
d="M185 507c49 0 79 37 79 81c0 43 -30 81 -79 81s-79 -38 -79 -81c0 -44 30 -81 79 -81zM185 498c-56 0 -89 41 -89 90c0 48 33 90 89 90s89 -42 89 -90c0 -49 -33 -90 -89 -90z" />
    <glyph glyph-name="cedilla" unicode="&#xb8;" horiz-adv-x="388" 
d="M95 -266c97 19 153 40 153 91c0 40 -41 55 -85 55c-27 0 -52 -4 -74 -12v6l112 121h10l-56 -62c88 19 162 -19 162 -76c0 -91 -125 -112 -220 -128z" />
    <glyph glyph-name="hungarumlaut" unicode="&#x2dd;" horiz-adv-x="428" 
d="M343 677h112l-206 -187h-8zM168 677h111l-206 -187h-7z" />
    <glyph glyph-name="ogonek" unicode="&#x2db;" horiz-adv-x="396" 
d="M191 -243c-59 0 -102 42 -102 97c0 82 94 136 168 165h18c-85 -36 -122 -88 -122 -135c0 -51 36 -79 83 -79c31 0 57 16 78 33l3 -3c-19 -29 -71 -78 -126 -78z" />
    <glyph glyph-name="caron" unicode="&#x2c7;" horiz-adv-x="370" 
d="M38 677h6l140 -96h2l140 96h6l-145 -197h-4z" />
    <glyph glyph-name="emdash" unicode="&#x2014;" horiz-adv-x="896" 
d="M7 251h883l1 -34h-887z" />
    <glyph glyph-name="AE" unicode="&#xc6;" horiz-adv-x="866" 
d="M375 278v323h-2l-175 -323h177zM-52 6l37 4c36 5 74 33 144 166l214 393c16 29 15 44 -56 47l-39 2l-3 7h539l10 -204h-6l-4 11c-37 133 -88 185 -208 182l-72 -1v-287h33c88 5 121 28 143 93l6 18l7 -1l-26 -239l-7 1l-1 18c-5 72 -30 93 -131 98l-24 2v-302l83 -4
c128 3 195 78 235 188l5 11h6l-28 -209h-531l3 6l50 4c35 3 48 10 48 17v238h-184l-55 -102c-59 -109 -50 -146 17 -154l25 -3l3 -6h-236z" />
    <glyph glyph-name="ordfeminine" unicode="&#xaa;" horiz-adv-x="351" 
d="M155 334c19 0 35 10 54 29l5 111c-85 -21 -105 -55 -105 -87s19 -53 46 -53zM95 281c-44 0 -77 33 -77 72c0 50 49 91 196 131v28c0 68 -34 100 -83 100c-35 0 -43 -14 -43 -19c0 -7 18 -27 18 -46c0 -23 -20 -42 -47 -42c-25 0 -46 16 -46 39c0 52 114 92 183 92
c76 0 115 -35 111 -120l-6 -140c-1 -31 8 -46 26 -46c15 0 25 8 36 20l4 -2c-19 -28 -49 -67 -92 -67c-37 0 -58 24 -64 72h-1c-36 -45 -72 -72 -115 -72z" />
    <glyph glyph-name="Lslash" unicode="&#x141;" horiz-adv-x="579" 
d="M6 249l2 12l98 32v307c0 7 -6 9 -57 14l-32 3l-3 8h325l-3 -8l-54 -4c-27 -3 -47 -9 -47 -16v-261l101 33l2 -12l-103 -34v-308l74 -6c113 0 162 66 229 207l6 13h8l-32 -229h-507l3 8l43 4c35 3 47 9 47 16v253z" />
    <glyph glyph-name="Oslash" unicode="&#xd8;" horiz-adv-x="739" 
d="M508 555c-36 47 -83 71 -141 71c-132 0 -200 -103 -200 -314c0 -107 22 -188 61 -241zM235 63c35 -43 81 -64 138 -64c131 0 198 102 198 314c0 100 -20 180 -57 233zM544 599c104 -55 168 -156 168 -288c0 -172 -157 -323 -348 -323c-56 0 -107 10 -154 31l-54 -93h-11
l56 97c-108 52 -174 154 -174 289c0 173 158 326 348 326c59 0 113 -12 161 -35l49 85h11z" />
    <glyph glyph-name="OE" unicode="&#x152;" horiz-adv-x="952" 
d="M457 12v588l-67 14c-148 0 -224 -135 -224 -287c0 -188 73 -315 238 -315h53zM379 0c-235 0 -352 117 -352 307c0 175 145 318 370 318h474l10 -204h-6l-4 11c-37 133 -102 185 -223 182l-62 -1v-287h33c89 5 126 28 148 93l6 18l7 -1l-26 -239l-7 1l-1 18
c-5 72 -34 93 -136 98l-24 2v-302l88 -4c128 3 195 78 235 188l5 11h6l-28 -209h-513z" />
    <glyph glyph-name="ordmasculine" unicode="&#xba;" horiz-adv-x="405" 
d="M200 284c56 0 85 78 85 169c0 84 -14 131 -35 154c-15 16 -31 20 -47 20c-61 0 -87 -78 -87 -169c0 -84 13 -131 37 -155c15 -15 31 -19 47 -19zM200 276c-114 0 -189 80 -189 177c0 100 81 182 193 182c114 0 188 -81 188 -177c0 -101 -77 -182 -192 -182z" />
    <glyph glyph-name="ae" unicode="&#xe6;" horiz-adv-x="688" 
d="M553 300c0 61 -16 131 -71 131c-45 0 -85 -56 -96 -133zM191 52c29 0 53 14 92 55c-12 28 -16 77 -16 116c0 5 0 11 1 16c-109 -27 -134 -66 -134 -117c0 -40 29 -70 57 -70zM125 -11c-57 0 -102 46 -102 95c0 70 53 119 245 167l1 34c3 84 -36 131 -100 131
c-37 0 -62 -15 -62 -26c0 -8 30 -33 30 -59c0 -29 -23 -52 -58 -52c-31 0 -56 17 -56 48c0 64 128 115 219 115c51 0 84 -13 104 -52c31 28 78 53 147 53c115 0 171 -70 171 -141c0 -7 -1 -10 -2 -17c-46 0 -88 0 -127 1c-67 0 -135 2 -151 2c-3 -13 -1 -35 -1 -48
c0 -112 61 -183 152 -183c57 0 98 20 129 79l7 -4c-43 -92 -110 -143 -202 -143c-88 0 -152 43 -180 110c-61 -72 -112 -110 -164 -110z" />
    <glyph glyph-name="dotlessi" unicode="&#x131;" horiz-adv-x="263" 
d="M19 6l15 1c31 3 42 4 42 16v280c0 62 -6 71 -41 79l-23 5l1 4l176 48v-418c0 -8 6 -10 51 -14l11 -1l3 -6h-238z" />
    <glyph glyph-name="lslash" unicode="&#x142;" horiz-adv-x="256" 
d="M1 236l2 13l68 22v268c0 61 -6 71 -41 79l-22 6l1 4l176 45v-365l69 23l2 -11l-71 -23v-275c0 -8 5 -7 50 -14l9 -1l3 -7h-233l3 7l12 1c31 3 42 4 42 16v235z" />
    <glyph glyph-name="oslash" unicode="&#xf8;" horiz-adv-x="516" 
d="M345 367c-33 -57 -62 -108 -88 -153c-43 -77 -89 -153 -89 -153c7 -15 16 -29 27 -41c16 -16 37 -24 62 -24c73 0 113 94 113 213c0 71 -9 122 -25 158zM164 73c0 -1 46 77 89 152l88 152c-7 13 -14 24 -22 31c-16 15 -34 26 -61 26c-76 0 -113 -97 -113 -212
c0 -65 7 -114 19 -149zM132 16c-72 40 -113 113 -113 198c0 125 99 228 241 228c39 0 75 -8 106 -21l91 158h11l-94 -162c77 -37 123 -112 123 -200c0 -129 -98 -231 -241 -231c-44 0 -83 9 -116 26c-16 -28 -36 -64 -52 -92c-9 -17 -19 -33 -29 -49h-11c9 16 19 33 29 50
c17 29 38 64 55 95z" />
    <glyph glyph-name="oe" unicode="&#x153;" horiz-adv-x="795" 
d="M660 300c0 61 -14 131 -70 131c-45 0 -84 -56 -95 -133zM257 -8c73 0 112 96 112 217c0 107 -20 168 -49 199c-16 16 -35 26 -62 26c-76 0 -112 -96 -112 -216c0 -107 20 -168 49 -199c17 -18 38 -27 62 -27zM257 -16c-144 0 -238 102 -238 227c0 127 98 232 242 232
c75 0 134 -28 174 -72c40 44 97 72 166 72c115 0 171 -70 171 -141c0 -7 -1 -10 -2 -17c-47 0 -89 0 -127 1c-65 0 -134 2 -150 2c-3 -13 -2 -35 -2 -48c0 -111 61 -185 152 -185c57 0 98 21 129 78l7 -3c-43 -92 -106 -145 -202 -145c-67 0 -110 27 -149 68
c-41 -43 -99 -69 -171 -69z" />
    <glyph glyph-name="germandbls" unicode="&#xdf;" horiz-adv-x="555" 
d="M357 420c94 -45 176 -141 176 -242c0 -98 -83 -189 -176 -189c-69 0 -112 33 -112 78c0 35 26 61 59 61c72 0 66 -90 17 -103c3 -11 17 -26 45 -26c43 0 72 32 72 100c0 103 -63 221 -194 296v6c84 22 124 52 124 139c0 64 -35 112 -84 112c-64 0 -87 -34 -87 -146v-506
h-176l3 9l18 1c31 3 42 2 42 14v352l-79 1l23 50l56 -1l3 56c8 113 101 181 203 181c120 0 187 -50 187 -129c0 -65 -51 -101 -120 -114z" />
    <glyph glyph-name="trademark" unicode="&#x2122;" horiz-adv-x="412" 
d="M190 471h5c17 0 18 2 19 21l3 116c-7 11 -12 12 -19 13l-8 1l-1 3h63l39 -105h1l40 105h65l-1 -3l-12 -1c-8 -1 -12 -2 -12 -4l4 -142c0 -3 2 0 14 -3l8 -1l1 -3h-86v3l12 1c7 1 10 2 10 4l-2 137h-1l-55 -145h-4l-52 135h-1l-2 -114c0 -16 4 -18 23 -18h5l1 -3h-58z
M57 471l11 1c7 1 11 2 11 4v146h-7c-23 0 -40 -27 -49 -46l-2 -4h-3l7 53h149l5 -53h-2l-2 4c-11 21 -24 46 -47 46h-9v-147c0 -3 1 0 14 -3l7 -1v-3h-83v3z" />
    <glyph glyph-name="Eth" unicode="&#xd0;" horiz-adv-x="688" 
d="M360 321l3 -14h-130v-278l67 -18c148 0 224 136 224 288c0 188 -73 315 -238 315h-53v-293h127zM15 307l3 14h86v280c0 7 -21 11 -57 15l-33 3l-3 6c57 1 108 1 153 1h147c235 3 352 -119 352 -307c0 -176 -145 -319 -370 -319h-283l3 6l44 4c35 4 47 10 47 17v280h-89z
" />
    <glyph glyph-name="plusminus" unicode="&#xb1;" horiz-adv-x="347" 
d="M40 6l27 1c32 1 48 3 48 15v433c0 8 -12 10 -53 13l-23 1l-3 6h274l-3 -6l-27 -1c-32 -3 -48 -3 -48 -15v-433c0 -8 12 -10 53 -13l23 -1l3 -6h-274z" />
    <glyph glyph-name="Thorn" unicode="&#xde;" horiz-adv-x="593" 
d="M291 171c80 0 136 60 136 152c0 100 -44 157 -145 158l-44 -2v-302c11 -3 22 -6 53 -6zM18 8l44 4c35 3 47 9 47 16v572c0 7 -6 9 -57 14l-33 3l-3 8h315l-3 -8l-43 -4c-35 -3 -47 -9 -47 -16v-106h62c179 0 264 -56 264 -157c0 -104 -106 -176 -270 -176
c-26 0 -45 2 -56 5v-138c0 -7 6 -11 57 -14l43 -3l3 -8h-326z" />
    <glyph glyph-name="divide" unicode="&#xf7;" horiz-adv-x="558" 
d="M278 -2c137 0 240 101 240 244c0 141 -101 242 -238 242c-136 0 -239 -104 -239 -245c0 -143 101 -241 237 -241zM278 -11c-143 0 -247 101 -247 250c0 147 106 254 249 254c144 0 248 -104 248 -251c0 -149 -107 -253 -250 -253z" />
    <glyph glyph-name="degree" unicode="&#xb0;" horiz-adv-x="284" 
d="M142 397c69 0 114 51 114 116c0 64 -45 118 -114 118c-68 0 -112 -54 -112 -118c0 -65 43 -116 112 -116zM142 387c-76 0 -124 58 -124 126s47 128 124 128s124 -60 124 -128s-47 -126 -124 -126z" />
    <glyph glyph-name="thorn" unicode="&#xfe;" horiz-adv-x="515" 
d="M272 -3c65 0 100 89 100 197c0 100 -46 179 -122 179c-39 0 -68 -19 -92 -42v-237c25 -56 71 -97 114 -97zM-14 -245l18 1c31 3 42 3 42 15v786c0 43 -6 53 -41 61l-23 6l1 4l175 44v-323l3 -3c40 51 93 91 157 91c99 0 178 -89 178 -213c0 -162 -132 -238 -238 -238
c-41 0 -74 7 -97 18h-3v-236c0 -7 6 -11 51 -12l35 -1l3 -8h-264z" />
    <glyph glyph-name="registered" unicode="&#xae;" horiz-adv-x="704" 
d="M339 320c51 0 82 32 82 88c0 57 -40 87 -104 84l-25 -1v-161c16 -5 32 -9 47 -10zM160 131l26 2c17 3 29 7 29 10v341c0 4 -4 5 -35 8l-19 2l-2 6h172c114 0 171 -32 171 -97c0 -43 -37 -81 -93 -94l75 -117c29 -48 44 -55 78 -60l7 -1l2 -6h-138l-5 11l-100 175
c-11 3 -24 6 -36 11v-181c0 -3 11 -5 34 -8l22 -2l2 -6h-192zM352 -5c175 0 317 143 317 318c0 176 -142 319 -317 319s-317 -143 -317 -319c0 -175 142 -318 317 -318zM352 -14c-181 0 -327 146 -327 327c0 180 146 328 327 328s327 -148 327 -328
c0 -181 -146 -327 -327 -327z" />
    <glyph glyph-name="eth" unicode="&#xf0;" horiz-adv-x="507" 
d="M253 -3c73 0 109 72 109 215c0 136 -42 225 -111 225c-68 0 -106 -85 -106 -212c0 -160 35 -228 108 -228zM82 510l2 12l115 37c-39 27 -86 44 -141 53l1 7c72 -5 134 -21 187 -44c1 0 30 8 59 19c17 6 37 12 58 19l2 -12l-103 -33c148 -72 226 -201 226 -323
c0 -152 -95 -256 -236 -256s-233 99 -233 226c0 128 98 230 234 230c20 0 39 -1 56 -4c-25 43 -57 79 -98 110z" />
    <glyph glyph-name="copyright" unicode="&#xa9;" horiz-adv-x="704" 
d="M365 116c-131 0 -217 85 -217 193c0 109 82 198 222 198c39 0 78 -10 97 -22l39 12l4 -120h-3l-62 102c-15 13 -42 22 -75 22c-89 0 -138 -82 -138 -188c0 -116 60 -191 136 -191c67 0 102 34 133 93l19 34h3l-20 -106l-20 -4c-22 -11 -78 -23 -118 -23zM352 -5
c175 0 317 143 317 318c0 176 -142 319 -317 319s-317 -143 -317 -319c0 -175 142 -318 317 -318zM352 -14c-181 0 -327 146 -327 327c0 180 146 328 327 328s327 -148 327 -328c0 -181 -146 -327 -327 -327z" />
    <glyph glyph-name="Aacute" unicode="&#xc1;" 
d="M180 269l-36 -101c-48 -139 -53 -149 43 -160l20 -2l3 -6h-220l3 6l17 2c64 8 74 21 138 200l112 314l-11 32c44 13 66 43 85 88h18l172 -505c38 -108 54 -126 98 -129l28 -2l2 -6h-313l3 6l27 2c51 3 52 27 31 91l-56 170h-164zM341 279l-75 228h-1l-81 -228h157z
M377 844h116l-213 -187h-5z" />
    <glyph glyph-name="Acircumflex" unicode="&#xc2;" 
d="M180 269l-36 -101c-48 -139 -53 -149 43 -160l20 -2l3 -6h-220l3 6l17 2c64 8 74 21 138 200l112 314l-11 32c44 13 66 43 85 88h18l172 -505c38 -108 54 -126 98 -129l28 -2l2 -6h-313l3 6l27 2c51 3 52 27 31 91l-56 170h-164zM341 279l-75 228h-1l-81 -228h157z
M331 844h4l145 -197h-6l-140 96h-2l-140 -96h-6z" />
    <glyph glyph-name="Adieresis" unicode="&#xc4;" 
d="M180 269l-36 -101c-48 -139 -53 -149 43 -160l20 -2l3 -6h-220l3 6l17 2c64 8 74 21 138 200l112 314l-11 32c44 13 66 43 85 88h18l172 -505c38 -108 54 -126 98 -129l28 -2l2 -6h-313l3 6l27 2c51 3 52 27 31 91l-56 170h-164zM341 279l-75 228h-1l-81 -228h157z
M426 671c-39 0 -59 32 -59 59c0 28 19 61 59 61c41 0 60 -33 60 -61c0 -27 -20 -59 -60 -59zM232 671c-39 0 -60 32 -60 59c0 28 21 61 60 61c41 0 60 -33 60 -61c0 -27 -20 -59 -60 -59z" />
    <glyph glyph-name="Agrave" unicode="&#xc0;" 
d="M180 269l-36 -101c-48 -139 -53 -149 43 -160l20 -2l3 -6h-220l3 6l17 2c64 8 74 21 138 200l112 314l-11 32c44 13 66 43 85 88h18l172 -505c38 -108 54 -126 98 -129l28 -2l2 -6h-313l3 6l27 2c51 3 52 27 31 91l-56 170h-164zM341 279l-75 228h-1l-81 -228h157z
M141 844h116l102 -187h-5z" />
    <glyph glyph-name="Aring" unicode="&#xc5;" 
d="M326 622c49 0 79 37 79 81c0 43 -30 81 -79 81s-79 -38 -79 -81c0 -44 30 -81 79 -81zM180 267l-36 -99c-48 -139 -53 -149 43 -160l20 -2l3 -6h-220l3 6l17 2c65 8 74 21 138 200l147 412c-37 12 -58 46 -58 83c0 48 33 90 89 90s89 -42 89 -90c0 -37 -20 -70 -55 -83
c0 1 41 -121 82 -241l82 -242c38 -108 54 -126 98 -129l28 -2l2 -6h-313l3 6l27 2c51 3 52 27 31 91l-55 168h-165zM341 279l-75 228h-1l-81 -228h157z" />
    <glyph glyph-name="Atilde" unicode="&#xc3;" 
d="M180 269l-36 -101c-48 -139 -53 -149 43 -160l20 -2l3 -6h-220l3 6l17 2c64 8 74 21 138 200l112 314l-11 32c44 13 66 43 85 88h18l172 -505c38 -108 54 -126 98 -129l28 -2l2 -6h-313l3 6l27 2c51 3 52 27 31 91l-56 170h-164zM341 279l-75 228h-1l-81 -228h157z
M408 664c-61 0 -144 63 -188 63c-21 0 -38 -1 -43 -54h-6c8 93 25 123 79 123c61 0 145 -62 187 -62c22 0 40 2 45 53h5c-8 -91 -25 -123 -79 -123z" />
    <glyph glyph-name="Ccedilla" unicode="&#xc7;" horiz-adv-x="685" 
d="M388 -12c-218 0 -361 137 -361 320c0 184 137 331 372 331c63 0 128 -19 161 -38l64 21l6 -201h-6l-101 177c-21 15 -70 29 -126 29c-148 0 -230 -137 -230 -313c0 -193 101 -315 226 -315c111 0 173 55 222 150l31 59h6l-34 -177l-33 -5c-33 -15 -119 -35 -186 -38
l-50 -55c88 19 162 -19 162 -76c0 -91 -125 -112 -220 -128l-2 5c97 19 153 40 153 91c0 40 -41 55 -85 55c-27 0 -52 -4 -74 -12v6l106 114h-1z" />
    <glyph glyph-name="Eacute" unicode="&#xc9;" horiz-adv-x="609" 
d="M20 6l35 4c35 4 49 10 49 17v574c0 7 -6 10 -57 15l-26 3l-3 6h510l10 -204h-6l-4 11c-37 133 -98 185 -218 182l-77 -1v-287h43c89 5 126 28 148 93l6 18l7 -1l-26 -239l-7 1l-1 18c-5 72 -34 93 -136 98l-34 2v-302l98 -4c128 3 195 78 235 188l5 11h6l-28 -209h-532z
M356 844h116l-213 -187h-5z" />
    <glyph glyph-name="Ecircumflex" unicode="&#xca;" horiz-adv-x="609" 
d="M20 6l35 4c35 4 49 10 49 17v574c0 7 -6 10 -57 15l-26 3l-3 6h510l10 -204h-6l-4 11c-37 133 -98 185 -218 182l-77 -1v-287h43c89 5 126 28 148 93l6 18l7 -1l-26 -239l-7 1l-1 18c-5 72 -34 93 -136 98l-34 2v-302l98 -4c128 3 195 78 235 188l5 11h6l-28 -209h-532z
M309 844h4l145 -197h-6l-140 96h-2l-140 -96h-6z" />
    <glyph glyph-name="Edieresis" unicode="&#xcb;" horiz-adv-x="609" 
d="M20 6l35 4c35 4 49 10 49 17v574c0 7 -6 10 -57 15l-26 3l-3 6h510l10 -204h-6l-4 11c-37 133 -98 185 -218 182l-77 -1v-287h43c89 5 126 28 148 93l6 18l7 -1l-26 -239l-7 1l-1 18c-5 72 -34 93 -136 98l-34 2v-302l98 -4c128 3 195 78 235 188l5 11h6l-28 -209h-532z
M405 671c-39 0 -59 32 -59 59c0 28 19 61 59 61c41 0 60 -33 60 -61c0 -27 -20 -59 -60 -59zM211 671c-39 0 -60 32 -60 59c0 28 21 61 60 61c41 0 60 -33 60 -61c0 -27 -20 -59 -60 -59z" />
    <glyph glyph-name="Egrave" unicode="&#xc8;" horiz-adv-x="609" 
d="M20 6l35 4c35 4 49 10 49 17v574c0 7 -6 10 -57 15l-26 3l-3 6h510l10 -204h-6l-4 11c-37 133 -98 185 -218 182l-77 -1v-287h43c89 5 126 28 148 93l6 18l7 -1l-26 -239l-7 1l-1 18c-5 72 -34 93 -136 98l-34 2v-302l98 -4c128 3 195 78 235 188l5 11h6l-28 -209h-532z
M140 844h116l102 -187h-5z" />
    <glyph glyph-name="Iacute" unicode="&#xcd;" horiz-adv-x="361" 
d="M30 6l39 4c35 3 47 10 47 17v574c0 7 -6 10 -57 15l-29 3l-3 6h307l-3 -6l-39 -4c-35 -3 -47 -10 -47 -17v-574c0 -7 6 -10 57 -15l28 -3l3 -6h-306zM235 844h116l-213 -187h-5z" />
    <glyph glyph-name="Icircumflex" unicode="&#xce;" horiz-adv-x="361" 
d="M30 6l39 4c35 3 47 10 47 17v574c0 7 -6 10 -57 15l-29 3l-3 6h307l-3 -6l-39 -4c-35 -3 -47 -10 -47 -17v-574c0 -7 6 -10 57 -15l28 -3l3 -6h-306zM180 844h4l145 -197h-6l-140 96h-2l-140 -96h-6z" />
    <glyph glyph-name="Idieresis" unicode="&#xcf;" horiz-adv-x="361" 
d="M30 6l39 4c35 3 47 10 47 17v574c0 7 -6 10 -57 15l-29 3l-3 6h307l-3 -6l-39 -4c-35 -3 -47 -10 -47 -17v-574c0 -7 6 -10 57 -15l28 -3l3 -6h-306zM279 671c-39 0 -59 32 -59 59c0 28 19 61 59 61c41 0 60 -33 60 -61c0 -27 -20 -59 -60 -59zM85 671
c-39 0 -60 32 -60 59c0 28 21 61 60 61c41 0 60 -33 60 -61c0 -27 -20 -59 -60 -59z" />
    <glyph glyph-name="Igrave" unicode="&#xcc;" horiz-adv-x="361" 
d="M30 6l39 4c35 3 47 10 47 17v574c0 7 -6 10 -57 15l-29 3l-3 6h307l-3 -6l-39 -4c-35 -3 -47 -10 -47 -17v-574c0 -7 6 -10 57 -15l28 -3l3 -6h-306zM14 844h116l102 -187h-5z" />
    <glyph glyph-name="Ntilde" unicode="&#xd1;" horiz-adv-x="699" 
d="M127 535h-1l1 -491c0 -17 19 -32 90 -37l19 -1l3 -6h-221l3 6l20 1c56 4 73 25 73 45l3 494c-27 36 -61 65 -108 72l-11 1l-2 6h230l356 -427h1l-1 382c0 17 -19 33 -90 38l-18 1l-3 6h220l-3 -6l-20 -1c-56 -4 -73 -26 -73 -46l-4 -578h-10zM450 664
c-61 0 -144 63 -188 63c-21 0 -38 -1 -43 -54h-6c8 93 25 123 79 123c61 0 145 -62 187 -62c22 0 40 2 45 53h5c-8 -91 -25 -123 -79 -123z" />
    <glyph glyph-name="Oacute" unicode="&#xd3;" horiz-adv-x="739" 
d="M373 -1c131 0 198 102 198 314c0 199 -77 313 -204 313c-132 0 -200 -103 -200 -314c0 -201 77 -313 206 -313zM364 -12c-196 0 -337 130 -337 324c0 173 158 326 348 326c196 0 337 -133 337 -327c0 -172 -157 -323 -348 -323zM432 844h116l-213 -187h-5z" />
    <glyph glyph-name="Ocircumflex" unicode="&#xd4;" horiz-adv-x="739" 
d="M373 -1c131 0 198 102 198 314c0 199 -77 313 -204 313c-132 0 -200 -103 -200 -314c0 -201 77 -313 206 -313zM364 -12c-196 0 -337 130 -337 324c0 173 158 326 348 326c196 0 337 -133 337 -327c0 -172 -157 -323 -348 -323zM369 844h4l145 -197h-6l-140 96h-2
l-140 -96h-6z" />
    <glyph glyph-name="Odieresis" unicode="&#xd6;" horiz-adv-x="739" 
d="M373 -1c131 0 198 102 198 314c0 199 -77 313 -204 313c-132 0 -200 -103 -200 -314c0 -201 77 -313 206 -313zM364 -12c-196 0 -337 130 -337 324c0 173 158 326 348 326c196 0 337 -133 337 -327c0 -172 -157 -323 -348 -323zM466 671c-39 0 -59 32 -59 59
c0 28 19 61 59 61c41 0 60 -33 60 -61c0 -27 -20 -59 -60 -59zM272 671c-39 0 -60 32 -60 59c0 28 21 61 60 61c41 0 60 -33 60 -61c0 -27 -20 -59 -60 -59z" />
    <glyph glyph-name="Ograve" unicode="&#xd2;" horiz-adv-x="739" 
d="M373 -1c131 0 198 102 198 314c0 199 -77 313 -204 313c-132 0 -200 -103 -200 -314c0 -201 77 -313 206 -313zM364 -12c-196 0 -337 130 -337 324c0 173 158 326 348 326c196 0 337 -133 337 -327c0 -172 -157 -323 -348 -323zM191 844h116l102 -187h-5z" />
    <glyph glyph-name="Otilde" unicode="&#xd5;" horiz-adv-x="739" 
d="M373 -1c131 0 198 102 198 314c0 199 -77 313 -204 313c-132 0 -200 -103 -200 -314c0 -201 77 -313 206 -313zM364 -12c-196 0 -337 130 -337 324c0 173 158 326 348 326c196 0 337 -133 337 -327c0 -172 -157 -323 -348 -323zM457 664c-61 0 -144 63 -188 63
c-21 0 -38 -1 -43 -54h-6c8 93 25 123 79 123c61 0 145 -62 187 -62c22 0 40 2 45 53h5c-8 -91 -25 -123 -79 -123z" />
    <glyph glyph-name="Scaron" unicode="&#x160;" horiz-adv-x="514" 
d="M245 -12c-75 0 -146 14 -199 35l-11 160h6l40 -77c39 -73 91 -108 168 -108c84 0 134 50 134 129c0 87 -69 117 -155 149c-93 35 -173 75 -173 178c0 101 83 184 206 184c56 0 107 -14 140 -25l40 14l3 -174h-5l-84 147c-23 16 -51 28 -96 28c-65 0 -113 -43 -113 -103
c0 -75 68 -103 148 -132c103 -34 182 -83 182 -198c0 -106 -95 -207 -231 -207zM118 859h6l140 -96h2l140 96h6l-145 -197h-4z" />
    <glyph glyph-name="Uacute" unicode="&#xda;" horiz-adv-x="697" 
d="M361 -16c-183 0 -260 66 -260 219v400c0 7 -5 9 -56 13l-34 3l-3 6h316l-3 -6l-44 -4c-35 -3 -47 -8 -47 -15v-368c0 -137 59 -200 178 -200s183 68 183 216l-1 332c0 17 -19 34 -90 39h-19l-3 6h220l-3 -6h-19c-56 -4 -73 -27 -73 -47l-2 -326
c-3 -167 -68 -262 -240 -262zM440 844h116l-213 -187h-5z" />
    <glyph glyph-name="Ucircumflex" unicode="&#xdb;" horiz-adv-x="697" 
d="M361 -16c-183 0 -260 66 -260 219v400c0 7 -5 9 -56 13l-34 3l-3 6h316l-3 -6l-44 -4c-35 -3 -47 -8 -47 -15v-368c0 -137 59 -200 178 -200s183 68 183 216l-1 332c0 17 -19 34 -90 39h-19l-3 6h220l-3 -6h-19c-56 -4 -73 -27 -73 -47l-2 -326
c-3 -167 -68 -262 -240 -262zM378 844h4l145 -197h-6l-140 96h-2l-140 -96h-6z" />
    <glyph glyph-name="Udieresis" unicode="&#xdc;" horiz-adv-x="697" 
d="M361 -16c-183 0 -260 66 -260 219v400c0 7 -5 9 -56 13l-34 3l-3 6h316l-3 -6l-44 -4c-35 -3 -47 -8 -47 -15v-368c0 -137 59 -200 178 -200s183 68 183 216l-1 332c0 17 -19 34 -90 39h-19l-3 6h220l-3 -6h-19c-56 -4 -73 -27 -73 -47l-2 -326
c-3 -167 -68 -262 -240 -262zM487 671c-39 0 -59 32 -59 59c0 28 19 61 59 61c41 0 60 -33 60 -61c0 -27 -20 -59 -60 -59zM293 671c-39 0 -60 32 -60 59c0 28 21 61 60 61c41 0 60 -33 60 -61c0 -27 -20 -59 -60 -59z" />
    <glyph glyph-name="Ugrave" unicode="&#xd9;" horiz-adv-x="697" 
d="M361 -16c-183 0 -260 66 -260 219v400c0 7 -5 9 -56 13l-34 3l-3 6h316l-3 -6l-44 -4c-35 -3 -47 -8 -47 -15v-368c0 -137 59 -200 178 -200s183 68 183 216l-1 332c0 17 -19 34 -90 39h-19l-3 6h220l-3 -6h-19c-56 -4 -73 -27 -73 -47l-2 -326
c-3 -167 -68 -262 -240 -262zM194 844h116l102 -187h-5z" />
    <glyph glyph-name="Yacute" unicode="&#xdd;" horiz-adv-x="647" 
d="M168 6l44 4c35 3 47 10 47 17v259l-134 237c-41 70 -53 89 -99 94l-21 2l-3 6h310l-3 -6l-17 -1c-64 -5 -68 -23 -44 -64l132 -236h2l75 140c69 130 71 150 -18 158l-22 3l-3 6h228l-3 -6l-28 -3c-50 -5 -72 -24 -144 -162l-79 -146v-284c0 -7 6 -10 57 -15l33 -3l3 -6
h-316zM410 844h116l-213 -187h-5z" />
    <glyph glyph-name="Ydieresis" unicode="&#x178;" horiz-adv-x="647" 
d="M168 6l44 4c35 3 47 10 47 17v259l-134 237c-41 70 -53 89 -99 94l-21 2l-3 6h310l-3 -6l-17 -1c-64 -5 -68 -23 -44 -64l132 -236h2l75 140c69 130 71 150 -18 158l-22 3l-3 6h228l-3 -6l-28 -3c-50 -5 -72 -24 -144 -162l-79 -146v-284c0 -7 6 -10 57 -15l33 -3l3 -6
h-316zM429 671c-39 0 -59 32 -59 59c0 28 19 61 59 61c41 0 60 -33 60 -61c0 -27 -20 -59 -60 -59zM235 671c-39 0 -60 32 -60 59c0 28 21 61 60 61c41 0 60 -33 60 -61c0 -27 -20 -59 -60 -59z" />
    <glyph glyph-name="Zcaron" unicode="&#x17d;" horiz-adv-x="601" 
d="M30 4l376 607v2l-89 1c-145 0 -211 -66 -251 -175l-4 -11h-7l13 197h490v-5l-383 -604v-3l95 -2c164 -5 227 59 291 210l6 14h7l-33 -235h-511v4zM159 849h6l140 -96h2l140 96h6l-145 -197h-4z" />
    <glyph glyph-name="aacute" unicode="&#xe1;" horiz-adv-x="449" 
d="M195 54c23 0 46 11 67 33l7 153c-107 -24 -135 -63 -135 -114c0 -43 26 -72 61 -72zM345 -11c-47 0 -74 31 -81 86l-1 1c-43 -47 -85 -86 -137 -86c-58 0 -103 46 -103 95c0 70 55 118 245 166l1 34c3 84 -36 131 -100 131c-37 0 -62 -15 -62 -26c0 -8 30 -33 30 -59
c0 -29 -23 -52 -58 -52c-31 0 -56 17 -56 48c0 64 133 115 217 115c109 0 148 -42 143 -155l-9 -187c-3 -37 14 -55 37 -55c16 0 30 14 42 29l6 -3c-22 -28 -64 -82 -114 -82zM278 677h116l-213 -187h-5z" />
    <glyph glyph-name="acircumflex" unicode="&#xe2;" horiz-adv-x="449" 
d="M195 54c23 0 46 11 67 33l7 153c-107 -24 -135 -63 -135 -114c0 -43 26 -72 61 -72zM345 -11c-47 0 -74 31 -81 86l-1 1c-43 -47 -85 -86 -137 -86c-58 0 -103 46 -103 95c0 70 55 118 245 166l1 34c3 84 -36 131 -100 131c-37 0 -62 -15 -62 -26c0 -8 30 -33 30 -59
c0 -29 -23 -52 -58 -52c-31 0 -56 17 -56 48c0 64 133 115 217 115c109 0 148 -42 143 -155l-9 -187c-3 -37 14 -55 37 -55c16 0 30 14 42 29l6 -3c-22 -28 -64 -82 -114 -82zM216 677h4l145 -197h-6l-140 96h-2l-140 -96h-6z" />
    <glyph glyph-name="adieresis" unicode="&#xe4;" horiz-adv-x="449" 
d="M195 54c23 0 46 11 67 33l7 153c-107 -24 -135 -63 -135 -114c0 -43 26 -72 61 -72zM345 -11c-47 0 -74 31 -81 86l-1 1c-43 -47 -85 -86 -137 -86c-58 0 -103 46 -103 95c0 70 55 118 245 166l1 34c3 84 -36 131 -100 131c-37 0 -62 -15 -62 -26c0 -8 30 -33 30 -59
c0 -29 -23 -52 -58 -52c-31 0 -56 17 -56 48c0 64 133 115 217 115c109 0 148 -42 143 -155l-9 -187c-3 -37 14 -55 37 -55c16 0 30 14 42 29l6 -3c-22 -28 -64 -82 -114 -82zM310 504c-39 0 -59 32 -59 59c0 28 19 61 59 61c41 0 60 -33 60 -61c0 -27 -20 -59 -60 -59z
M116 504c-39 0 -60 32 -60 59c0 28 21 61 60 61c41 0 60 -33 60 -61c0 -27 -20 -59 -60 -59z" />
    <glyph glyph-name="agrave" unicode="&#xe0;" horiz-adv-x="449" 
d="M195 54c23 0 46 11 67 33l7 153c-107 -24 -135 -63 -135 -114c0 -43 26 -72 61 -72zM345 -11c-47 0 -74 31 -81 86l-1 1c-43 -47 -85 -86 -137 -86c-58 0 -103 46 -103 95c0 70 55 118 245 166l1 34c3 84 -36 131 -100 131c-37 0 -62 -15 -62 -26c0 -8 30 -33 30 -59
c0 -29 -23 -52 -58 -52c-31 0 -56 17 -56 48c0 64 133 115 217 115c109 0 148 -42 143 -155l-9 -187c-3 -37 14 -55 37 -55c16 0 30 14 42 29l6 -3c-22 -28 -64 -82 -114 -82zM62 677h116l102 -187h-5z" />
    <glyph glyph-name="aring" unicode="&#xe5;" horiz-adv-x="449" 
d="M195 54c23 0 46 11 67 33l7 153c-107 -24 -135 -63 -135 -114c0 -43 26 -72 61 -72zM345 -11c-47 0 -74 31 -81 86l-1 1c-43 -47 -85 -86 -137 -86c-58 0 -103 46 -103 95c0 70 55 118 245 166l1 34c3 84 -36 131 -100 131c-37 0 -62 -15 -62 -26c0 -8 30 -33 30 -59
c0 -29 -23 -52 -58 -52c-31 0 -56 17 -56 48c0 64 133 115 217 115c109 0 148 -42 143 -155l-9 -187c-3 -37 14 -55 37 -55c16 0 30 14 42 29l6 -3c-22 -28 -64 -82 -114 -82zM209 507c49 0 79 37 79 81c0 43 -30 81 -79 81s-79 -38 -79 -81c0 -44 30 -81 79 -81zM209 498
c-56 0 -89 41 -89 90c0 48 33 90 89 90s89 -42 89 -90c0 -49 -33 -90 -89 -90z" />
    <glyph glyph-name="atilde" unicode="&#xe3;" horiz-adv-x="449" 
d="M195 54c23 0 46 11 67 33l7 153c-107 -24 -135 -63 -135 -114c0 -43 26 -72 61 -72zM345 -11c-47 0 -74 31 -81 86l-1 1c-43 -47 -85 -86 -137 -86c-58 0 -103 46 -103 95c0 70 55 118 245 166l1 34c3 84 -36 131 -100 131c-37 0 -62 -15 -62 -26c0 -8 30 -33 30 -59
c0 -29 -23 -52 -58 -52c-31 0 -56 17 -56 48c0 64 133 115 217 115c109 0 148 -42 143 -155l-9 -187c-3 -37 14 -55 37 -55c16 0 30 14 42 29l6 -3c-22 -28 -64 -82 -114 -82zM297 497c-61 0 -144 63 -188 63c-21 0 -38 -1 -43 -54h-6c8 93 25 123 79 123
c61 0 145 -62 187 -62c22 0 40 2 45 53h5c-8 -91 -25 -123 -79 -123z" />
    <glyph glyph-name="ccedilla" unicode="&#xe7;" horiz-adv-x="429" 
d="M226 -15c-120 0 -207 93 -207 216c0 136 96 241 236 241c88 0 159 -39 159 -98c0 -35 -26 -61 -59 -61c-35 0 -60 26 -60 57s25 51 25 60c0 15 -27 31 -58 31c-71 0 -120 -72 -120 -188c0 -121 57 -188 148 -188c57 0 94 21 125 78l7 -3c-40 -85 -95 -136 -175 -144
l-48 -53c88 19 162 -19 162 -76c0 -91 -125 -112 -220 -128l-2 5c97 19 153 40 153 91c0 40 -41 55 -85 55c-27 0 -52 -4 -74 -12v6l103 111h-10z" />
    <glyph glyph-name="eacute" unicode="&#xe9;" horiz-adv-x="445" 
d="M310 299c0 61 -16 132 -71 132c-45 0 -84 -56 -95 -133zM227 -15c-120 0 -208 96 -208 220c0 133 99 238 231 238c115 0 171 -70 171 -141c0 -7 -1 -10 -2 -17c-47 0 -89 0 -128 1c-67 0 -134 2 -149 2c-3 -13 -2 -35 -2 -48c0 -111 61 -185 152 -185c57 0 98 21 129 78
l7 -3c-43 -92 -105 -145 -201 -145zM296 677h116l-213 -187h-5z" />
    <glyph glyph-name="ecircumflex" unicode="&#xea;" horiz-adv-x="445" 
d="M310 299c0 61 -16 132 -71 132c-45 0 -84 -56 -95 -133zM227 -15c-120 0 -208 96 -208 220c0 133 99 238 231 238c115 0 171 -70 171 -141c0 -7 -1 -10 -2 -17c-47 0 -89 0 -128 1c-67 0 -134 2 -149 2c-3 -13 -2 -35 -2 -48c0 -111 61 -185 152 -185c57 0 98 21 129 78
l7 -3c-43 -92 -105 -145 -201 -145zM239 677h4l145 -197h-6l-140 96h-2l-140 -96h-6z" />
    <glyph glyph-name="edieresis" unicode="&#xeb;" horiz-adv-x="445" 
d="M310 299c0 61 -16 132 -71 132c-45 0 -84 -56 -95 -133zM227 -15c-120 0 -208 96 -208 220c0 133 99 238 231 238c115 0 171 -70 171 -141c0 -7 -1 -10 -2 -17c-47 0 -89 0 -128 1c-67 0 -134 2 -149 2c-3 -13 -2 -35 -2 -48c0 -111 61 -185 152 -185c57 0 98 21 129 78
l7 -3c-43 -92 -105 -145 -201 -145zM334 504c-39 0 -59 32 -59 59c0 28 19 61 59 61c41 0 60 -33 60 -61c0 -27 -20 -59 -60 -59zM140 504c-39 0 -60 32 -60 59c0 28 21 61 60 61c41 0 60 -33 60 -61c0 -27 -20 -59 -60 -59z" />
    <glyph glyph-name="egrave" unicode="&#xe8;" horiz-adv-x="445" 
d="M310 299c0 61 -16 132 -71 132c-45 0 -84 -56 -95 -133zM227 -15c-120 0 -208 96 -208 220c0 133 99 238 231 238c115 0 171 -70 171 -141c0 -7 -1 -10 -2 -17c-47 0 -89 0 -128 1c-67 0 -134 2 -149 2c-3 -13 -2 -35 -2 -48c0 -111 61 -185 152 -185c57 0 98 21 129 78
l7 -3c-43 -92 -105 -145 -201 -145zM71 677h116l102 -187h-5z" />
    <glyph glyph-name="iacute" unicode="&#xed;" horiz-adv-x="263" 
d="M19 6l15 1c31 3 42 4 42 16v280c0 62 -6 71 -41 79l-23 5l1 4l176 48v-418c0 -8 6 -10 51 -14l11 -1l3 -6h-238zM182 677h116l-213 -187h-5z" />
    <glyph glyph-name="icircumflex" unicode="&#xee;" horiz-adv-x="263" 
d="M134 677h4l135 -197h-6l-130 95h-2l-131 -95h-5zM19 6l15 1c31 3 42 4 42 16v280c0 62 -6 71 -41 79l-23 5l1 4l176 48v-418c0 -8 6 -10 51 -14l11 -1l3 -6h-238z" />
    <glyph glyph-name="idieresis" unicode="&#xef;" horiz-adv-x="263" 
d="M19 6l15 1c31 3 42 4 42 16v280c0 62 -6 71 -41 79l-23 5l1 4l176 48v-418c0 -8 6 -10 51 -14l11 -1l3 -6h-238zM234 504c-39 0 -59 32 -59 59c0 28 19 61 59 61c41 0 60 -33 60 -61c0 -27 -20 -59 -60 -59zM40 504c-39 0 -60 32 -60 59c0 28 21 61 60 61
c41 0 60 -33 60 -61c0 -27 -20 -59 -60 -59z" />
    <glyph glyph-name="igrave" unicode="&#xec;" horiz-adv-x="263" 
d="M19 6l15 1c31 3 42 4 42 16v280c0 62 -6 71 -41 79l-23 5l1 4l176 48v-418c0 -8 6 -10 51 -14l11 -1l3 -6h-238zM-29 677h116l102 -187h-5z" />
    <glyph glyph-name="ntilde" unicode="&#xf1;" horiz-adv-x="537" 
d="M19 6l15 1c31 3 42 4 42 16v280c0 62 -6 71 -41 79l-23 5l1 4l178 48l-3 -86l2 -1c43 37 104 89 172 89c31 0 58 -11 79 -32c23 -23 32 -65 32 -110v-277c0 -6 2 -10 51 -15l11 -1l3 -6h-236l3 6l18 1c35 3 37 8 37 16v262c0 63 -31 85 -83 85c-39 0 -65 -14 -88 -31
v-152v-166c0 -8 5 -11 44 -14l15 -1l2 -6h-234zM352 497c-61 0 -144 63 -188 63c-21 0 -38 -1 -43 -54h-6c8 93 25 123 79 123c61 0 145 -62 187 -62c22 0 40 2 45 53h5c-8 -91 -25 -123 -79 -123z" />
    <glyph glyph-name="oacute" unicode="&#xf3;" horiz-adv-x="516" 
d="M257 -5c73 0 113 94 113 214c0 104 -20 168 -51 199c-16 15 -34 25 -61 25c-76 0 -113 -96 -113 -211c0 -107 19 -170 50 -202c17 -17 37 -25 62 -25zM256 -14c-144 0 -237 103 -237 228s99 228 241 228c143 0 237 -100 237 -225c0 -129 -98 -231 -241 -231zM318 677h116
l-213 -187h-5z" />
    <glyph glyph-name="ocircumflex" unicode="&#xf4;" horiz-adv-x="516" 
d="M257 -5c73 0 113 94 113 214c0 104 -20 168 -51 199c-16 15 -34 25 -61 25c-76 0 -113 -96 -113 -211c0 -107 19 -170 50 -202c17 -17 37 -25 62 -25zM256 -14c-144 0 -237 103 -237 228s99 228 241 228c143 0 237 -100 237 -225c0 -129 -98 -231 -241 -231zM256 677h4
l145 -197h-6l-140 96h-2l-140 -96h-6z" />
    <glyph glyph-name="odieresis" unicode="&#xf6;" horiz-adv-x="516" 
d="M257 -5c73 0 113 94 113 214c0 104 -20 168 -51 199c-16 15 -34 25 -61 25c-76 0 -113 -96 -113 -211c0 -107 19 -170 50 -202c17 -17 37 -25 62 -25zM256 -14c-144 0 -237 103 -237 228s99 228 241 228c143 0 237 -100 237 -225c0 -129 -98 -231 -241 -231zM355 504
c-39 0 -59 32 -59 59c0 28 19 61 59 61c41 0 60 -33 60 -61c0 -27 -20 -59 -60 -59zM161 504c-39 0 -60 32 -60 59c0 28 21 61 60 61c41 0 60 -33 60 -61c0 -27 -20 -59 -60 -59z" />
    <glyph glyph-name="ograve" unicode="&#xf2;" horiz-adv-x="516" 
d="M257 -5c73 0 113 94 113 214c0 104 -20 168 -51 199c-16 15 -34 25 -61 25c-76 0 -113 -96 -113 -211c0 -107 19 -170 50 -202c17 -17 37 -25 62 -25zM256 -14c-144 0 -237 103 -237 228s99 228 241 228c143 0 237 -100 237 -225c0 -129 -98 -231 -241 -231zM82 677h116
l102 -187h-5z" />
    <glyph glyph-name="otilde" unicode="&#xf5;" horiz-adv-x="516" 
d="M257 -5c73 0 113 94 113 214c0 104 -20 168 -51 199c-16 15 -34 25 -61 25c-76 0 -113 -96 -113 -211c0 -107 19 -170 50 -202c17 -17 37 -25 62 -25zM256 -14c-144 0 -237 103 -237 228s99 228 241 228c143 0 237 -100 237 -225c0 -129 -98 -231 -241 -231zM337 497
c-61 0 -144 63 -188 63c-21 0 -38 -1 -43 -54h-6c8 93 25 123 79 123c61 0 145 -62 187 -62c22 0 40 2 45 53h5c-8 -91 -25 -123 -79 -123z" />
    <glyph glyph-name="scaron" unicode="&#x161;" horiz-adv-x="376" 
d="M173 -14c-60 0 -107 11 -144 26l-6 125h5l24 -43c33 -64 66 -99 126 -99c53 0 85 32 85 79c0 49 -45 74 -105 97c-68 27 -127 54 -127 133c0 84 67 137 160 137c35 0 68 -6 95 -17l39 10l5 -129l-5 -2l-74 106c-16 11 -35 23 -62 23c-48 0 -75 -29 -75 -74
c0 -47 45 -66 105 -89c67 -27 133 -55 133 -138c0 -74 -58 -145 -179 -145zM39 663h6l140 -96h2l140 96h6l-145 -197h-4z" />
    <glyph glyph-name="uacute" unicode="&#xfa;" horiz-adv-x="514" 
d="M344 76h-2c-43 -43 -103 -90 -171 -90c-33 0 -53 11 -76 34s-32 63 -31 110l2 278c0 4 -2 9 -53 12l-14 1l-3 6h183l-2 -285c-1 -61 29 -84 84 -84c36 0 60 13 81 29v154v148c0 24 -8 28 -51 31l-14 1l-3 6h181v-327c0 -39 5 -46 27 -52l37 -8l-1 -4l-176 -52zM317 677
h116l-213 -187h-5z" />
    <glyph glyph-name="ucircumflex" unicode="&#xfb;" horiz-adv-x="514" 
d="M344 76h-2c-43 -43 -103 -90 -171 -90c-33 0 -53 11 -76 34s-32 63 -31 110l2 278c0 4 -2 9 -53 12l-14 1l-3 6h183l-2 -285c-1 -61 29 -84 84 -84c36 0 60 13 81 29v154v148c0 24 -8 28 -51 31l-14 1l-3 6h181v-327c0 -39 5 -46 27 -52l37 -8l-1 -4l-176 -52zM255 677h4
l145 -197h-6l-140 96h-2l-140 -96h-6z" />
    <glyph glyph-name="udieresis" unicode="&#xfc;" horiz-adv-x="514" 
d="M344 76h-2c-43 -43 -103 -90 -171 -90c-33 0 -53 11 -76 34s-32 63 -31 110l2 278c0 4 -2 9 -53 12l-14 1l-3 6h183l-2 -285c-1 -61 29 -84 84 -84c36 0 60 13 81 29v154v148c0 24 -8 28 -51 31l-14 1l-3 6h181v-327c0 -39 5 -46 27 -52l37 -8l-1 -4l-176 -52zM366 504
c-39 0 -59 32 -59 59c0 28 19 61 59 61c41 0 60 -33 60 -61c0 -27 -20 -59 -60 -59zM172 504c-39 0 -60 32 -60 59c0 28 21 61 60 61c41 0 60 -33 60 -61c0 -27 -20 -59 -60 -59z" />
    <glyph glyph-name="ugrave" unicode="&#xf9;" horiz-adv-x="514" 
d="M344 76h-2c-43 -43 -103 -90 -171 -90c-33 0 -53 11 -76 34s-32 63 -31 110l2 278c0 4 -2 9 -53 12l-14 1l-3 6h183l-2 -285c-1 -61 29 -84 84 -84c36 0 60 13 81 29v154v148c0 24 -8 28 -51 31l-14 1l-3 6h181v-327c0 -39 5 -46 27 -52l37 -8l-1 -4l-176 -52zM81 677
h116l102 -187h-5z" />
    <glyph glyph-name="yacute" unicode="&#xfd;" horiz-adv-x="478" 
d="M95 -256c-33 0 -68 21 -68 61c0 31 25 57 58 57c41 0 61 -29 66 -57c27 5 39 31 58 82l37 104h-13l-166 371c-21 47 -26 55 -59 58l-16 1l-3 6h251l-3 -6l-17 -1c-40 -3 -46 -13 -31 -48l106 -246l61 170c37 100 29 115 -40 123l-14 2l-3 6h177l-3 -6l-16 -2
c-45 -3 -50 -18 -92 -132l-106 -287l-41 -122c-29 -91 -66 -134 -123 -134zM305 643h110l-202 -178h-5z" />
    <glyph glyph-name="ydieresis" unicode="&#xff;" horiz-adv-x="478" 
d="M95 -256c-33 0 -68 21 -68 61c0 31 25 57 58 57c41 0 61 -29 66 -57c27 5 39 31 58 82l37 104h-13l-166 371c-21 47 -26 55 -59 58l-16 1l-3 6h251l-3 -6l-17 -1c-40 -3 -46 -13 -31 -48l106 -246l61 170c37 100 29 115 -40 123l-14 2l-3 6h177l-3 -6l-16 -2
c-45 -3 -50 -18 -92 -132l-106 -287l-41 -122c-29 -91 -66 -134 -123 -134zM341 504c-39 0 -59 32 -59 59c0 28 19 61 59 61c41 0 60 -33 60 -61c0 -27 -20 -59 -60 -59zM147 504c-39 0 -60 32 -60 59c0 28 21 61 60 61c41 0 60 -33 60 -61c0 -27 -20 -59 -60 -59z" />
    <glyph glyph-name="zcaron" unicode="&#x17e;" horiz-adv-x="438" 
d="M19 4l253 413l-45 -1c-99 -3 -133 -40 -165 -112l-19 -41h-5v164h368v-4l-259 -412l45 -1c107 3 168 62 203 129l14 27h5l-30 -166h-365v4zM76 658h6l140 -96h2l140 96h6l-145 -197h-4z" />
    <glyph glyph-name="pi" unicode="&#x3c0;" horiz-adv-x="704" 
d="M369 296c49 0 83 39 83 95c0 60 -26 96 -87 97l-30 -1v-186c9 -3 18 -5 34 -5zM203 126l27 1c21 3 28 7 28 11v341c0 5 -5 5 -34 8l-20 2l-2 6h173c108 0 159 -36 159 -99s-63 -107 -163 -107c-15 0 -25 1 -36 4v-157c0 -4 4 -5 35 -8l25 -2l2 -6h-195zM352 -5
c175 0 317 143 317 318c0 176 -142 319 -317 319s-317 -143 -317 -319c0 -175 142 -318 317 -318zM352 -14c-181 0 -327 146 -327 327c0 180 146 328 327 328s327 -148 327 -328c0 -181 -146 -327 -327 -327z" />
    <glyph glyph-name="Omega" unicode="&#x2126;" horiz-adv-x="595" 
d="M376 549c-9 -5 -19 -8 -30 -8c-41 0 -67 38 -71 90l-21 6c-39 -12 -57 -48 -57 -144v-66l158 -1l3 57c2 24 8 46 18 66zM402 588c43 48 107 74 168 74c63 0 84 -26 84 -55c0 -27 -24 -52 -55 -52c-35 0 -58 28 -69 76l-1 8l-17 4c-36 -14 -44 -47 -44 -142v-74h124
l-17 -49h-107v-357c0 -8 6 -13 51 -14l34 -1l2 -6h-258l2 6l18 1c35 3 38 4 38 16v358h-158v-360c0 -8 4 -11 43 -14l22 -1l3 -6h-244l3 6l18 1c31 3 42 4 42 16v356l-79 1l23 47l56 -1l2 36c13 140 128 191 230 191c56 0 86 -25 86 -60v-5z" />
    <glyph glyph-name="radical" unicode="&#x221a;" horiz-adv-x="812" 
d="M382 554c-10 -9 -22 -13 -37 -13c-39 0 -65 34 -70 90l-21 6c-39 -12 -57 -48 -57 -144v-66l158 -1l3 49c3 29 11 56 24 79zM739 672v-651c0 -8 6 -9 51 -14l11 -1l3 -6h-235l3 6l17 1c33 3 37 4 37 16v358h-158v-360c0 -8 4 -11 43 -14l24 -1l2 -6h-240l2 6l18 1
c35 3 38 4 38 16v358h-158v-360c0 -8 4 -11 43 -14l22 -1l3 -6h-244l3 6l18 1c31 3 42 4 42 16v356l-79 1l23 47l56 -1l2 36c13 140 128 191 230 191c56 0 86 -25 86 -60c0 -5 -1 -10 -3 -15c48 59 127 90 200 90c29 0 52 -7 68 -21zM626 560c-43 5 -68 46 -71 82l-24 7
c-45 -13 -63 -55 -63 -158v-64h158v133z" />
    <glyph glyph-name="approxequal" unicode="&#x2248;" horiz-adv-x="815" 
d="M385 557c-11 -11 -24 -16 -40 -16c-42 0 -67 47 -70 90l-21 6c-39 -12 -57 -48 -57 -144v-66l158 -1l3 49c3 31 12 58 27 82zM398 575c49 60 131 93 206 93c59 0 95 -28 95 -67c0 -31 -27 -58 -58 -58c-48 0 -76 48 -81 99l-24 7c-45 -13 -68 -52 -68 -155v-67h210l61 12
v-418c0 -8 6 -10 51 -14l12 -1l3 -6h-236l3 7l18 1c32 3 36 4 36 16v357h-158v-360c0 -8 4 -11 43 -14l24 -1l2 -6h-240l2 6l18 1c35 3 38 4 38 16v358h-158v-360c0 -8 4 -11 43 -14l22 -1l3 -6h-244l3 6l18 1c31 3 42 4 42 16v356l-79 1l23 47l56 -1l2 36
c13 140 128 191 230 191c56 0 86 -25 86 -60c0 -7 -1 -13 -4 -18z" />
    <glyph glyph-name="Delta" unicode="&#x2206;" horiz-adv-x="493" 
d="M178 -12c-108 0 -163 44 -163 103c0 43 31 70 71 70s68 -28 68 -65c0 -23 -13 -51 -42 -63c11 -19 37 -34 69 -34c68 0 90 35 90 149v455c0 7 -6 10 -58 13l-39 3l-3 6h323l-3 -6l-44 -4c-35 -3 -47 -8 -47 -15v-458c0 -53 -114 -154 -222 -154z" />
    <glyph glyph-name="nbspace" unicode="&#xa0;" horiz-adv-x="130" 
 />
    <glyph glyph-name="apple" unicode="&#xf8ff;" horiz-adv-x="758" 
d="M442 169l192 -104l-103 193l206 63l-206 61l103 192l-192 -103l-62 207l-64 -207l-191 103l103 -192l-208 -62l208 -64l-103 -191l191 104l62 -208zM294 115l-187 -68l68 187l-181 86l181 83l-68 189l187 -69l86 181l83 -181l189 69l-69 -189l180 -82l-180 -85l69 -189
l-189 69l-85 -181z" />
    <glyph glyph-name=".null" horiz-adv-x="0" 
 />
    <glyph glyph-name=".null" horiz-adv-x="0" 
 />
    <glyph glyph-name="Euro" unicode="&#x20ac;" horiz-adv-x="511" 
d="M305 -12c-120 0 -218 91 -242 240h-64l3 10h59c-2 21 -3 41 -3 58c0 21 1 43 5 62h-64l3 10h63c32 164 160 262 284 262c92 0 150 -29 150 -88c0 -31 -28 -60 -64 -60c-61 0 -85 77 -44 120c-8 5 -18 16 -46 16c-90 0 -150 -103 -161 -250h188l3 -10h-191
c-1 -12 -1 -25 -1 -38c0 -27 2 -54 6 -82h183l3 -10h-182c24 -105 89 -169 176 -169c64 0 105 23 140 83l7 -4c-47 -95 -115 -150 -211 -150z" />
    </font>
</defs>
</svg>
